<?xml version="1.0" encoding="utf-8"?>
<!-- Generator: Adobe Illustrator 27.5.0, SVG Export Plug-In . SVG Version: 6.00 Build 0)  -->
<svg version="1.1" xmlns="http://www.w3.org/2000/svg" xmlns:xlink="http://www.w3.org/1999/xlink" x="0px" y="0px"
	 viewBox="0 0 500 500" style="enable-background:new 0 0 500 500;" xml:space="preserve">
<g id="Background_Simple">
	<g>
		<path style="fill:#92E3A9;" d="M464.497,110.177c-1.584-2.687-3.246-5.323-4.987-7.903
			c-23.183-34.346-63.071-57.838-102.312-68.458c-17.184-4.651-34.93-7.089-52.711-7.692
			c-116.614-3.953-163.062,87.955-201.604,111.673S5.045,202.033,8.998,287.024s65.225,165.039,183.816,169.98
			c118.591,4.941,126.497-48.424,192.71-68.19c43.819-13.08,74.952-57.26,90.197-98.088
			C496.496,235.084,495.517,162.81,464.497,110.177z"/>
		<path style="opacity:0.7;fill:#FFFFFF;" d="M464.497,110.177c-1.584-2.687-3.246-5.323-4.987-7.903
			c-23.183-34.346-63.071-57.838-102.312-68.458c-17.184-4.651-34.93-7.089-52.711-7.692
			c-116.614-3.953-163.062,87.955-201.604,111.673S5.045,202.033,8.998,287.024s65.225,165.039,183.816,169.98
			c118.591,4.941,126.497-48.424,192.71-68.19c43.819-13.08,74.952-57.26,90.197-98.088
			C496.496,235.084,495.517,162.81,464.497,110.177z"/>
	</g>
</g>
<g id="Table">
	
		<line style="fill:none;stroke:#263238;stroke-linecap:round;stroke-linejoin:round;stroke-miterlimit:10;" x1="487.258" y1="466.651" x2="47" y2="466.651"/>
</g>
<g id="Window">
	<g style="opacity:0.3;">
		<g>
			<path style="fill:none;stroke:#000000;stroke-linecap:round;stroke-linejoin:round;stroke-miterlimit:10;" d="M239.561,40.468
				V406h118.737V40.468H239.561z M352.318,48.591v53.953h-49.42V48.591H352.318z M295.513,48.591v53.953h-49.972V48.591H295.513z
				 M245.541,111.101h49.972v53.532h-49.972V111.101z M352.318,397.877H245.541V173.917h106.777V397.877z M302.899,164.633v-53.532
				h49.42v53.532H302.899z"/>
			<path style="fill:none;stroke:#000000;stroke-linecap:round;stroke-linejoin:round;stroke-miterlimit:10;" d="M357.838,40.468
				V406h118.737V40.468H357.838z M470.595,48.591v53.953h-49.42V48.591H470.595z M413.789,48.591v53.953h-49.972V48.591H413.789z
				 M363.818,111.101h49.972v53.532h-49.972V111.101z M470.595,397.877H363.818V173.917h106.777V397.877z M421.175,164.633v-53.532
				h49.42v53.532H421.175z"/>
		</g>
		<g>
			
				<line style="fill:none;stroke:#000000;stroke-linecap:round;stroke-linejoin:round;stroke-miterlimit:10;" x1="325.737" y1="234.589" x2="295.928" y2="271.689"/>
			
				<line style="fill:none;stroke:#000000;stroke-linecap:round;stroke-linejoin:round;stroke-miterlimit:10;" x1="333.137" y1="225.379" x2="328.399" y2="231.276"/>
			
				<line style="fill:none;stroke:#000000;stroke-linecap:round;stroke-linejoin:round;stroke-miterlimit:10;" x1="263.52" y1="298.744" x2="257.414" y2="305.919"/>
			
				<line style="fill:none;stroke:#000000;stroke-linecap:round;stroke-linejoin:round;stroke-miterlimit:10;" x1="303.109" y1="252.225" x2="268.09" y2="293.375"/>
		</g>
		<g>
			
				<line style="fill:none;stroke:#000000;stroke-linecap:round;stroke-linejoin:round;stroke-miterlimit:10;" x1="445.849" y1="245.917" x2="416.041" y2="283.018"/>
			
				<line style="fill:none;stroke:#000000;stroke-linecap:round;stroke-linejoin:round;stroke-miterlimit:10;" x1="453.249" y1="236.707" x2="448.511" y2="242.605"/>
			
				<line style="fill:none;stroke:#000000;stroke-linecap:round;stroke-linejoin:round;stroke-miterlimit:10;" x1="383.633" y1="310.072" x2="377.526" y2="317.247"/>
			
				<line style="fill:none;stroke:#000000;stroke-linecap:round;stroke-linejoin:round;stroke-miterlimit:10;" x1="423.221" y1="263.554" x2="388.202" y2="304.703"/>
		</g>
		<g>
			
				<line style="fill:none;stroke:#000000;stroke-linecap:round;stroke-linejoin:round;stroke-miterlimit:10;" x1="459.618" y1="57.071" x2="445.35" y2="74.829"/>
			
				<line style="fill:none;stroke:#000000;stroke-linecap:round;stroke-linejoin:round;stroke-miterlimit:10;" x1="463.16" y1="52.663" x2="460.892" y2="55.486"/>
			
				<line style="fill:none;stroke:#000000;stroke-linecap:round;stroke-linejoin:round;stroke-miterlimit:10;" x1="429.837" y1="87.779" x2="426.915" y2="91.214"/>
			
				<line style="fill:none;stroke:#000000;stroke-linecap:round;stroke-linejoin:round;stroke-miterlimit:10;" x1="448.787" y1="65.513" x2="432.025" y2="85.209"/>
		</g>
		<g>
			
				<line style="fill:none;stroke:#000000;stroke-linecap:round;stroke-linejoin:round;stroke-miterlimit:10;" x1="403.938" y1="57.071" x2="389.67" y2="74.829"/>
			
				<line style="fill:none;stroke:#000000;stroke-linecap:round;stroke-linejoin:round;stroke-miterlimit:10;" x1="407.48" y1="52.663" x2="405.213" y2="55.486"/>
			
				<line style="fill:none;stroke:#000000;stroke-linecap:round;stroke-linejoin:round;stroke-miterlimit:10;" x1="374.158" y1="87.779" x2="371.235" y2="91.214"/>
			
				<line style="fill:none;stroke:#000000;stroke-linecap:round;stroke-linejoin:round;stroke-miterlimit:10;" x1="393.107" y1="65.513" x2="376.345" y2="85.209"/>
		</g>
		<g>
			
				<line style="fill:none;stroke:#000000;stroke-linecap:round;stroke-linejoin:round;stroke-miterlimit:10;" x1="403.938" y1="123.602" x2="389.67" y2="141.36"/>
			
				<line style="fill:none;stroke:#000000;stroke-linecap:round;stroke-linejoin:round;stroke-miterlimit:10;" x1="407.48" y1="119.193" x2="405.213" y2="122.016"/>
			
				<line style="fill:none;stroke:#000000;stroke-linecap:round;stroke-linejoin:round;stroke-miterlimit:10;" x1="374.158" y1="154.31" x2="371.235" y2="157.744"/>
			
				<line style="fill:none;stroke:#000000;stroke-linecap:round;stroke-linejoin:round;stroke-miterlimit:10;" x1="393.107" y1="132.044" x2="376.345" y2="151.74"/>
		</g>
		<g>
			
				<line style="fill:none;stroke:#000000;stroke-linecap:round;stroke-linejoin:round;stroke-miterlimit:10;" x1="453.598" y1="123.602" x2="439.33" y2="141.36"/>
			
				<line style="fill:none;stroke:#000000;stroke-linecap:round;stroke-linejoin:round;stroke-miterlimit:10;" x1="457.141" y1="119.193" x2="454.873" y2="122.016"/>
			
				<line style="fill:none;stroke:#000000;stroke-linecap:round;stroke-linejoin:round;stroke-miterlimit:10;" x1="423.818" y1="154.31" x2="420.895" y2="157.744"/>
			
				<line style="fill:none;stroke:#000000;stroke-linecap:round;stroke-linejoin:round;stroke-miterlimit:10;" x1="442.767" y1="132.044" x2="426.005" y2="151.74"/>
		</g>
		<g>
			
				<line style="fill:none;stroke:#000000;stroke-linecap:round;stroke-linejoin:round;stroke-miterlimit:10;" x1="342.24" y1="57.071" x2="327.972" y2="74.829"/>
			
				<line style="fill:none;stroke:#000000;stroke-linecap:round;stroke-linejoin:round;stroke-miterlimit:10;" x1="345.782" y1="52.663" x2="343.514" y2="55.486"/>
			
				<line style="fill:none;stroke:#000000;stroke-linecap:round;stroke-linejoin:round;stroke-miterlimit:10;" x1="312.459" y1="87.779" x2="309.536" y2="91.214"/>
			
				<line style="fill:none;stroke:#000000;stroke-linecap:round;stroke-linejoin:round;stroke-miterlimit:10;" x1="331.409" y1="65.513" x2="314.646" y2="85.209"/>
		</g>
		<g>
			
				<line style="fill:none;stroke:#000000;stroke-linecap:round;stroke-linejoin:round;stroke-miterlimit:10;" x1="342.24" y1="122.055" x2="327.972" y2="139.813"/>
			
				<line style="fill:none;stroke:#000000;stroke-linecap:round;stroke-linejoin:round;stroke-miterlimit:10;" x1="345.782" y1="117.646" x2="343.514" y2="120.469"/>
			
				<line style="fill:none;stroke:#000000;stroke-linecap:round;stroke-linejoin:round;stroke-miterlimit:10;" x1="312.459" y1="152.763" x2="309.536" y2="156.197"/>
			
				<line style="fill:none;stroke:#000000;stroke-linecap:round;stroke-linejoin:round;stroke-miterlimit:10;" x1="331.409" y1="130.497" x2="314.646" y2="150.193"/>
		</g>
		<g>
			
				<line style="fill:none;stroke:#000000;stroke-linecap:round;stroke-linejoin:round;stroke-miterlimit:10;" x1="288.065" y1="122.055" x2="273.797" y2="139.813"/>
			
				<line style="fill:none;stroke:#000000;stroke-linecap:round;stroke-linejoin:round;stroke-miterlimit:10;" x1="291.607" y1="117.646" x2="289.339" y2="120.469"/>
			
				<line style="fill:none;stroke:#000000;stroke-linecap:round;stroke-linejoin:round;stroke-miterlimit:10;" x1="258.285" y1="152.763" x2="255.362" y2="156.197"/>
			
				<line style="fill:none;stroke:#000000;stroke-linecap:round;stroke-linejoin:round;stroke-miterlimit:10;" x1="277.234" y1="130.497" x2="260.472" y2="150.193"/>
		</g>
		<g>
			
				<line style="fill:none;stroke:#000000;stroke-linecap:round;stroke-linejoin:round;stroke-miterlimit:10;" x1="284.303" y1="57.071" x2="270.035" y2="74.829"/>
			
				<line style="fill:none;stroke:#000000;stroke-linecap:round;stroke-linejoin:round;stroke-miterlimit:10;" x1="287.845" y1="52.663" x2="285.577" y2="55.486"/>
			
				<line style="fill:none;stroke:#000000;stroke-linecap:round;stroke-linejoin:round;stroke-miterlimit:10;" x1="254.523" y1="87.779" x2="251.6" y2="91.214"/>
			
				<line style="fill:none;stroke:#000000;stroke-linecap:round;stroke-linejoin:round;stroke-miterlimit:10;" x1="273.472" y1="65.513" x2="256.71" y2="85.209"/>
		</g>
	</g>
</g>
<g id="Plant">
	<g>
		<path style="fill:none;stroke:#263238;stroke-linecap:round;stroke-miterlimit:10;" d="M101.649,343.723
			c0,0-10.974-6.097-11.787,7.722c-0.813,13.819-2.845,103.642-2.845,103.642"/>
		<path style="fill:none;stroke:#263238;stroke-linecap:round;stroke-miterlimit:10;" d="M84.163,352.663
			c0,0,8.951,19.917,4.886,101.205"/>
		<g>
			<path style="fill:#92E3A9;" d="M92.957,346.504c0,0-4.198,2.69-6.586-0.388c-2.389-3.078,1.616-8.717-1.914-11.128
				c-3.529-2.411-9.621,1.268-9.621,1.268s4.692,1.378,4.541,3.94c-0.151,2.561-2.411,3.53-2.712,2.41
				c-0.301-1.119-2.539-6.759-6.349-4.414c-3.81,2.346-4.392,5.983-4.392,5.983s8.868-0.945,9.406,2.391s-3.637-0.582-7.297-0.798
				c-3.659-0.216-6.995,0.322-6.759,2.539c0.236,2.217-0.345,5.854-0.345,5.854s3.1-2.755,7.125-2.517
				c4.025,0.237,3.874,2.799,0.215,2.583c-3.659-0.216-6.802,3.27-6.802,3.27s3.335,5.704,7.575,8.525
				c4.24,2.82,5.768,1.809,6.264-0.365c0.495-2.174-0.644-7.749,1.917-7.598c2.561,0.151-4.242,9.663-0.97,10.224
				c3.271,0.56,5.898-0.386,6.759-2.539c0.861-2.152,0.861-2.152,0.861-2.152s-1.14-5.575-0.644-7.749
				c0.495-2.174,1.098,0.065,1.678,2.669c0.581,2.604,0.945,8.868,2.065,8.567c1.119-0.301,4.693-4.864,5.533-6.65
				c0.84-1.786-4.712-7.254-4.648-8.352c0.065-1.098,4.348,0.991,5.015,2.132c0.667,1.141,1.313,2.648,1.313,2.648
				s2.669-1.678,2.606-6.823C96.724,344.891,92.957,346.504,92.957,346.504z"/>
			<path style="opacity:0.3;fill:#263238;" d="M92.957,346.504c0,0-4.198,2.69-6.586-0.388c-2.389-3.078,1.616-8.717-1.914-11.128
				c-3.529-2.411-9.621,1.268-9.621,1.268s4.692,1.378,4.541,3.94c-0.151,2.561-2.411,3.53-2.712,2.41
				c-0.301-1.119-2.539-6.759-6.349-4.414c-3.81,2.346-4.392,5.983-4.392,5.983s8.868-0.945,9.406,2.391s-3.637-0.582-7.297-0.798
				c-3.659-0.216-6.995,0.322-6.759,2.539c0.236,2.217-0.345,5.854-0.345,5.854s3.1-2.755,7.125-2.517
				c4.025,0.237,3.874,2.799,0.215,2.583c-3.659-0.216-6.802,3.27-6.802,3.27s3.335,5.704,7.575,8.525
				c4.24,2.82,5.768,1.809,6.264-0.365c0.495-2.174-0.644-7.749,1.917-7.598c2.561,0.151-4.242,9.663-0.97,10.224
				c3.271,0.56,5.898-0.386,6.759-2.539c0.861-2.152,0.861-2.152,0.861-2.152s-1.14-5.575-0.644-7.749
				c0.495-2.174,1.098,0.065,1.678,2.669c0.581,2.604,0.945,8.868,2.065,8.567c1.119-0.301,4.693-4.864,5.533-6.65
				c0.84-1.786-4.712-7.254-4.648-8.352c0.065-1.098,4.348,0.991,5.015,2.132c0.667,1.141,1.313,2.648,1.313,2.648
				s2.669-1.678,2.606-6.823C96.724,344.891,92.957,346.504,92.957,346.504z"/>
			<path style="fill:none;stroke:#263238;stroke-linecap:round;stroke-miterlimit:10;" d="M71.676,358.567
				c2.737-3.384,6.772-7.963,10.152-10.148"/>
			<path style="fill:none;stroke:#263238;stroke-linecap:round;stroke-miterlimit:10;" d="M68.503,362.686
				c0,0,0.703-0.977,1.842-2.441"/>
			<path style="fill:none;stroke:#263238;stroke-linecap:round;stroke-miterlimit:10;" d="M83.615,349.258
				c0,0,4.067,5.748,4.819,11.667"/>
			<path style="fill:none;stroke:#263238;stroke-linecap:round;stroke-miterlimit:10;" d="M79.008,352.658
				c0,0,1.141-0.667,0.709,6.651"/>
			<path style="fill:none;stroke:#263238;stroke-linecap:round;stroke-miterlimit:10;" d="M81.979,345.857
				c0,0,2.325-2.066,1.099-6.177"/>
			
				<line style="fill:none;stroke:#263238;stroke-linecap:round;stroke-miterlimit:10;" x1="78.836" y1="349.343" x2="77.179" y2="346.308"/>
			<path style="fill:none;stroke:#263238;stroke-linecap:round;stroke-miterlimit:10;" d="M75.349,352.442
				c0,0-5.273-3.983-8.566-4.177"/>
		</g>
		<g>
			<path style="fill:#92E3A9;" d="M107.918,335.66c0,0-0.168,6.036-4.878,6.329c-4.71,0.293-7.626-7.559-12.446-5.669
				c-4.82,1.89-5.288,10.498-5.288,10.498s4.578-3.758,7.04-1.861c2.461,1.897,1.89,4.82,0.564,4.359
				c-1.326-0.461-8.498-2.065-8.746,3.348c-0.249,5.414,2.996,8.475,2.996,8.475s5.098-9.523,8.805-7.787
				c3.707,1.736-3.062,3.245-5.772,6.762c-2.71,3.516-4.446,7.223-2.065,8.498c2.381,1.274,5.626,4.336,5.626,4.336
				s-0.645-4.981,2.336-8.849c2.981-3.868,5.443-1.971,2.732,1.546c-2.71,3.516-1.362,9.04-1.362,9.04s7.985,0.549,13.698-1.773
				c5.714-2.322,5.743-4.542,3.904-6.52c-1.839-1.978-8.197-4.637-6.3-7.098c1.897-2.461,6.784,10.834,9.575,7.94
				c2.791-2.894,3.633-6.168,2.065-8.498c-1.568-2.329-1.568-2.329-1.568-2.329s-6.359-2.659-8.197-4.637
				c-1.839-1.978,0.813-1.055,3.816,0.139c3.003,1.194,9.523,5.098,9.985,3.772c0.461-1.326-1.671-8.014-2.887-10.072
				c-1.216-2.058-10.475-0.227-11.53-1.04c-1.055-0.813,3.955-3.678,5.552-3.568c1.597,0.11,3.546,0.49,3.546,0.49
				s0.139-3.816-5.055-7.259C108.87,330.788,107.918,335.66,107.918,335.66z"/>
			<path style="opacity:0.2;fill:#263238;" d="M107.918,335.66c0,0-0.168,6.036-4.878,6.329c-4.71,0.293-7.626-7.559-12.446-5.669
				c-4.82,1.89-5.288,10.498-5.288,10.498s4.578-3.758,7.04-1.861c2.461,1.897,1.89,4.82,0.564,4.359
				c-1.326-0.461-8.498-2.065-8.746,3.348c-0.249,5.414,2.996,8.475,2.996,8.475s5.098-9.523,8.805-7.787
				c3.707,1.736-3.062,3.245-5.772,6.762c-2.71,3.516-4.446,7.223-2.065,8.498c2.381,1.274,5.626,4.336,5.626,4.336
				s-0.645-4.981,2.336-8.849c2.981-3.868,5.443-1.971,2.732,1.546c-2.71,3.516-1.362,9.04-1.362,9.04s7.985,0.549,13.698-1.773
				c5.714-2.322,5.743-4.542,3.904-6.52c-1.839-1.978-8.197-4.637-6.3-7.098c1.897-2.461,6.784,10.834,9.575,7.94
				c2.791-2.894,3.633-6.168,2.065-8.498c-1.568-2.329-1.568-2.329-1.568-2.329s-6.359-2.659-8.197-4.637
				c-1.839-1.978,0.813-1.055,3.816,0.139c3.003,1.194,9.523,5.098,9.985,3.772c0.461-1.326-1.671-8.014-2.887-10.072
				c-1.216-2.058-10.475-0.227-11.53-1.04c-1.055-0.813,3.955-3.678,5.552-3.568c1.597,0.11,3.546,0.49,3.546,0.49
				s0.139-3.816-5.055-7.259C108.87,330.788,107.918,335.66,107.918,335.66z"/>
			<path style="fill:none;stroke:#263238;stroke-linecap:round;stroke-miterlimit:10;" d="M105.49,365.188
				c-1.523-5.047-3.357-12.207-3.241-17.082"/>
			<path style="fill:none;stroke:#263238;stroke-linecap:round;stroke-miterlimit:10;" d="M107.451,371.173
				c0,0-0.499-1.37-1.189-3.509"/>
			<path style="fill:none;stroke:#263238;stroke-linecap:round;stroke-miterlimit:10;" d="M104.307,346.89
				c0,0,8.527-0.154,14.966,3.127"/>
			<path style="fill:none;stroke:#263238;stroke-linecap:round;stroke-miterlimit:10;" d="M104.571,353.819
				c0,0,0.11-1.597,7.142,3.823"/>
			<path style="fill:none;stroke:#263238;stroke-linecap:round;stroke-miterlimit:10;" d="M99.787,346.209
				c0,0-0.484-3.736-5.436-5.311"/>
			
				<line style="fill:none;stroke:#263238;stroke-linecap:round;stroke-miterlimit:10;" x1="101.136" y1="351.732" x2="96.967" y2="351.322"/>
			<path style="fill:none;stroke:#263238;stroke-linecap:round;stroke-miterlimit:10;" d="M101.861,357.336
				c0,0-7.582,2.564-10.021,5.729"/>
		</g>
		<path style="fill:none;stroke:#263238;stroke-linecap:round;stroke-miterlimit:10;" d="M57.347,375.832
			c0,0,23.98,15.851,23.573,77.223"/>
		<g>
			<path style="fill:#92E3A9;" d="M86.913,371.644c0,0-0.764,6.949-6.227,6.843s-8.086-9.443-13.827-7.716
				c-5.74,1.726-7.093,11.614-7.093,11.614s5.638-3.904,8.299-1.483c2.661,2.422,1.726,5.74,0.24,5.083
				c-1.486-0.658-9.61-3.185-10.408,3.038s2.658,10.063,2.658,10.063s6.781-10.508,10.895-8.155
				c4.113,2.353-3.839,3.456-7.299,7.258c-3.459,3.802-5.812,7.915-3.185,9.611c2.627,1.695,6.083,5.535,6.083,5.535
				s-0.274-5.809,3.531-9.991c3.805-4.182,6.466-1.76,3.007,2.041c-3.459,3.802-2.425,10.302-2.425,10.302s9.162,1.387,15.974-0.754
				s7.055-4.699,5.12-7.155c-1.935-2.456-9.021-6.124-6.6-8.785c2.422-2.661,6.805,13.142,10.299,10.066
				c3.493-3.076,4.774-6.775,3.185-9.611c-1.589-2.836-1.589-2.836-1.589-2.836s-7.086-3.668-9.021-6.124
				c-1.935-2.456,1.038-1.141,4.391,0.521c3.353,1.661,10.508,6.781,11.165,5.295c0.658-1.486-1.172-9.405-2.38-11.895
				c-1.209-2.49-12.066-1.25-13.207-2.288c-1.14-1.038,4.911-3.87,6.744-3.593c1.832,0.277,4.045,0.901,4.045,0.901
				s0.521-4.391-5.148-8.854C88.472,366.113,86.913,371.644,86.913,371.644z"/>
			<path style="opacity:0.3;fill:#263238;" d="M86.913,371.644c0,0-0.764,6.949-6.227,6.843s-8.086-9.443-13.827-7.716
				c-5.74,1.726-7.093,11.614-7.093,11.614s5.638-3.904,8.299-1.483c2.661,2.422,1.726,5.74,0.24,5.083
				c-1.486-0.658-9.61-3.185-10.408,3.038s2.658,10.063,2.658,10.063s6.781-10.508,10.895-8.155
				c4.113,2.353-3.839,3.456-7.299,7.258c-3.459,3.802-5.812,7.915-3.185,9.611c2.627,1.695,6.083,5.535,6.083,5.535
				s-0.274-5.809,3.531-9.991c3.805-4.182,6.466-1.76,3.007,2.041c-3.459,3.802-2.425,10.302-2.425,10.302s9.162,1.387,15.974-0.754
				s7.055-4.699,5.12-7.155c-1.935-2.456-9.021-6.124-6.6-8.785c2.422-2.661,6.805,13.142,10.299,10.066
				c3.493-3.076,4.774-6.775,3.185-9.611c-1.589-2.836-1.589-2.836-1.589-2.836s-7.086-3.668-9.021-6.124
				c-1.935-2.456,1.038-1.141,4.391,0.521c3.353,1.661,10.508,6.781,11.165,5.295c0.658-1.486-1.172-9.405-2.38-11.895
				c-1.209-2.49-12.066-1.25-13.207-2.288c-1.14-1.038,4.911-3.87,6.744-3.593c1.832,0.277,4.045,0.901,4.045,0.901
				s0.521-4.391-5.148-8.854C88.472,366.113,86.913,371.644,86.913,371.644z"/>
			<path style="fill:none;stroke:#263238;stroke-linecap:round;stroke-miterlimit:10;" d="M81.324,405.488
				c-1.28-5.968-2.722-14.403-2.127-20.017"/>
			<path style="fill:none;stroke:#263238;stroke-linecap:round;stroke-miterlimit:10;" d="M83.023,412.58
				c0,0-0.447-1.628-1.041-4.161"/>
			<path style="fill:none;stroke:#263238;stroke-linecap:round;stroke-miterlimit:10;" d="M81.687,384.262
				c0,0,9.854,0.627,16.974,5.021"/>
			<path style="fill:none;stroke:#263238;stroke-linecap:round;stroke-miterlimit:10;" d="M81.338,392.283
				c0,0,0.277-1.832,7.881,5.086"/>
			<path style="fill:none;stroke:#263238;stroke-linecap:round;stroke-miterlimit:10;" d="M76.536,383.049
				c0,0-0.205-4.357-5.771-6.641"/>
			
				<line style="fill:none;stroke:#263238;stroke-linecap:round;stroke-miterlimit:10;" x1="77.57" y1="389.55" x2="72.799" y2="388.683"/>
			<path style="fill:none;stroke:#263238;stroke-linecap:round;stroke-miterlimit:10;" d="M77.878,396.085
				c0,0-8.991,2.243-12.104,5.665"/>
		</g>
		<path style="fill:none;stroke:#263238;stroke-linecap:round;stroke-miterlimit:10;" d="M66.695,424.198
			c0,0,15.445,11.787,17.07,29.264l-3.251-58.527"/>
		<path style="fill:none;stroke:#263238;stroke-linecap:round;stroke-miterlimit:10;" d="M104.087,415.663
			c-20.322-3.658-20.322,37.799-20.322,37.799"/>
		<path style="fill:none;stroke:#263238;stroke-linecap:round;stroke-miterlimit:10;" d="M86.204,453.055
			c0,0-11.787-85.758,22.354-85.758"/>
		<g>
			<path style="fill:#92E3A9;" d="M96.344,413.197c-2.776-3.123-8.675-3.123-12.145,4.858c-3.47,7.981-0.347,6.593-0.347,6.593
				s6.593-2.082,10.757-3.47c4.164-1.388,9.716-4.858,10.063-2.776c0.347,2.082-2.776,4.164-6.593,4.858
				c-3.817,0.694-13.88,3.47-12.839,5.552c1.041,2.082,3.47,8.328,3.47,8.328s4.858-4.164,9.369-6.94
				c4.511-2.776,7.287-1.735,4.858,1.388c-2.429,3.123-9.369,6.593-7.981,10.757c1.388,4.164,9.716,9.369,9.716,9.369
				s1.041-8.675,3.47-11.451c2.429-2.776,2.429,0.347,1.735,5.205c-0.694,4.858-0.694,6.246-0.694,6.246l9.716,3.47
				c0,0,3.47-5.205,5.205-6.94c1.735-1.735,1.735-1.735,1.735-1.735s-7.634-6.593-7.981-10.757c-0.347-4.164,5.205,0,6.94,0.694
				c1.735,0.694,4.511,5.552,4.511,5.552s1.735-7.981,2.082-10.757c0.347-2.776,0.347-2.776,0.347-2.776s-7.287-2.776-10.063-2.776
				c-2.776,0-4.164,2.082-4.164-0.694c0-2.776,2.776-4.511,5.899-4.164c3.123,0.347,8.328,2.082,8.328,2.082s2.082-1.735,1.388-6.94
				c-0.694-5.205-2.429-5.205-6.593-3.817c-4.164,1.388-6.94,4.511-10.063,4.511c-3.123,0-1.388-3.817,0.694-4.858
				c2.082-1.041,7.287-3.123,8.328-3.47c1.041-0.347-5.552-5.205-9.022-5.899c-3.47-0.694-7.963,1.75-7.634,5.205
				C109.529,414.932,99.12,416.32,96.344,413.197z"/>
			<path style="fill:none;stroke:#263238;stroke-linecap:round;stroke-miterlimit:10;" d="M118.681,448.924
				c0.104,1.045,0.177,2.091,0.217,3.136"/>
			<path style="fill:none;stroke:#263238;stroke-linecap:round;stroke-miterlimit:10;" d="M111.71,424.015
				c2.437,5.632,5.255,13.397,6.531,21.501"/>
			<path style="fill:none;stroke:#263238;stroke-linecap:round;stroke-miterlimit:10;" d="M110.46,421.229
				c-1.719-3.697-3.013-5.95-3.013-5.95s3.123-1.388,4.511-4.164c1.388-2.776,3.47-4.164,3.47-4.164"/>
			<path style="fill:none;stroke:#263238;stroke-linecap:round;stroke-miterlimit:10;" d="M95.303,427.077
				c0,0,12.491-5.205,12.491-4.164"/>
			<path style="fill:none;stroke:#263238;stroke-linecap:round;stroke-miterlimit:10;" d="M114.734,420.484
				c0,0,5.552-2.776,10.41-2.776"/>
			<path style="fill:none;stroke:#263238;stroke-linecap:round;stroke-miterlimit:10;" d="M112.652,428.812
				c0,0-3.123,2.429-6.593,6.593c-3.47,4.164-4.858,7.981-4.858,7.981"/>
			<path style="fill:none;stroke:#263238;stroke-linecap:round;stroke-miterlimit:10;" d="M116.469,430.2
				c0,0,7.287-2.082,11.104,1.388"/>
		</g>
		<g>
			<path style="fill:#92E3A9;" d="M129.668,383.315c-3.778-2.234-7.956-2.283-10.003-4.642c-2.047-2.358,1.972-3.55,4.123-2.661
				c2.151,0.89,7.135,3.455,8.08,4.014c0.944,0.559,0.291-7.604-1.46-10.68c-1.751-3.075-6.542-4.865-8.935-2.352
				c-5.048,5.301-12.92-1.65-12.381-5.793c0.538-4.143-3.329-8.598-11.63-5.986c-8.301,2.612-5.206,4.06-5.206,4.06
				s5.894,3.613,9.672,5.848c3.778,2.234,10.038,4.152,8.693,5.779c-1.345,1.627-4.964,0.633-7.99-1.794
				c-3.026-2.427-11.719-8.206-12.609-6.055c-0.89,2.151-4.014,8.079-4.014,8.079s6.329,0.939,11.382,2.525
				c5.053,1.586,6.087,4.365,2.137,4.578c-3.951,0.213-11.12-2.753-13.355,1.025c-2.234,3.778-0.705,13.478-0.705,13.478
				s7.233-4.901,10.921-4.886c3.688,0.014,1.33,2.062-2.793,4.722c-4.123,2.661-5.171,3.57-5.171,3.57l3.749,9.611
				c0,0,6.205-0.792,8.652-0.619c2.447,0.173,2.447,0.173,2.447,0.173s-0.026-10.086,2.891-13.078
				c2.917-2.992,3.412,3.93,4.026,5.695c0.613,1.765-1.235,7.046-1.235,7.046s7.164-3.922,9.487-5.479
				c2.324-1.558,2.324-1.558,2.324-1.558s-2.681-7.322-4.501-9.418c-1.82-2.096-4.302-1.779-2.206-3.599s5.226-0.861,7.011,1.725
				c1.785,2.586,3.887,7.654,3.887,7.654s2.675,0.435,6.15-3.501C134.583,386.859,133.446,385.549,129.668,383.315z M96.83,394.421
				c-2.776-1.388,3.817-4.164,3.817-4.164C103.076,389.91,99.606,395.809,96.83,394.421z M101.505,381.467
				c-1.183-0.592,2.367-1.775,2.367-1.775C108.999,380.678,102.688,382.059,101.505,381.467z"/>
			<path style="fill:none;stroke:#263238;stroke-linecap:round;stroke-miterlimit:10;" d="M96.757,401.49
				c-0.721,0.763-1.463,1.505-2.225,2.22"/>
			<path style="fill:none;stroke:#263238;stroke-linecap:round;stroke-miterlimit:10;" d="M110.997,379.896
				c-2.655,5.532-6.672,12.751-11.954,19.028"/>
			<path style="fill:none;stroke:#263238;stroke-linecap:round;stroke-miterlimit:10;" d="M112.281,377.126
				c1.664-3.721,2.518-6.176,2.518-6.176s3.095,1.448,6.102,0.677c3.006-0.772,5.419-0.109,5.419-0.109"/>
			<path style="fill:none;stroke:#263238;stroke-linecap:round;stroke-miterlimit:10;" d="M97.929,369.514
				c0,0,12.119,6.021,11.333,6.703"/>
			<path style="fill:none;stroke:#263238;stroke-linecap:round;stroke-miterlimit:10;" d="M115.646,379.865
				c0,0,5.736,2.373,8.92,6.041"/>
			<path style="fill:none;stroke:#263238;stroke-linecap:round;stroke-miterlimit:10;" d="M107.992,383.752
				c0,0-3.881-0.766-9.3-0.657c-5.419,0.11-9.211,1.564-9.211,1.564"/>
			<path style="fill:none;stroke:#263238;stroke-linecap:round;stroke-miterlimit:10;" d="M109.446,387.544
				c0,0,6.349,4.138,6.231,9.295"/>
		</g>
		<g>
			<path style="fill:#92E3A9;" d="M75.75,431.394c-3.04-1.798-6.402-1.837-8.05-3.735c-1.648-1.898,1.587-2.857,3.318-2.141
				c1.731,0.716,5.742,2.781,6.502,3.23c0.76,0.45,0.234-6.12-1.175-8.594c-1.409-2.475-5.265-3.915-7.19-1.893
				c-4.062,4.266-10.397-1.328-9.964-4.662s-2.679-6.919-9.359-4.817c-6.68,2.102-4.189,3.267-4.189,3.267s4.743,2.908,7.784,4.706
				c3.04,1.798,8.078,3.341,6.996,4.651c-1.082,1.309-3.995,0.51-6.43-1.444c-2.435-1.953-9.431-6.604-10.147-4.873
				c-0.716,1.731-3.23,6.502-3.23,6.502s5.093,0.755,9.16,2.032c4.067,1.277,4.899,3.513,1.72,3.684
				c-3.179,0.171-8.949-2.215-10.747,0.825c-1.798,3.04-0.568,10.847-0.568,10.847s5.821-3.944,8.789-3.932
				c2.968,0.011,1.071,1.659-2.248,3.8c-3.318,2.141-4.162,2.873-4.162,2.873l3.017,7.735c0,0,4.994-0.637,6.963-0.498
				c1.97,0.139,1.97,0.139,1.97,0.139s-0.021-8.117,2.326-10.525c2.347-2.408,2.746,3.163,3.24,4.583
				c0.494,1.42-0.994,5.67-0.994,5.67s5.765-3.156,7.635-4.41c1.87-1.254,1.87-1.254,1.87-1.254s-2.157-5.893-3.622-7.579
				c-1.464-1.687-3.462-1.432-1.775-2.897c1.687-1.465,4.206-0.693,5.642,1.388s3.128,6.159,3.128,6.159s2.153,0.35,4.95-2.818
				S78.79,433.192,75.75,431.394z M49.324,440.332c-2.234-1.117,3.072-3.351,3.072-3.351
				C54.35,436.702,51.558,441.449,49.324,440.332z M53.086,429.907c-0.952-0.476,1.905-1.428,1.905-1.428
				C59.117,429.272,54.038,430.384,53.086,429.907z"/>
			<path style="fill:none;stroke:#263238;stroke-linecap:round;stroke-miterlimit:10;" d="M49.264,446.021
				c-0.58,0.614-1.177,1.211-1.791,1.786"/>
			<path style="fill:none;stroke:#263238;stroke-linecap:round;stroke-miterlimit:10;" d="M60.724,428.643
				c-2.137,4.452-5.369,10.261-9.62,15.312"/>
			<path style="fill:none;stroke:#263238;stroke-linecap:round;stroke-miterlimit:10;" d="M61.758,426.414
				c1.339-2.995,2.026-4.97,2.026-4.97s2.491,1.165,4.91,0.544c2.419-0.621,4.361-0.088,4.361-0.088"/>
			<path style="fill:none;stroke:#263238;stroke-linecap:round;stroke-miterlimit:10;" d="M50.208,420.288
				c0,0,9.753,4.845,9.12,5.394"/>
			<path style="fill:none;stroke:#263238;stroke-linecap:round;stroke-miterlimit:10;" d="M64.465,428.618
				c0,0,4.616,1.909,7.179,4.861"/>
			<path style="fill:none;stroke:#263238;stroke-linecap:round;stroke-miterlimit:10;" d="M58.306,431.747
				c0,0-3.124-0.616-7.485-0.528c-4.361,0.088-7.413,1.258-7.413,1.258"/>
			<path style="fill:none;stroke:#263238;stroke-linecap:round;stroke-miterlimit:10;" d="M59.477,434.798
				c0,0,5.109,3.33,5.014,7.48"/>
		</g>
		<g>
			<path style="fill:#92E3A9;" d="M63.354,374.096c0,0-3.817,2.776-6.246,0c-2.429-2.776,1.041-8.328-2.429-10.41
				c-3.47-2.082-9.022,1.735-9.022,1.735s4.511,1.041,4.511,3.47s-2.082,3.47-2.429,2.429c-0.347-1.041-2.776-6.246-6.246-3.817
				c-3.47,2.429-3.817,5.899-3.817,5.899s8.328-1.388,9.022,1.735c0.694,3.123-3.47-0.347-6.94-0.347
				c-3.47,0-6.593,0.694-6.246,2.776c0.347,2.082,0,5.552,0,5.552s2.776-2.776,6.593-2.776c3.817,0,3.817,2.429,0.347,2.429
				c-3.47,0-6.246,3.47-6.246,3.47s3.47,5.205,7.634,7.634c4.164,2.429,5.552,1.388,5.899-0.694
				c0.347-2.082-1.041-7.287,1.388-7.287c2.429,0-3.47,9.369-0.347,9.716c3.123,0.347,5.552-0.694,6.246-2.776
				c0.694-2.082,0.694-2.082,0.694-2.082s-1.388-5.205-1.041-7.287c0.347-2.082,1.041,0,1.735,2.429
				c0.694,2.429,1.388,8.328,2.429,7.981c1.041-0.347,4.164-4.858,4.858-6.593c0.694-1.735-4.858-6.593-4.858-7.634
				c0-1.041,4.164,0.694,4.858,1.735c0.694,1.041,1.388,2.429,1.388,2.429s2.429-1.735,2.082-6.593S63.354,374.096,63.354,374.096z"
				/>
			<path style="fill:none;stroke:#263238;stroke-linecap:round;stroke-miterlimit:10;" d="M43.916,386.681
				c2.398-3.351,5.955-7.903,9.028-10.156"/>
			<path style="fill:none;stroke:#263238;stroke-linecap:round;stroke-miterlimit:10;" d="M41.146,390.751
				c0,0,0.61-0.963,1.605-2.41"/>
			<path style="fill:none;stroke:#263238;stroke-linecap:round;stroke-miterlimit:10;" d="M54.679,377.219
				c0,0,4.164,5.205,5.205,10.757"/>
			<path style="fill:none;stroke:#263238;stroke-linecap:round;stroke-miterlimit:10;" d="M50.515,380.688
				c0,0,1.041-0.694,1.041,6.246"/>
			<path style="fill:none;stroke:#263238;stroke-linecap:round;stroke-miterlimit:10;" d="M52.944,374.096
				c0,0,2.082-2.082,0.694-5.899"/>
			
				<line style="fill:none;stroke:#263238;stroke-linecap:round;stroke-miterlimit:10;" x1="50.168" y1="377.566" x2="48.433" y2="374.79"/>
			<path style="fill:none;stroke:#263238;stroke-linecap:round;stroke-miterlimit:10;" d="M47.045,380.688
				c0,0-5.205-3.47-8.328-3.47"/>
		</g>
		
			<rect x="71.573" y="451.836" style="fill:#263238;stroke:#263238;stroke-width:2;stroke-linecap:round;stroke-miterlimit:10;" width="26.825" height="14.165"/>
	</g>
</g>
<g id="Screen">
	<g>
		<path style="opacity:0.2;" d="M320.245,357.293H67.024c-5.799,0-10.5-4.701-10.5-10.5V39.899c0-5.799,4.701-10.5,10.5-10.5
			h253.221c5.799,0,10.5,4.701,10.5,10.5v306.894C330.745,352.592,326.044,357.293,320.245,357.293z"/>
		<path style="fill:#E3E3E3;stroke:#263238;stroke-linecap:round;stroke-linejoin:round;stroke-miterlimit:10;" d="M312.245,351.293
			H59.024c-5.799,0-10.5-4.701-10.5-10.5V33.899c0-5.799,4.701-10.5,10.5-10.5h253.221c5.799,0,10.5,4.701,10.5,10.5v306.894
			C322.745,346.592,318.044,351.293,312.245,351.293z"/>
		
			<rect x="78.285" y="23.399" style="fill:#FFFFFF;stroke:#263238;stroke-linecap:round;stroke-linejoin:round;stroke-miterlimit:10;" width="204.389" height="327.894"/>
		<path style="fill:#B2B2B2;stroke:#263238;stroke-linecap:round;stroke-linejoin:round;stroke-miterlimit:10;" d="M313.637,24.172
			v327.761c5.123-0.567,9.108-4.906,9.108-10.18V34.352C322.745,29.078,318.76,24.739,313.637,24.172z"/>
		
			<rect x="313.637" y="151.295" style="fill:#808080;stroke:#263238;stroke-linecap:round;stroke-linejoin:round;stroke-miterlimit:10;" width="9.108" height="51.396"/>
		<g>
			<g>
				<path style="fill:#B2B2B2;stroke:#263238;stroke-linecap:round;stroke-linejoin:round;stroke-miterlimit:10;" d="
					M322.745,66.454V34.352c0-5.659-4.588-10.247-10.247-10.247H58.771c-5.659,0-10.247,4.588-10.247,10.247v32.102H322.745z"/>
			</g>
			
				<rect x="63.566" y="40.701" style="fill:#FFFFFF;stroke:#263238;stroke-linecap:round;stroke-linejoin:round;stroke-miterlimit:10;" width="116.669" height="7.757"/>
		</g>
		<g>
			
				<rect x="48.524" y="52.634" style="fill:#263238;stroke:#263238;stroke-linecap:round;stroke-linejoin:round;stroke-miterlimit:10;" width="274.221" height="13.821"/>
			<g>
				
					<line style="fill:none;stroke:#FFFFFF;stroke-linecap:round;stroke-linejoin:round;stroke-miterlimit:10;" x1="54.878" y1="56.215" x2="62.014" y2="56.215"/>
				
					<line style="fill:none;stroke:#FFFFFF;stroke-linecap:round;stroke-linejoin:round;stroke-miterlimit:10;" x1="54.878" y1="59.318" x2="62.014" y2="59.318"/>
				
					<line style="fill:none;stroke:#FFFFFF;stroke-linecap:round;stroke-linejoin:round;stroke-miterlimit:10;" x1="54.878" y1="62.421" x2="62.014" y2="62.421"/>
			</g>
			
				<line style="fill:none;stroke:#FFFFFF;stroke-linecap:round;stroke-linejoin:round;stroke-miterlimit:10;" x1="91.773" y1="56.088" x2="91.773" y2="64.148"/>
			
				<line style="fill:none;stroke:#FFFFFF;stroke-linecap:round;stroke-linejoin:round;stroke-miterlimit:10;" x1="133.799" y1="56.088" x2="133.799" y2="64.148"/>
			
				<line style="fill:none;stroke:#FFFFFF;stroke-linecap:round;stroke-linejoin:round;stroke-miterlimit:10;" x1="175.826" y1="56.088" x2="175.826" y2="64.148"/>
			
				<line style="fill:none;stroke:#FFFFFF;stroke-linecap:round;stroke-linejoin:round;stroke-miterlimit:10;" x1="217.852" y1="56.088" x2="217.852" y2="64.148"/>
			
				<line style="fill:none;stroke:#FFFFFF;stroke-linecap:round;stroke-linejoin:round;stroke-miterlimit:10;" x1="259.878" y1="56.088" x2="259.878" y2="64.148"/>
		</g>
		<g>
			<path style="fill:#263238;stroke:#263238;stroke-linecap:round;stroke-linejoin:round;stroke-miterlimit:10;" d="M322.745,36.048
				v-1.696c0-5.659-4.588-10.247-10.247-10.247H58.771c-5.659,0-10.247,4.588-10.247,10.247v1.696H322.745z"/>
			
				<circle style="fill:#FFFFFF;stroke:#263238;stroke-linecap:round;stroke-linejoin:round;stroke-miterlimit:10;" cx="283.526" cy="30.11" r="3.061"/>
			
				<circle style="fill:#FFFFFF;stroke:#263238;stroke-linecap:round;stroke-linejoin:round;stroke-miterlimit:10;" cx="293.178" cy="30.11" r="3.061"/>
			<path style="fill:#FFFFFF;stroke:#263238;stroke-linecap:round;stroke-linejoin:round;stroke-miterlimit:10;" d="M305.891,30.11
				c0-1.69-1.37-3.061-3.06-3.061c-1.69,0-3.061,1.37-3.061,3.061s1.37,3.061,3.061,3.061
				C304.521,33.171,305.891,31.801,305.891,30.11z"/>
		</g>
		<g>
			<path style="fill:#B2B2B2;stroke:#263238;stroke-linecap:round;stroke-linejoin:round;stroke-miterlimit:10;" d="M48.524,332.157
				v9.596c0,5.659,4.588,10.247,10.247,10.247h253.728c5.659,0,10.247-4.588,10.247-10.247v-9.596H48.524z"/>
		</g>
		<g>
			
				<rect x="98.105" y="113.083" style="fill:#92E3A9;stroke:#263238;stroke-linecap:round;stroke-linejoin:round;stroke-miterlimit:10;" width="151.986" height="85.204"/>
			<polygon style="fill:#FFFFFF;stroke:#263238;stroke-linecap:round;stroke-linejoin:round;stroke-miterlimit:10;" points="
				250.092,160.866 216.125,138.99 181.583,173.532 157.403,145.322 99.71,197.322 98.105,198.287 250.092,198.287 			"/>
			
				<circle style="fill:#FFFFFF;stroke:#263238;stroke-linecap:round;stroke-linejoin:round;stroke-miterlimit:10;" cx="121.709" cy="132.657" r="12.09"/>
		</g>
		<line style="fill:none;stroke:#263238;stroke-miterlimit:10;" x1="98.681" y1="204.044" x2="249.516" y2="204.044"/>
		<line style="fill:none;stroke:#263238;stroke-miterlimit:10;" x1="98.681" y1="210.953" x2="189.067" y2="210.953"/>
		<g>
			<g>
				<line style="fill:none;stroke:#263238;stroke-miterlimit:10;" x1="230.711" y1="223.882" x2="250.091" y2="223.882"/>
				<line style="fill:none;stroke:#263238;stroke-miterlimit:10;" x1="207.645" y1="223.882" x2="228.472" y2="223.882"/>
				<line style="fill:none;stroke:#263238;stroke-miterlimit:10;" x1="199.359" y1="223.882" x2="205.406" y2="223.882"/>
				<line style="fill:none;stroke:#263238;stroke-miterlimit:10;" x1="170.918" y1="223.882" x2="197.791" y2="223.882"/>
				<line style="fill:none;stroke:#263238;stroke-miterlimit:10;" x1="135.983" y1="223.882" x2="168.007" y2="223.882"/>
				<line style="fill:none;stroke:#263238;stroke-miterlimit:10;" x1="110.454" y1="223.882" x2="132.624" y2="223.882"/>
				<line style="fill:none;stroke:#263238;stroke-miterlimit:10;" x1="98.323" y1="223.882" x2="107.542" y2="223.882"/>
			</g>
			<g>
				<line style="fill:none;stroke:#263238;stroke-miterlimit:10;" x1="117.703" y1="231.891" x2="98.323" y2="231.891"/>
				<line style="fill:none;stroke:#263238;stroke-miterlimit:10;" x1="140.769" y1="231.891" x2="119.943" y2="231.891"/>
				<line style="fill:none;stroke:#263238;stroke-miterlimit:10;" x1="149.055" y1="231.891" x2="143.009" y2="231.891"/>
				<line style="fill:none;stroke:#263238;stroke-miterlimit:10;" x1="177.496" y1="231.891" x2="150.623" y2="231.891"/>
				<line style="fill:none;stroke:#263238;stroke-miterlimit:10;" x1="212.431" y1="231.891" x2="180.407" y2="231.891"/>
				<line style="fill:none;stroke:#263238;stroke-miterlimit:10;" x1="237.961" y1="231.891" x2="215.79" y2="231.891"/>
				<line style="fill:none;stroke:#263238;stroke-miterlimit:10;" x1="250.091" y1="231.891" x2="240.872" y2="231.891"/>
			</g>
			<g>
				<line style="fill:none;stroke:#263238;stroke-miterlimit:10;" x1="230.711" y1="239.551" x2="250.091" y2="239.551"/>
				<line style="fill:none;stroke:#263238;stroke-miterlimit:10;" x1="207.645" y1="239.551" x2="228.472" y2="239.551"/>
				<line style="fill:none;stroke:#263238;stroke-miterlimit:10;" x1="199.359" y1="239.551" x2="205.406" y2="239.551"/>
				<line style="fill:none;stroke:#263238;stroke-miterlimit:10;" x1="170.918" y1="239.551" x2="197.791" y2="239.551"/>
				<line style="fill:none;stroke:#263238;stroke-miterlimit:10;" x1="135.983" y1="239.551" x2="168.007" y2="239.551"/>
				<line style="fill:none;stroke:#263238;stroke-miterlimit:10;" x1="110.454" y1="239.551" x2="132.624" y2="239.551"/>
				<line style="fill:none;stroke:#263238;stroke-miterlimit:10;" x1="98.323" y1="239.551" x2="107.542" y2="239.551"/>
			</g>
			<g>
				<line style="fill:none;stroke:#263238;stroke-miterlimit:10;" x1="117.703" y1="247.559" x2="98.323" y2="247.559"/>
				<line style="fill:none;stroke:#263238;stroke-miterlimit:10;" x1="140.769" y1="247.559" x2="119.943" y2="247.559"/>
				<line style="fill:none;stroke:#263238;stroke-miterlimit:10;" x1="149.055" y1="247.559" x2="143.009" y2="247.559"/>
				<line style="fill:none;stroke:#263238;stroke-miterlimit:10;" x1="177.496" y1="247.559" x2="150.623" y2="247.559"/>
				<line style="fill:none;stroke:#263238;stroke-miterlimit:10;" x1="212.431" y1="247.559" x2="180.407" y2="247.559"/>
				<line style="fill:none;stroke:#263238;stroke-miterlimit:10;" x1="237.961" y1="247.559" x2="215.79" y2="247.559"/>
				<line style="fill:none;stroke:#263238;stroke-miterlimit:10;" x1="250.091" y1="247.559" x2="240.872" y2="247.559"/>
			</g>
			<g>
				<line style="fill:none;stroke:#263238;stroke-miterlimit:10;" x1="230.711" y1="255.219" x2="250.091" y2="255.219"/>
				<line style="fill:none;stroke:#263238;stroke-miterlimit:10;" x1="207.645" y1="255.219" x2="228.472" y2="255.219"/>
				<line style="fill:none;stroke:#263238;stroke-miterlimit:10;" x1="199.359" y1="255.219" x2="205.406" y2="255.219"/>
				<line style="fill:none;stroke:#263238;stroke-miterlimit:10;" x1="170.918" y1="255.219" x2="197.791" y2="255.219"/>
				<line style="fill:none;stroke:#263238;stroke-miterlimit:10;" x1="135.983" y1="255.219" x2="168.007" y2="255.219"/>
				<line style="fill:none;stroke:#263238;stroke-miterlimit:10;" x1="110.454" y1="255.219" x2="132.624" y2="255.219"/>
				<line style="fill:none;stroke:#263238;stroke-miterlimit:10;" x1="98.323" y1="255.219" x2="107.542" y2="255.219"/>
			</g>
			<g>
				<line style="fill:none;stroke:#263238;stroke-miterlimit:10;" x1="117.703" y1="263.228" x2="98.323" y2="263.228"/>
				<line style="fill:none;stroke:#263238;stroke-miterlimit:10;" x1="140.769" y1="263.228" x2="119.943" y2="263.228"/>
				<line style="fill:none;stroke:#263238;stroke-miterlimit:10;" x1="149.055" y1="263.228" x2="143.009" y2="263.228"/>
				<line style="fill:none;stroke:#263238;stroke-miterlimit:10;" x1="177.496" y1="263.228" x2="150.623" y2="263.228"/>
				<line style="fill:none;stroke:#263238;stroke-miterlimit:10;" x1="212.431" y1="263.228" x2="180.407" y2="263.228"/>
				<line style="fill:none;stroke:#263238;stroke-miterlimit:10;" x1="237.961" y1="263.228" x2="215.79" y2="263.228"/>
				<line style="fill:none;stroke:#263238;stroke-miterlimit:10;" x1="250.091" y1="263.228" x2="240.872" y2="263.228"/>
			</g>
			<g>
				<line style="fill:none;stroke:#263238;stroke-miterlimit:10;" x1="230.711" y1="270.888" x2="250.091" y2="270.888"/>
				<line style="fill:none;stroke:#263238;stroke-miterlimit:10;" x1="207.645" y1="270.888" x2="228.472" y2="270.888"/>
				<line style="fill:none;stroke:#263238;stroke-miterlimit:10;" x1="199.359" y1="270.888" x2="205.406" y2="270.888"/>
				<line style="fill:none;stroke:#263238;stroke-miterlimit:10;" x1="170.918" y1="270.888" x2="197.791" y2="270.888"/>
				<line style="fill:none;stroke:#263238;stroke-miterlimit:10;" x1="135.983" y1="270.888" x2="168.007" y2="270.888"/>
				<line style="fill:none;stroke:#263238;stroke-miterlimit:10;" x1="110.454" y1="270.888" x2="132.624" y2="270.888"/>
				<line style="fill:none;stroke:#263238;stroke-miterlimit:10;" x1="98.323" y1="270.888" x2="107.542" y2="270.888"/>
			</g>
			<g>
				<line style="fill:none;stroke:#263238;stroke-miterlimit:10;" x1="117.703" y1="278.896" x2="98.323" y2="278.896"/>
				<line style="fill:none;stroke:#263238;stroke-miterlimit:10;" x1="140.769" y1="278.896" x2="119.943" y2="278.896"/>
				<line style="fill:none;stroke:#263238;stroke-miterlimit:10;" x1="149.055" y1="278.896" x2="143.009" y2="278.896"/>
				<line style="fill:none;stroke:#263238;stroke-miterlimit:10;" x1="177.496" y1="278.896" x2="150.623" y2="278.896"/>
				<line style="fill:none;stroke:#263238;stroke-miterlimit:10;" x1="212.431" y1="278.896" x2="180.407" y2="278.896"/>
				<line style="fill:none;stroke:#263238;stroke-miterlimit:10;" x1="237.961" y1="278.896" x2="215.79" y2="278.896"/>
				<line style="fill:none;stroke:#263238;stroke-miterlimit:10;" x1="250.091" y1="278.896" x2="240.872" y2="278.896"/>
			</g>
			<g>
				<line style="fill:none;stroke:#263238;stroke-miterlimit:10;" x1="230.711" y1="286.557" x2="250.091" y2="286.557"/>
				<line style="fill:none;stroke:#263238;stroke-miterlimit:10;" x1="207.645" y1="286.557" x2="228.472" y2="286.557"/>
				<line style="fill:none;stroke:#263238;stroke-miterlimit:10;" x1="199.359" y1="286.557" x2="205.406" y2="286.557"/>
				<line style="fill:none;stroke:#263238;stroke-miterlimit:10;" x1="170.918" y1="286.557" x2="197.791" y2="286.557"/>
				<line style="fill:none;stroke:#263238;stroke-miterlimit:10;" x1="135.983" y1="286.557" x2="168.007" y2="286.557"/>
				<line style="fill:none;stroke:#263238;stroke-miterlimit:10;" x1="110.454" y1="286.557" x2="132.624" y2="286.557"/>
				<line style="fill:none;stroke:#263238;stroke-miterlimit:10;" x1="98.323" y1="286.557" x2="107.542" y2="286.557"/>
			</g>
			<g>
				<line style="fill:none;stroke:#263238;stroke-miterlimit:10;" x1="117.703" y1="294.565" x2="98.323" y2="294.565"/>
				<line style="fill:none;stroke:#263238;stroke-miterlimit:10;" x1="140.769" y1="294.565" x2="119.943" y2="294.565"/>
				<line style="fill:none;stroke:#263238;stroke-miterlimit:10;" x1="149.055" y1="294.565" x2="143.009" y2="294.565"/>
				<line style="fill:none;stroke:#263238;stroke-miterlimit:10;" x1="177.496" y1="294.565" x2="150.623" y2="294.565"/>
				<line style="fill:none;stroke:#263238;stroke-miterlimit:10;" x1="212.431" y1="294.565" x2="180.407" y2="294.565"/>
				<line style="fill:none;stroke:#263238;stroke-miterlimit:10;" x1="237.961" y1="294.565" x2="215.79" y2="294.565"/>
				<line style="fill:none;stroke:#263238;stroke-miterlimit:10;" x1="250.091" y1="294.565" x2="240.872" y2="294.565"/>
			</g>
			<g>
				<line style="fill:none;stroke:#263238;stroke-miterlimit:10;" x1="230.711" y1="302.225" x2="250.091" y2="302.225"/>
				<line style="fill:none;stroke:#263238;stroke-miterlimit:10;" x1="207.645" y1="302.225" x2="228.472" y2="302.225"/>
				<line style="fill:none;stroke:#263238;stroke-miterlimit:10;" x1="199.359" y1="302.225" x2="205.406" y2="302.225"/>
				<line style="fill:none;stroke:#263238;stroke-miterlimit:10;" x1="170.918" y1="302.225" x2="197.791" y2="302.225"/>
				<line style="fill:none;stroke:#263238;stroke-miterlimit:10;" x1="135.983" y1="302.225" x2="168.007" y2="302.225"/>
				<line style="fill:none;stroke:#263238;stroke-miterlimit:10;" x1="110.454" y1="302.225" x2="132.624" y2="302.225"/>
				<line style="fill:none;stroke:#263238;stroke-miterlimit:10;" x1="98.323" y1="302.225" x2="107.542" y2="302.225"/>
			</g>
			<g>
				<line style="fill:none;stroke:#263238;stroke-miterlimit:10;" x1="117.703" y1="310.234" x2="98.323" y2="310.234"/>
				<line style="fill:none;stroke:#263238;stroke-miterlimit:10;" x1="140.769" y1="310.234" x2="119.943" y2="310.234"/>
				<line style="fill:none;stroke:#263238;stroke-miterlimit:10;" x1="149.055" y1="310.234" x2="143.009" y2="310.234"/>
				<line style="fill:none;stroke:#263238;stroke-miterlimit:10;" x1="177.496" y1="310.234" x2="150.623" y2="310.234"/>
				<line style="fill:none;stroke:#263238;stroke-miterlimit:10;" x1="212.431" y1="310.234" x2="180.407" y2="310.234"/>
				<line style="fill:none;stroke:#263238;stroke-miterlimit:10;" x1="237.961" y1="310.234" x2="215.79" y2="310.234"/>
				<line style="fill:none;stroke:#263238;stroke-miterlimit:10;" x1="250.091" y1="310.234" x2="240.872" y2="310.234"/>
			</g>
			<g>
				<line style="fill:none;stroke:#263238;stroke-miterlimit:10;" x1="230.711" y1="317.894" x2="250.091" y2="317.894"/>
				<line style="fill:none;stroke:#263238;stroke-miterlimit:10;" x1="207.645" y1="317.894" x2="228.472" y2="317.894"/>
				<line style="fill:none;stroke:#263238;stroke-miterlimit:10;" x1="199.359" y1="317.894" x2="205.406" y2="317.894"/>
				<line style="fill:none;stroke:#263238;stroke-miterlimit:10;" x1="170.918" y1="317.894" x2="197.791" y2="317.894"/>
				<line style="fill:none;stroke:#263238;stroke-miterlimit:10;" x1="135.983" y1="317.894" x2="168.007" y2="317.894"/>
				<line style="fill:none;stroke:#263238;stroke-miterlimit:10;" x1="110.454" y1="317.894" x2="132.624" y2="317.894"/>
				<line style="fill:none;stroke:#263238;stroke-miterlimit:10;" x1="98.323" y1="317.894" x2="107.542" y2="317.894"/>
			</g>
			<g>
				<line style="fill:none;stroke:#263238;stroke-miterlimit:10;" x1="117.703" y1="325.902" x2="98.323" y2="325.902"/>
				<line style="fill:none;stroke:#263238;stroke-miterlimit:10;" x1="140.769" y1="325.902" x2="119.943" y2="325.902"/>
				<line style="fill:none;stroke:#263238;stroke-miterlimit:10;" x1="149.055" y1="325.902" x2="143.009" y2="325.902"/>
				<line style="fill:none;stroke:#263238;stroke-miterlimit:10;" x1="177.496" y1="325.902" x2="150.623" y2="325.902"/>
				<line style="fill:none;stroke:#263238;stroke-miterlimit:10;" x1="212.431" y1="325.902" x2="180.407" y2="325.902"/>
				<line style="fill:none;stroke:#263238;stroke-miterlimit:10;" x1="237.961" y1="325.902" x2="215.79" y2="325.902"/>
				<line style="fill:none;stroke:#263238;stroke-miterlimit:10;" x1="250.091" y1="325.902" x2="240.872" y2="325.902"/>
			</g>
		</g>
		<g>
			<path style="fill:#263238;" d="M103.67,101.971l-1.06,5.536h-2.827l5.261-27.482h4.436l5.261,27.482h-3.063l-1.06-5.536H103.67z
				 M104.063,99.34h6.125l-3.102-15.862L104.063,99.34z"/>
			<path style="fill:#263238;" d="M123.263,80.024c4.318,0,6.124,2.198,6.124,6.282v2.238c0,3.023-1.06,4.908-3.415,5.653
				c2.513,0.746,3.455,2.788,3.455,5.732v4.279c0,1.217,0.039,2.355,0.55,3.298h-3.102c-0.354-0.785-0.51-1.492-0.51-3.337v-4.318
				c0-3.102-1.453-4.083-4.005-4.083h-2.159v11.739h-3.063V80.024H123.263z M122.477,92.98c2.435,0,3.887-0.785,3.887-3.769V86.58
				c0-2.473-0.903-3.769-3.18-3.769h-2.984V92.98H122.477z"/>
			<path style="fill:#263238;" d="M136.574,107.506V82.811h-5.064v-2.787h13.152v2.787h-5.064v24.695H136.574z"/>
			<path style="fill:#263238;" d="M149.807,80.024v27.482h-3.063V80.024H149.807z"/>
			<path style="fill:#263238;" d="M165.079,86.659v2.474h-2.905v-2.63c0-2.474-0.981-3.965-3.22-3.965
				c-2.198,0-3.219,1.492-3.219,3.965v14.526c0,2.474,1.021,3.965,3.219,3.965c2.238,0,3.22-1.492,3.22-3.965v-3.573h2.905v3.416
				c0,4.162-1.963,6.91-6.203,6.91c-4.201,0-6.164-2.749-6.164-6.91V86.659c0-4.162,1.963-6.91,6.164-6.91
				C163.116,79.749,165.079,82.497,165.079,86.659z"/>
			<path style="fill:#263238;" d="M167.868,107.506V80.024h3.063v24.695h7.852v2.787H167.868z"/>
			<path style="fill:#263238;" d="M190.876,92.195v2.748h-6.713v9.776h8.245v2.787H181.1V80.024h11.307v2.787h-8.245v9.384H190.876z
				"/>
		</g>
	</g>
</g>
<g id="Character">
	<g>
		<path style="fill:#92E3A9;stroke:#263238;stroke-linecap:round;stroke-linejoin:round;stroke-miterlimit:10;" d="M312.673,326.131
			c0,0-23,5.5-31,17s-27,47.5-32,54.5s-22,17-25,31.5s0.5,24.5,16,32.5s36-8.5,48-13l0.5,18h125l4.5-21.5c0,0,27.5,2.5,35,0
			s17.5,3.5,18.5-2.5s-3.5-18.5-9.5-29s-6-7.5-12-22s-10.5-28-15.5-40.5s-15.435-23.118-25.11-26.343
			c-9.676-3.225-31.89-1.157-40.39-2.157S312.673,326.131,312.673,326.131z"/>
		<g>
			<path style="fill:none;stroke:#263238;stroke-linecap:round;stroke-linejoin:round;stroke-miterlimit:10;" d="M416.006,431.131
				c0,0,8.667-13.667,24.333-18"/>
			<path style="fill:none;stroke:#263238;stroke-linecap:round;stroke-linejoin:round;stroke-miterlimit:10;" d="M439.907,400.948
				c1.332-0.679,2.7-1.29,4.099-1.818"/>
			<path style="fill:none;stroke:#263238;stroke-linecap:round;stroke-linejoin:round;stroke-miterlimit:10;" d="M413.673,425.797
				c0,0,8.908-14.066,22.203-22.538"/>
			<path style="fill:none;stroke:#263238;stroke-linecap:round;stroke-linejoin:round;stroke-miterlimit:10;" d="M419.669,375.663
				c-4.99,12.565-12.337,34.053-10.996,48.801"/>
			<path style="fill:none;stroke:#263238;stroke-linecap:round;stroke-linejoin:round;stroke-miterlimit:10;" d="M424.006,365.464
				c0,0-0.911,1.946-2.292,5.21"/>
			<path style="fill:none;stroke:#263238;stroke-linecap:round;stroke-linejoin:round;stroke-miterlimit:10;" d="M250.355,416.072
				c5.281,1.418,11.698,4.511,17.651,11.059"/>
			<path style="fill:none;stroke:#263238;stroke-linecap:round;stroke-linejoin:round;stroke-miterlimit:10;" d="M239.006,415.131
				c0,0,2.701-0.46,6.813,0.052"/>
			<path style="fill:none;stroke:#263238;stroke-linecap:round;stroke-linejoin:round;stroke-miterlimit:10;" d="M257.612,406.883
				c5.871,4.178,13.354,11.079,16.394,20.581"/>
			<path style="fill:none;stroke:#263238;stroke-linecap:round;stroke-linejoin:round;stroke-miterlimit:10;" d="M249.673,402.131
				c0,0,2.07,0.944,5.035,2.808"/>
		</g>
		<g>
			<path style="fill:#FFFFFF;stroke:#263238;stroke-linecap:round;stroke-linejoin:round;stroke-miterlimit:10;" d="
				M334.091,351.306c0,0,6.45,10.751,22.577,10.392c16.126-0.358,22.935-17.918,22.935-26.877c0-8.959-5.734-15.051-20.785-11.467
				C343.766,326.938,326.923,327.296,334.091,351.306z"/>
			<path style="fill:#FFFFFF;stroke:#263238;stroke-linecap:round;stroke-linejoin:round;stroke-miterlimit:10;" d="
				M336.599,330.163c0,0-4.3,14.693-2.508,21.143c1.792,6.45,5.375,12.184,5.375,12.184s12.184-11.467,13.976-12.901
				c1.792-1.434,12.901,11.109,14.334,12.543c1.433,1.434,9.676-3.584,12.184-15.409c2.508-11.826,0.717-25.802-1.792-29.385
				c-2.509-3.584-5.375-3.942-5.375-3.942S345.917,311.528,336.599,330.163z"/>
			<g>
				<path style="fill:#FFFFFF;stroke:#263238;stroke-linecap:round;stroke-linejoin:round;stroke-miterlimit:10;" d="
					M339.108,331.596c0,0,10.392,17.56,13.618,17.918c3.225,0.358,17.56-11.467,21.501-21.143
					c3.942-9.676,0.717-20.068,0.717-20.068s-12.184,15.41-20.427,20.427C346.275,333.746,339.108,331.596,339.108,331.596z"/>
				<path style="fill:#263238;stroke:#263238;stroke-linecap:round;stroke-linejoin:round;stroke-miterlimit:10;" d="
					M354.517,328.729c-6.94,4.224-13.099,3.37-14.878,2.993l-0.352,0.174c0.68,1.135,3.261,5.401,6.059,9.458
					c1.884,0.486,4.131,0.297,6.775-1.098c10.335-5.454,18.373-23.828,18.373-23.828l-4.595,2.277
					C362.215,322.605,358.013,326.602,354.517,328.729z"/>
			</g>
			<g>
				<path style="fill:#263238;stroke:#263238;stroke-linecap:round;stroke-linejoin:round;stroke-miterlimit:10;" d="
					M303.272,236.273c0,0-23.066,36.785-18.766,57.928c4.3,21.143,24.141,46.355,18.049,53.163c-6.092,6.809-9.317,4.3-6.451,8.242
					c2.867,3.942,20.427,8.242,33.327,3.942c12.901-4.3,14.334-22.577,7.525-32.252c-6.809-9.676-19.351-46.587-13.976-55.187
					c5.375-8.601,26.877-3.584,34.402,0c7.525,3.584,17.201,24.727,16.126,34.402c-1.075,9.676,3.225,31.894,17.918,32.252
					c14.693,0.358,18.635-13.976,18.635-13.976s-9.676,2.15-9.676-3.225s7.884-12.184,4.3-27.235
					c-3.584-15.051-11.826-17.918-12.901-33.686c-1.075-15.768-7.167-31.177-19.351-40.136
					C360.251,211.546,327.999,198.645,303.272,236.273z"/>
				<g>
					<path style="fill:none;stroke:#6B6B6B;stroke-linecap:round;stroke-linejoin:round;stroke-miterlimit:10;" d="M305.328,286.271
						c-1.043,3.646-1.435,8.461-0.234,14.685c3.539,18.336,20.266,36.673,17.049,47.932c-3.217,11.259-13.189,10.294-18.98,5.469"/>
					<path style="fill:none;stroke:#6B6B6B;stroke-linecap:round;stroke-linejoin:round;stroke-miterlimit:10;" d="M311.849,276.508
						c0,0-2.448,1.454-4.547,5.07"/>
					<path style="fill:none;stroke:#6B6B6B;stroke-linecap:round;stroke-linejoin:round;stroke-miterlimit:10;" d="M316.313,334.76
						c1.99,3.025,3.257,6.149,3.257,9.624"/>
					<path style="fill:none;stroke:#6B6B6B;stroke-linecap:round;stroke-linejoin:round;stroke-miterlimit:10;" d="M322.086,241.55
						c-7.326,5.974-16.137,14.381-22.461,24.342c-12.868,20.266-11.581,25.413-4.504,41.498
						c4.53,10.297,13.279,17.297,18.989,24.378"/>
					<path style="fill:none;stroke:#6B6B6B;stroke-linecap:round;stroke-linejoin:round;stroke-miterlimit:10;" d="M335.654,231.793
						c0,0-3.654,2.183-8.866,6.084"/>
					<path style="fill:none;stroke:#6B6B6B;stroke-linecap:round;stroke-linejoin:round;stroke-miterlimit:10;" d="M340.158,220.212
						c0,0-6.112,19.301-5.147,23.161"/>
					<path style="fill:none;stroke:#6B6B6B;stroke-linecap:round;stroke-linejoin:round;stroke-miterlimit:10;" d="M391.446,331.106
						c1.428,1.114,3.151,1.988,5.007,2.662"/>
					<path style="fill:none;stroke:#6B6B6B;stroke-linecap:round;stroke-linejoin:round;stroke-miterlimit:10;" d="M378.932,265.464
						c4.274,2.981,9.226,7.715,13.983,15.226c12.224,19.301,2.895,23.805-2.895,34.421c-3.204,5.874-3.059,10.172-1.092,13.276"/>
					<path style="fill:none;stroke:#6B6B6B;stroke-linecap:round;stroke-linejoin:round;stroke-miterlimit:10;" d="M367.18,260.423
						c0,0,2.836,0.203,7.085,2.278"/>
					<path style="fill:none;stroke:#6B6B6B;stroke-linecap:round;stroke-linejoin:round;stroke-miterlimit:10;" d="M385.208,256.97
						c1.729,2.036,3,3.944,3.847,5.383"/>
					<path style="fill:none;stroke:#6B6B6B;stroke-linecap:round;stroke-linejoin:round;stroke-miterlimit:10;" d="M339.836,236.94
						c0,0,1.93,7.077,19.301,7.399c10.796,0.2,18.486,4.997,23.533,9.913"/>
				</g>
			</g>
			<g>
				<path style="fill:#FFFFFF;stroke:#263238;stroke-linecap:round;stroke-linejoin:round;stroke-miterlimit:10;" d="
					M336.241,245.232c0,0-19.71,17.56-23.652,28.669c-3.942,11.109,8.959,37.269,10.393,41.212c1.529,4.2,5.72,8.111,8.602,11.391
					c4.674,5.32,11.686,12.37,19.453,11.318c9.691-1.313,19.636-16.315,23.907-24.144c4.3-7.884,5.017-19.71,5.017-19.71
					s5.017,0.358,5.017-6.451s0.717-17.201-2.867-17.201c-3.584,0-6.45,2.509-6.45,2.509s-12.184-4.3-24.01-13.618
					C339.824,249.891,336.241,245.232,336.241,245.232z"/>
				<path style="fill:none;stroke:#263238;stroke-linecap:round;stroke-linejoin:round;stroke-miterlimit:10;" d="M337.316,308.661
					c0,0,1.075,5.017,6.45,3.584c5.375-1.434,6.092-3.225,6.092-3.225"/>
				<path style="fill:none;stroke:#263238;stroke-linecap:round;stroke-linejoin:round;stroke-miterlimit:10;" d="M336.957,316.187
					c0,0,11.826,4.3,18.635-2.867"/>
				<path style="fill:none;stroke:#263238;stroke-width:2;stroke-linecap:round;stroke-linejoin:round;stroke-miterlimit:10;" d="
					M346.992,279.634c0,0,4.659-5.375,15.409-2.15"/>
				<path style="fill:none;stroke:#263238;stroke-width:2;stroke-linecap:round;stroke-linejoin:round;stroke-miterlimit:10;" d="
					M331.224,283.576c0,0-7.167-2.509-13.259-2.509"/>
				<g>
					<path style="fill:none;stroke:#263238;stroke-linecap:round;stroke-linejoin:round;stroke-miterlimit:10;" d="M338.391,287.876
						c0,0-7.526-3.584-16.843-3.942c-9.317-0.358-10.751,1.075-10.392,2.509c0.358,1.433,0.717,16.484,8.959,17.918
						c8.242,1.433,16.126,0,17.56-3.942C339.108,296.477,338.391,287.876,338.391,287.876z"/>
					<path style="fill:none;stroke:#263238;stroke-linecap:round;stroke-linejoin:round;stroke-miterlimit:10;" d="M343.405,287.203
						c0,0,6.874-4.714,16.022-6.521c9.147-1.807,10.787-0.615,10.656,0.857c-0.13,1.472,1.863,16.395-6.054,19.096
						c-7.918,2.702-15.929,2.516-17.96-1.154C344.038,295.811,343.405,287.203,343.405,287.203z"/>
					<path style="fill:none;stroke:#263238;stroke-linecap:round;stroke-linejoin:round;stroke-miterlimit:10;" d="M338.391,287.876
						c0,0,2.143-2.063,5.014-0.673"/>
				</g>
				<path style="fill:#263238;" d="M331.205,294.071c0.283,1.959-0.283,3.661-1.262,3.803c-0.979,0.141-2.002-1.332-2.285-3.291
					c-0.282-1.959,0.283-3.661,1.262-3.803C329.9,290.639,330.923,292.112,331.205,294.071z"/>
				<path style="fill:#263238;" d="M356.649,292.279c0.283,1.959-0.283,3.661-1.262,3.803c-0.979,0.141-2.002-1.332-2.285-3.291
					s0.283-3.661,1.262-3.803C355.344,288.847,356.366,290.32,356.649,292.279z"/>
				
					<line style="fill:none;stroke:#263238;stroke-linecap:round;stroke-linejoin:round;stroke-miterlimit:10;" x1="369.926" y1="279.993" x2="375.66" y2="272.825"/>
			</g>
		</g>
		<g>
			<path style="fill:#FFFFFF;stroke:#263238;stroke-linecap:round;stroke-linejoin:round;stroke-miterlimit:10;" d="
				M377.673,418.131c0,0-1-4-6-8s-17-7-17-3.5s12,14,15.5,19s7,16,14.5,21.5s45,17.5,61,18.5s26.5-9.5,26-20.5s-8.5-21-21.5-23
				s-19,4.5-26.5,6.5s-13.5,4-13.5,4s4-13.5,3-17.5s-7.799-6.527-7.799-6.527l-5.201-4.973c0,0-10.5-8.5-12-8.5s-7.5-7-15-7
				s-17,5.5-14,8.5s9.5,1,13,1s7,7.5,7,7.5s-4.5,3-3,5s2.5,3.5,2.5,3.5L377.673,418.131z"/>
			<path style="fill:none;stroke:#263238;stroke-linecap:round;stroke-linejoin:round;stroke-miterlimit:10;" d="M378.409,412.977
				c0,0,0.729,4.008,3.826,4.008c3.097,0,1.822-4.555,2.915-6.013c1.093-1.458,4.008-6.741,4.008-6.741"/>
			<path style="fill:none;stroke:#263238;stroke-linecap:round;stroke-linejoin:round;stroke-miterlimit:10;" d="M403.734,409.332
				c0,0-7.106,6.741-7.652,7.106s-2.186,4.19-3.462,6.195c-1.275,2.004-4.373,2.551-5.284,0c-0.911-2.551,0.364-6.559,1.458-8.381
				c1.093-1.822,4.555-7.288,4.555-7.288s2.368-3.462,5.648-3.462"/>
			<path style="fill:none;stroke:#263238;stroke-linecap:round;stroke-linejoin:round;stroke-miterlimit:10;" d="M399.908,413.341
				c0,0-3.826,5.284-3.826,7.288c0,2.004-1.275,7.106,0.364,7.834s3.826,0.729,4.919-1.64c1.093-2.368,2.368-5.101,2.368-5.101
				s2.551-0.182,3.644-2.004"/>
			<path style="fill:none;stroke:#263238;stroke-linecap:round;stroke-linejoin:round;stroke-miterlimit:10;" d="M403.734,421.722
				c0,0,0.547,1.64,2.733,2.733"/>
			<path style="fill:none;stroke:#263238;stroke-linecap:round;stroke-linejoin:round;stroke-miterlimit:10;" d="M386.972,394.939
				c0,0-2.004-0.364-2.915,2.004c-0.911,2.369-4.884,8.187-4.884,8.187"/>
			<path style="fill:none;stroke:#263238;stroke-linecap:round;stroke-linejoin:round;stroke-miterlimit:10;" d="M383.693,407.693
				c0,0,0.547,2.186,0.729,4.008"/>
			<path style="fill:none;stroke:#263238;stroke-linecap:round;stroke-linejoin:round;stroke-miterlimit:10;" d="M387.883,406.782
				c0,0,0.547,2.368,2.551,3.462"/>
			<path style="fill:none;stroke:#263238;stroke-linecap:round;stroke-linejoin:round;stroke-miterlimit:10;" d="M410.173,432.631
				c0,0-3.833,12.833-6.833,16.167"/>
		</g>
		<path style="fill:#263238;stroke:#263238;stroke-linecap:round;stroke-linejoin:round;stroke-miterlimit:10;" d="M272.626,388.337
			l28.341,77.496c0.724,1.981,2.609,3.298,4.718,3.298h74.279c3.497,0,5.923-3.484,4.712-6.764l-27.631-74.816
			c-1.423-3.854-5.107-6.404-9.215-6.379l-70.516,0.417C273.836,381.609,271.431,385.071,272.626,388.337z"/>
		<g>
			<path style="fill:#FFFFFF;stroke:#263238;stroke-linecap:round;stroke-linejoin:round;stroke-miterlimit:10;" d="
				M264.673,432.631l1.5-12c0,0,5-1.5,2.5-10s-4-9.5-1-9.5s9,1.5,10.5,6.5s2,14,2,14s35.5-5,38-5s5,2.5,1,4.5s-24,11-24,11
				s25.5-5.5,27-5.5s6.5,0,4,2.5s-9,5.5-9,5.5s11.5-2,11,1.5s-12.5,7-12.5,7s5.5,0,4,2.5s-23.5,10.5-28,12.5s-18,2-18,2s-8,5-19,7
				s-22.5,1.5-27.5-10s-1-27.5,9-32.5s17-3.5,21-0.5S264.673,432.631,264.673,432.631z"/>
			
				<line style="fill:none;stroke:#263238;stroke-linecap:round;stroke-linejoin:round;stroke-miterlimit:10;" x1="295.173" y1="432.131" x2="285.173" y2="435.131"/>
			
				<line style="fill:none;stroke:#263238;stroke-linecap:round;stroke-linejoin:round;stroke-miterlimit:10;" x1="317.173" y1="434.631" x2="288.173" y2="443.631"/>
			
				<line style="fill:none;stroke:#263238;stroke-linecap:round;stroke-linejoin:round;stroke-miterlimit:10;" x1="315.673" y1="443.131" x2="291.173" y2="451.631"/>
			<path style="fill:none;stroke:#263238;stroke-linecap:round;stroke-linejoin:round;stroke-miterlimit:10;" d="M264.673,432.631
				c0,0-2,4-8,0"/>
			
				<line style="fill:none;stroke:#263238;stroke-linecap:round;stroke-linejoin:round;stroke-miterlimit:10;" x1="273.673" y1="460.131" x2="262.173" y2="457.631"/>
			
				<line style="fill:none;stroke:#263238;stroke-linecap:round;stroke-linejoin:round;stroke-miterlimit:10;" x1="280.173" y1="421.631" x2="269.673" y2="423.631"/>
		</g>
	</g>
</g>
<g id="Mug">
	<g>
		<g>
			<path style="fill:none;stroke:#263238;stroke-linecap:round;stroke-miterlimit:10;" d="M167.514,400.778
				c-0.073,1.607,0.125,3.328,0.804,5.025c2.464,6.159,3.182,8.697,2.182,13.697"/>
			<path style="fill:none;stroke:#263238;stroke-linecap:round;stroke-miterlimit:10;" d="M169.89,392.91
				c0,0-1.057,1.707-1.765,4.212"/>
			<path style="fill:none;stroke:#263238;stroke-linecap:round;stroke-miterlimit:10;" d="M178.696,392.91
				c0,0-4.088,6.604-1.572,12.893c2.464,6.159,3.182,8.697,2.182,13.697"/>
			<path style="fill:none;stroke:#263238;stroke-linecap:round;stroke-miterlimit:10;" d="M188.544,415.868
				c-0.019,1.111-0.164,2.282-0.434,3.632"/>
			<path style="fill:none;stroke:#263238;stroke-linecap:round;stroke-miterlimit:10;" d="M187.501,392.91
				c0,0-4.088,6.604-1.572,12.893c0.899,2.248,1.566,4.013,2.001,5.592"/>
		</g>
		<path style="fill:#FFFFFF;stroke:#263238;stroke-linecap:round;stroke-linejoin:round;stroke-miterlimit:10;" d="M195.059,432.827
			c0,0,4.08-4.08,7.048-0.742c2.967,3.338,1.855,20.03-0.742,25.223c-2.596,5.193-8.551,0.27-8.551,0.27l0.019-3.608
			c0,0,2.659,2.462,5.627-0.505c2.967-2.967,2.163-14.703,1.05-16.558c-1.113-1.855-5.564,0.742-5.564,0.742L195.059,432.827z"/>
		<polygon style="fill:#FFFFFF;stroke:#263238;stroke-linecap:round;stroke-linejoin:round;stroke-miterlimit:10;" points="
			192.758,473.419 164.57,473.419 161.046,423.955 196.281,423.955 		"/>
	</g>
</g>
</svg>
