<?xml version="1.0" encoding="utf-8"?>
<!-- Generator: Adobe Illustrator 27.5.0, SVG Export Plug-In . SVG Version: 6.00 Build 0)  -->
<svg version="1.1" xmlns="http://www.w3.org/2000/svg" xmlns:xlink="http://www.w3.org/1999/xlink" x="0px" y="0px"
	 viewBox="0 0 500 500" style="enable-background:new 0 0 500 500;" xml:space="preserve">
<g id="Background_Complete">
	<g>
		<g>
			<rect x="299.619" y="43.556" style="fill:#EBEBEB;" width="163.827" height="294.304"/>
		</g>
		<g>
			<rect x="306.166" y="52.091" style="fill:#FAFAFA;" width="149.047" height="277.002"/>
		</g>
		<g>
			<polygon style="fill:#E0E0E0;" points="470.376,340.513 463.447,337.86 463.447,38.565 470.376,38.565 			"/>
		</g>
		<g>
			<path style="fill:#F5F5F5;" d="M342.705,231.019c12.903-11.993,25.805-23.986,38.708-35.978
				c4.905-4.559,11.316-9.47,17.624-7.223c3.035,1.081,5.318,3.671,8.291,4.91c5.943,2.476,12.731-1.098,17.301-5.633
				c4.569-4.535,8.176-10.208,13.711-13.495c5.535-3.288,14.137-2.87,16.873,2.957v39.158l-56.254,24.085L342.705,231.019z"/>
		</g>
		<g>
			<path style="fill:#E0E0E0;" d="M306.166,208.513c14.264-5.809,28.498-0.872,38.707,10.66c2.149,2.428,4.105,5.231,7.058,6.57
				c3.999,1.813,8.618,0.456,12.98-0.038c11.923-1.351,24.376,4.685,30.702,14.881l-47.623,23.424l-41.825-0.304V208.513z"/>
		</g>
		<g>
			<path style="fill:#EBEBEB;" d="M455.212,208.707c-9.395-4.537-17.665,0.952-26.332,6.759
				c-8.667,5.808-16.721,13.255-26.888,15.594c-6.793,1.563-14.072,0.696-20.639,3.035c-13.379,4.765-21.115,21.754-35.295,22.564
				c-7.699,0.44-14.604-4.227-21.475-7.728c-6.871-3.501-12.291-6.826-18.418-2.143v82.303h149.047V208.707z"/>
		</g>
		<g>
			<rect x="306.166" y="131.776" style="fill:#E0E0E0;" width="152.283" height="2.949"/>
		</g>
		<g>
			<rect x="306.166" y="197.741" style="fill:#E0E0E0;" width="152.283" height="2.949"/>
		</g>
		<g>
			<rect x="306.166" y="263.706" style="fill:#E0E0E0;" width="152.283" height="2.949"/>
		</g>
		<g>
			
				<rect x="278.841" y="231.334" transform="matrix(6.123234e-17 -1 1 6.123234e-17 145.5901 615.7881)" style="fill:#E0E0E0;" width="203.696" height="7.531"/>
		</g>
		<g>
			<rect x="334.866" y="52.091" style="fill:#E0E0E0;" width="3.411" height="81.16"/>
		</g>
		<g>
			<rect x="364.289" y="52.091" style="fill:#E0E0E0;" width="3.411" height="81.16"/>
		</g>
		<g>
			<rect x="393.712" y="52.091" style="fill:#E0E0E0;" width="3.411" height="81.16"/>
		</g>
		<g>
			<rect x="423.135" y="52.091" style="fill:#E0E0E0;" width="3.411" height="81.16"/>
		</g>
		<g>
			<rect x="292.69" y="38.565" style="fill:#E0E0E0;" width="6.929" height="301.117"/>
		</g>
		<g>
			<rect x="292.69" y="35.526" style="fill:#E0E0E0;" width="177.685" height="8.03"/>
		</g>
		<g>
			<rect x="287.774" y="341.503" style="fill:#E0E0E0;" width="187.292" height="7.482"/>
		</g>
		<g>
			<polygon style="fill:#EBEBEB;" points="463.447,337.86 475.066,341.503 287.774,341.503 299.619,337.86 			"/>
		</g>
	</g>
	<g>
		<g>
			<g>
				<g>
					<g>
						<path style="fill:#EBEBEB;" d="M89.26,68.174c-0.068-0.002-0.156-0.794-0.26-2.29c-0.033-0.749-0.102-1.672-0.307-2.75
							c-0.168-1.081-0.321-2.331-0.722-3.695c-0.605-2.764-1.857-6.033-3.837-9.505c-1.996-3.458-4.886-7.08-8.839-10.181
							c-3.942-3.072-8.925-5.715-14.709-6.859c-5.745-1.106-12.252-1.064-18.488,1.153c-3.137,1.012-6.175,2.58-8.979,4.581
							c-1.448,0.946-2.72,2.144-4.053,3.291c-1.207,1.279-2.477,2.527-3.526,3.985c-4.446,5.635-7.049,12.945-7.305,20.539
							c-0.115,7.6,2.129,15.031,6.296,20.877c0.978,1.508,2.185,2.816,3.329,4.153c1.276,1.211,2.489,2.47,3.889,3.485
							c2.704,2.136,5.663,3.849,8.748,5.012c6.122,2.518,12.62,2.875,18.412,2.049c5.833-0.862,10.939-3.261,15.025-6.138
							c4.099-2.905,7.16-6.383,9.322-9.74c2.145-3.372,3.555-6.576,4.293-9.307c0.467-1.342,0.681-2.584,0.901-3.655
							c0.257-1.066,0.37-1.984,0.44-2.731C89.066,68.959,89.191,68.172,89.26,68.174c0.068,0.002,0.076,0.793,0.027,2.309
							c-0.006,0.76-0.058,1.698-0.257,2.793c-0.162,1.099-0.321,2.377-0.739,3.764c-0.641,2.821-1.976,6.157-4.098,9.691
							c-2.139,3.518-5.23,7.19-9.437,10.285c-4.192,3.066-9.489,5.648-15.584,6.625c-6.052,0.94-12.872,0.627-19.338-1.97
							c-3.255-1.203-6.384-2.986-9.246-5.22c-1.48-1.064-2.769-2.38-4.116-3.654c-1.216-1.401-2.491-2.779-3.531-4.365
							c-4.417-6.151-6.814-14.011-6.686-22.035c0.264-8.018,3.039-15.75,7.75-21.677c1.115-1.532,2.455-2.847,3.737-4.187
							c1.408-1.207,2.759-2.458,4.288-3.449c2.967-2.092,6.178-3.721,9.487-4.764c6.584-2.281,13.41-2.262,19.409-1.03
							c6.04,1.27,11.205,4.107,15.244,7.372c4.052,3.295,6.962,7.112,8.928,10.73c1.949,3.633,3.121,7.029,3.624,9.879
							c0.35,1.406,0.447,2.69,0.556,3.796c0.146,1.103,0.152,2.042,0.121,2.802C89.374,67.385,89.328,68.175,89.26,68.174z"/>
					</g>
				</g>
			</g>
		</g>
		<g>
			<g>
				<g>
					<g>
						<path style="fill:#EBEBEB;" d="M82.055,45.672c0.079,0.111-0.57,0.676-1.824,1.609c-0.688,0.494-1.457,1.046-2.318,1.664
							c-0.459,0.314-0.94,0.67-1.475,1.005c-0.567,0.296-1.158,0.605-1.774,0.927c-4.819,2.785-12.455,5.629-21.174,5.332
							c-1.082-0.048-2.151-0.096-3.205-0.143c-1.041-0.163-2.067-0.323-3.076-0.481c-0.503-0.085-1.005-0.152-1.495-0.251
							c-0.483-0.129-0.962-0.256-1.436-0.382c-0.944-0.262-1.879-0.484-2.769-0.769c-3.534-1.229-6.586-2.662-8.984-4.139
							c-4.826-2.918-7.176-5.573-6.993-5.744c0.195-0.223,2.818,1.999,7.68,4.523c2.416,1.282,5.422,2.53,8.844,3.619
							c0.861,0.25,1.763,0.44,2.671,0.673c0.456,0.113,0.916,0.227,1.38,0.342c0.473,0.071,0.951,0.144,1.432,0.216
							c0.964,0.142,1.945,0.286,2.939,0.433c1.005,0.041,2.024,0.082,3.055,0.123c8.289,0.286,15.632-2.199,20.503-4.604
							c0.623-0.27,1.221-0.53,1.794-0.779c0.546-0.285,1.043-0.592,1.52-0.856c0.912-0.503,1.729-0.953,2.458-1.355
							C81.176,45.912,81.976,45.561,82.055,45.672z"/>
					</g>
				</g>
			</g>
		</g>
		<g>
			<g>
				<g>
					<g>
						<path style="fill:#EBEBEB;" d="M24.437,89.462c-0.08-0.111,0.57-0.676,1.824-1.609c0.688-0.494,1.457-1.046,2.318-1.663
							c0.459-0.314,0.94-0.67,1.475-1.005c0.567-0.296,1.158-0.605,1.774-0.927c4.819-2.785,12.455-5.629,21.174-5.332
							c1.082,0.048,2.151,0.096,3.205,0.143c1.041,0.163,2.067,0.323,3.076,0.481c0.503,0.085,1.005,0.152,1.495,0.251
							c0.483,0.129,0.962,0.256,1.436,0.382c0.944,0.262,1.879,0.484,2.769,0.77c3.534,1.229,6.586,2.662,8.983,4.139
							c4.827,2.918,7.176,5.573,6.993,5.744c-0.195,0.223-2.818-1.999-7.68-4.523c-2.415-1.282-5.422-2.53-8.843-3.619
							c-0.861-0.25-1.763-0.439-2.671-0.673c-0.456-0.113-0.916-0.227-1.38-0.342c-0.473-0.072-0.951-0.144-1.432-0.216
							c-0.965-0.142-1.945-0.286-2.939-0.432c-1.005-0.041-2.024-0.082-3.055-0.123c-8.29-0.286-15.632,2.199-20.503,4.604
							c-0.623,0.27-1.221,0.53-1.794,0.779c-0.546,0.286-1.043,0.592-1.52,0.856c-0.913,0.503-1.728,0.953-2.458,1.355
							C25.316,89.221,24.516,89.573,24.437,89.462z"/>
					</g>
				</g>
			</g>
		</g>
		<g>
			<g>
				<g>
					<g>
						<path style="fill:#EBEBEB;" d="M89.239,69.01c-0.013,0.547-16.146,0.598-36.03,0.116c-19.89-0.483-35.998-1.318-35.985-1.864
							c0.013-0.547,16.143-0.598,36.033-0.115C73.141,67.629,89.253,68.464,89.239,69.01z"/>
					</g>
				</g>
			</g>
		</g>
		<g>
			<g>
				<g>
					<g>
						<path style="fill:#EBEBEB;" d="M51.572,103.273c-0.547-0.013-0.598-16.141-0.116-36.018
							c0.483-19.884,1.317-35.987,1.864-35.973c0.546,0.013,0.598,16.137,0.115,36.021C52.953,87.18,52.118,103.286,51.572,103.273z
							"/>
					</g>
				</g>
			</g>
		</g>
		<g>
			<g>
				<g>
					<g>
						<path style="fill:#EBEBEB;" d="M51.573,103.219c-0.136,0.209-4.103-2.481-8.683-8.572c-2.264-3.042-4.64-6.956-6.437-11.687
							c-1.788-4.722-2.908-10.281-2.787-16.137c0.104-5.874,1.58-11.371,3.635-15.974c2.055-4.622,4.636-8.396,7.034-11.327
							c4.85-5.861,8.85-8.459,8.984-8.25c0.194,0.225-3.429,3.173-7.881,9.113c-2.202,2.97-4.578,6.708-6.463,11.189
							c-1.885,4.467-3.23,9.705-3.33,15.287c-0.115,5.586,0.895,10.901,2.521,15.472c1.633,4.58,3.804,8.439,5.865,11.504
							C48.201,99.976,51.773,103.001,51.573,103.219z"/>
					</g>
				</g>
			</g>
		</g>
		<g>
			<g>
				<g>
					<g>
						<path style="fill:#EBEBEB;" d="M54.127,31.292c0.136-0.209,4.104,2.481,8.683,8.571c2.264,3.042,4.64,6.956,6.437,11.687
							c1.788,4.722,2.908,10.281,2.787,16.137c-0.104,5.874-1.58,11.37-3.635,15.974c-2.055,4.622-4.635,8.396-7.034,11.327
							c-4.85,5.861-8.85,8.459-8.984,8.25c-0.194-0.225,3.429-3.173,7.881-9.113c2.202-2.969,4.578-6.708,6.462-11.189
							c1.885-4.467,3.231-9.705,3.33-15.287c0.115-5.586-0.895-10.901-2.521-15.472c-1.634-4.58-3.804-8.439-5.865-11.504
							C57.498,34.535,53.926,31.51,54.127,31.292z"/>
					</g>
				</g>
			</g>
		</g>
	</g>
</g>
<g id="Background_Simple" style="display:none;">
	<g style="display:inline;">
		<path style="fill:#F5F5F5;" d="M452.257,92.938l-1.912-3.151c-16.119-26.563-45.264-42.576-75.992-40.633
			c-3.95,0.25-7.883,0.785-11.763,1.615c-27.938,5.98-52.247,27.107-62.323,54.165c-5.926,15.913-7.582,34.234-18.827,46.865
			c-14.635,16.438-39.483,16.955-61.329,16.274c-21.846-0.681-46.71-0.1-61.274,16.403c-9.121,10.336-12.02,25.034-11.285,38.876
			c1.947,36.646,27.483,69.414,59.958,85.701c32.475,16.287,70.711,17.746,106.253,10.581c49.79-10.037,97.14-37.6,125.601-80.173
			C467.825,196.888,475.028,138.887,452.257,92.938z"/>
	</g>
	<g style="display:inline;">
		
			<ellipse transform="matrix(0.2259 -0.9741 0.9741 0.2259 -31.6007 138.0118)" style="fill:#F5F5F5;" cx="71.04" cy="88.89" rx="39.895" ry="39.895"/>
	</g>
</g>
<g id="Desk">
	<g>
		<g>
			<path style="fill:#263238;" d="M478.829,464.737c0,0.144-102.458,0.26-228.818,0.26c-126.403,0-228.84-0.117-228.84-0.26
				c0-0.144,102.436-0.26,228.84-0.26C376.37,464.476,478.829,464.593,478.829,464.737z"/>
		</g>
	</g>
</g>
<g id="Coffee">
	<g>
		<g>
			<polygon style="fill:#455A64;" points="51.332,415.111 58.498,465.016 84.574,465.016 91.126,415.111 			"/>
		</g>
		<g>
			<path style="fill:#455A64;" d="M48.462,415.111c0.127-3.355,0.895-6.347,3.461-8.323h39.203c2.152,1.628,2.809,4.787,3.097,8.323
				H48.462z"/>
		</g>
		<g>
			<polygon style="fill:#455A64;" points="54.44,406.788 57.753,401.917 84.922,401.917 87.813,406.788 			"/>
		</g>
		<g>
			<g>
				<path style="fill:#263238;" d="M90.951,406.622c0,0.143-8.422,0.258-18.809,0.258c-10.39,0-18.811-0.115-18.811-0.258
					c0-0.142,8.42-0.258,18.811-0.258C82.529,406.365,90.951,406.48,90.951,406.622z"/>
			</g>
		</g>
		<g>
			<g>
				<path style="fill:#263238;" d="M94.222,415.111c0,0.143-10.154,0.258-22.676,0.258c-12.527,0-22.678-0.115-22.678-0.258
					c0-0.142,10.151-0.258,22.678-0.258C84.069,414.853,94.222,414.968,94.222,415.111z"/>
			</g>
		</g>
		<g>
			<polygon style="fill:#263238;" points="52.95,426.38 89.646,426.38 87.5,442.733 55.298,442.733 			"/>
		</g>
	</g>
	<g>
		<g>
			<g>
				<path style="fill:#263238;" d="M69.924,348.6c0,0,0.2,0.01,0.532,0.175c0.328,0.162,0.802,0.486,1.19,1.084
					c0.392,0.589,0.696,1.437,0.711,2.449c0.02,1.02-0.352,2.146-0.974,3.233c-0.619,1.094-1.495,2.149-2.351,3.303
					c-0.834,1.153-1.7,2.479-1.89,4.043c-0.209,1.569,0.438,3.191,1.403,4.628c0.979,1.451,2.24,2.79,3.376,4.319
					c0.581,0.753,1.077,1.572,1.478,2.424c0.391,0.863,0.6,1.796,0.628,2.723c0.016,1.887-0.898,3.526-1.878,4.833
					c-0.999,1.328-2.143,2.395-3.105,3.465c-0.97,1.063-1.788,2.131-2.282,3.234c-0.52,1.094-0.636,2.204-0.503,3.152
					c0.114,0.951,0.473,1.723,0.867,2.264c0.837,1.087,1.704,1.186,1.657,1.255c-0.002,0.009-0.05,0.001-0.141-0.022
					c-0.089-0.029-0.232-0.048-0.398-0.13c-0.343-0.133-0.823-0.434-1.278-0.979c-0.44-0.55-0.846-1.351-0.995-2.347
					c-0.171-0.984-0.069-2.19,0.455-3.343c0.496-1.166,1.328-2.284,2.297-3.374c0.964-1.099,2.087-2.171,3.042-3.464
					c0.943-1.277,1.777-2.828,1.752-4.543c-0.032-0.849-0.221-1.704-0.591-2.515c-0.381-0.803-0.854-1.587-1.424-2.325
					c-1.109-1.494-2.377-2.846-3.382-4.346c-0.992-1.483-1.699-3.253-1.455-4.97c0.227-1.712,1.16-3.08,2.019-4.241
					c0.887-1.163,1.761-2.184,2.38-3.232c0.621-1.038,0.993-2.098,1.001-3.048c0.013-0.953-0.247-1.767-0.592-2.34
					C70.754,348.795,69.873,348.662,69.924,348.6z"/>
			</g>
		</g>
		<g>
			<g>
				<path style="fill:#263238;" d="M76.503,348.6c0,0,0.2,0.01,0.532,0.175c0.328,0.162,0.802,0.486,1.189,1.084
					c0.392,0.589,0.696,1.437,0.711,2.449c0.02,1.02-0.352,2.146-0.974,3.233c-0.619,1.094-1.495,2.149-2.351,3.303
					c-0.834,1.153-1.7,2.479-1.89,4.043c-0.209,1.569,0.439,3.191,1.403,4.628c0.979,1.451,2.24,2.79,3.376,4.319
					c0.581,0.753,1.077,1.572,1.478,2.424c0.391,0.863,0.6,1.796,0.628,2.723c0.016,1.887-0.898,3.526-1.878,4.833
					c-0.999,1.328-2.143,2.395-3.105,3.465c-0.97,1.063-1.788,2.131-2.282,3.234c-0.52,1.094-0.636,2.204-0.503,3.152
					c0.114,0.951,0.474,1.723,0.867,2.264c0.837,1.087,1.704,1.186,1.657,1.255c-0.002,0.009-0.05,0.001-0.141-0.022
					c-0.089-0.029-0.232-0.048-0.398-0.13c-0.343-0.133-0.823-0.434-1.278-0.979c-0.44-0.55-0.846-1.351-0.995-2.347
					c-0.171-0.984-0.069-2.19,0.455-3.343c0.496-1.166,1.328-2.284,2.297-3.374c0.964-1.099,2.087-2.171,3.042-3.464
					c0.943-1.277,1.777-2.828,1.752-4.543c-0.032-0.849-0.221-1.704-0.591-2.515c-0.381-0.803-0.854-1.587-1.424-2.325
					c-1.109-1.494-2.377-2.846-3.382-4.346c-0.992-1.483-1.699-3.253-1.455-4.97c0.227-1.712,1.16-3.08,2.019-4.241
					c0.887-1.163,1.761-2.184,2.38-3.232c0.621-1.038,0.993-2.098,1.001-3.048c0.013-0.953-0.247-1.767-0.592-2.34
					C77.333,348.795,76.452,348.662,76.503,348.6z"/>
			</g>
		</g>
	</g>
</g>
<g id="Articles">
	<g>
		<g>
			<g>
				<g>
					<rect x="73.929" y="83.925" style="fill:#FFFFFF;" width="191.665" height="252.538"/>
				</g>
				<g>
					<g>
						<path style="fill:#263238;" d="M265.594,336.462c-0.002-2.067-0.096-102.859-0.235-252.537l0.235,0.235
							c-57.419,0.008-122.698,0.016-191.643,0.026h-0.021l0.26-0.26c-0.017,93.954-0.033,181.084-0.046,252.537l-0.214-0.214
							C189.814,336.378,263.819,336.46,265.594,336.462c-1.773,0.002-75.779,0.085-191.665,0.214l-0.214,0v-0.215
							c-0.013-71.453-0.029-158.584-0.046-252.537v-0.26h0.26h0.021c68.945,0.009,134.224,0.018,191.643,0.026l0.235,0l0,0.235
							C265.689,233.603,265.595,334.396,265.594,336.462z"/>
					</g>
				</g>
			</g>
			<g>
				<g>
					<g>
						<g>
							<g>
								<path style="fill:#263238;" d="M265.594,102.374c0,0.085-42.909,0.154-95.828,0.154c-52.937,0-95.837-0.069-95.837-0.154
									c0-0.085,42.9-0.154,95.837-0.154C222.684,102.22,265.594,102.289,265.594,102.374z"/>
							</g>
						</g>
					</g>
				</g>
				<g>
					<g>
						<g>
							<g>
								<path style="fill:#455A64;" d="M141.473,93.743c21.795,0,43.59,0,65.385,0"/>
							</g>
						</g>
					</g>
					<g>
						<g>
							<g>
								<g>
									<path style="fill:#455A64;" d="M206.858,93.743c0,0.085-14.638,0.154-32.691,0.154c-18.059,0-32.694-0.069-32.694-0.154
										c0-0.085,14.635-0.154,32.694-0.154C192.22,93.589,206.858,93.658,206.858,93.743z"/>
								</g>
							</g>
						</g>
					</g>
				</g>
				<g>
					<g>
						<g>
							<path style="fill:#E0E0E0;" d="M83.509,93.743c0,1.17-0.949,2.119-2.119,2.119c-1.17,0-2.119-0.949-2.119-2.119
								c0-1.17,0.949-2.119,2.119-2.119C82.56,91.624,83.509,92.573,83.509,93.743z"/>
						</g>
					</g>
				</g>
				<g>
					<g>
						<g>
							<path style="fill:#E0E0E0;" d="M90.694,93.743c0,1.17-0.949,2.119-2.119,2.119c-1.17,0-2.119-0.949-2.119-2.119
								c0-1.17,0.949-2.119,2.119-2.119C89.746,91.624,90.694,92.573,90.694,93.743z"/>
						</g>
					</g>
				</g>
				<g>
					<g>
						<g>
							<path style="fill:#E0E0E0;" d="M97.88,93.743c0,1.17-0.949,2.119-2.119,2.119c-1.17,0-2.119-0.949-2.119-2.119
								c0-1.17,0.949-2.119,2.119-2.119C96.931,91.624,97.88,92.573,97.88,93.743z"/>
						</g>
					</g>
				</g>
				<g>
					<g>
						<g>
							<path style="fill:#455A64;" d="M146.842,128.176h-4.392l-0.838,2.027h-2.243l4.217-9.46h2.162l4.23,9.46h-2.297
								L146.842,128.176z M146.153,126.513l-1.5-3.622l-1.5,3.622H146.153z"/>
						</g>
					</g>
					<g>
						<g>
							<path style="fill:#455A64;" d="M156.989,130.203l-1.824-2.635h-0.108h-1.906v2.635h-2.189v-9.46h4.095
								c2.527,0,4.108,1.311,4.108,3.432c0,1.419-0.716,2.46-1.946,2.987l2.122,3.041H156.989z M154.935,122.527h-1.783v3.297h1.783
								c1.338,0,2.014-0.622,2.014-1.649C156.949,123.135,156.273,122.527,154.935,122.527z"/>
						</g>
					</g>
					<g>
						<g>
							<path style="fill:#455A64;" d="M162.717,122.527h-3.027v-1.784h8.243v1.784h-3.027v7.676h-2.189V122.527z"/>
						</g>
					</g>
					<g>
						<g>
							<path style="fill:#455A64;" d="M169.108,120.743h2.189v9.46h-2.189V120.743z"/>
						</g>
					</g>
					<g>
						<g>
							<path style="fill:#455A64;" d="M172.945,125.473c0-2.851,2.189-4.892,5.135-4.892c1.635,0,3,0.595,3.892,1.676l-1.406,1.297
								c-0.635-0.73-1.432-1.108-2.378-1.108c-1.77,0-3.027,1.243-3.027,3.027c0,1.784,1.257,3.027,3.027,3.027
								c0.946,0,1.743-0.378,2.378-1.122l1.406,1.297c-0.892,1.095-2.257,1.689-3.905,1.689
								C175.134,130.365,172.945,128.324,172.945,125.473z"/>
						</g>
					</g>
					<g>
						<g>
							<path style="fill:#455A64;" d="M183.444,120.743h2.189v7.676h4.743v1.784h-6.932V120.743z"/>
						</g>
					</g>
					<g>
						<g>
							<path style="fill:#455A64;" d="M198.929,128.446v1.757h-7.324v-9.46h7.148v1.757h-4.973v2.054h4.392v1.703h-4.392v2.189
								H198.929z"/>
						</g>
					</g>
				</g>
				<g>
					<g>
						<g>
							<g>
								<path style="fill:#263238;" d="M134.694,126.319c0,0.085-10.146,0.154-22.658,0.154c-12.517,0-22.66-0.069-22.66-0.154
									c0-0.085,10.143-0.154,22.66-0.154C124.548,126.165,134.694,126.234,134.694,126.319z"/>
							</g>
						</g>
					</g>
				</g>
				<g>
					<g>
						<g>
							<g>
								<path style="fill:#263238;" d="M255.189,126.319c0,0.085-10.652,0.154-23.789,0.154c-13.142,0-23.792-0.069-23.792-0.154
									c0-0.085,10.65-0.154,23.792-0.154C244.537,126.165,255.189,126.234,255.189,126.319z"/>
							</g>
						</g>
					</g>
				</g>
			</g>
			<g>
				<g>
					<g>
						<g>
							<g>
								<g>
									<g>
										<g>
											<g>
												<rect x="200.639" y="279.304" style="fill:#455A64;" width="45.965" height="44.47"/>
											</g>
										</g>
									</g>
								</g>
							</g>
						</g>
					</g>
					<g style="opacity:0.3;">
						<g>
							<g>
								<g>
									<g>
										<g>
											<g>
												<polygon points="204.203,319.967 216.918,297.084 227.318,311.71 233.638,303.943 243.04,319.967 												"/>
											</g>
										</g>
									</g>
								</g>
							</g>
						</g>
					</g>
					<g style="opacity:0.3;">
						<g>
							<g>
								<g>
									<g>
										<g>
											<g>
												<path d="M230.864,290.21c2.697,3.541-1.306,7.543-4.847,4.846C223.321,291.515,227.323,287.513,230.864,290.21z"/>
											</g>
										</g>
									</g>
								</g>
							</g>
						</g>
					</g>
					<g>
						<g>
							<g>
								<g style="opacity:0.3;">
									<g>
										<g>
											<g>
												<g>
													<path d="M243.04,320.091c-0.003-0.004-0.007-0.065-0.011-0.182c-0.002-0.133-0.006-0.303-0.01-0.518
														c-0.005-0.473-0.012-1.141-0.022-2.001c-0.011-1.764-0.028-4.314-0.049-7.552c-0.023-6.495-0.057-15.745-0.096-26.851
														l0.188,0.188c-11.248,0.009-24.582,0.02-38.833,0.031c-0.052,0.046,0.411-0.412,0.215-0.213v0.01v0.02v0.04v0.079
														v0.159v0.317v0.633v1.263c0,0.84,0,1.677,0,2.51c0,1.666-0.001,3.317-0.001,4.951
														c-0.002,3.268-0.003,6.468-0.005,9.583c-0.007,6.228-0.014,12.116-0.021,17.533l-0.191-0.191
														c11.591,0.04,21.273,0.074,28.08,0.097c3.394,0.021,6.07,0.038,7.92,0.05c0.904,0.009,1.605,0.017,2.101,0.022
														c0.227,0.004,0.405,0.008,0.544,0.011C242.972,320.084,243.036,320.088,243.04,320.091
														c0.004,0.003-0.053,0.007-0.17,0.011c-0.134,0.003-0.305,0.006-0.524,0.011c-0.487,0.005-1.176,0.013-2.064,0.022
														c-1.84,0.012-4.502,0.029-7.877,0.05c-6.837,0.024-16.561,0.057-28.203,0.097l-0.191,0.001v-0.192
														c-0.007-5.417-0.014-11.305-0.021-17.533c-0.002-3.115-0.004-6.315-0.006-9.583c0-1.634-0.001-3.285-0.001-4.951
														c0-0.833,0-1.67,0-2.51v-1.263l0-0.633V283.3v-0.159v-0.079v-0.04v-0.02v-0.01c-0.195,0.192,0.266-0.274,0.223-0.225
														c14.252,0.012,27.585,0.022,38.833,0.031l0.189,0l-0.001,0.188c-0.04,11.155-0.073,20.446-0.096,26.97
														c-0.021,3.22-0.038,5.757-0.049,7.51c-0.009,0.845-0.017,1.501-0.022,1.965c-0.005,0.207-0.008,0.37-0.011,0.498
														C243.047,320.04,243.044,320.095,243.04,320.091z"/>
												</g>
											</g>
										</g>
									</g>
								</g>
							</g>
						</g>
					</g>
				</g>
			</g>
			<g>
				<g>
					<path style="fill:#263238;" d="M133.905,143.161c0,0.144-10.05,0.26-22.445,0.26c-12.399,0-22.448-0.117-22.448-0.26
						c0-0.144,10.048-0.26,22.448-0.26C123.854,142.901,133.905,143.018,133.905,143.161z"/>
				</g>
			</g>
			<g>
				<g>
					<path style="fill:#263238;" d="M168.526,153.936c0,0.144-17.801,0.26-39.755,0.26c-21.962,0-39.759-0.117-39.759-0.26
						c0-0.144,17.798-0.26,39.759-0.26C150.725,153.675,168.526,153.792,168.526,153.936z"/>
				</g>
			</g>
			<g>
				<g>
					<path style="fill:#263238;" d="M195.709,153.148c0,0.144-4.823,0.261-10.771,0.261c-5.95,0-10.772-0.117-10.772-0.261
						c0-0.144,4.822-0.26,10.772-0.26C190.886,152.888,195.709,153.005,195.709,153.148z"/>
				</g>
			</g>
			<g>
				<g>
					<path style="fill:#263238;" d="M248.422,152.69c0,0.144-9.954,0.26-22.23,0.26c-12.28,0-22.232-0.117-22.232-0.26
						c0-0.144,9.952-0.26,22.232-0.26C238.468,152.43,248.422,152.546,248.422,152.69z"/>
				</g>
			</g>
			<g>
				<g>
					<path style="fill:#263238;" d="M247.964,161.857c0,0.144-35.711,0.26-79.754,0.26c-44.057,0-79.761-0.117-79.761-0.26
						c0-0.144,35.704-0.26,79.761-0.26C212.252,161.597,247.964,161.714,247.964,161.857z"/>
				</g>
			</g>
			<g>
				<g>
					<path style="fill:#263238;" d="M162.706,171.483c0,0.144-16.522,0.26-36.898,0.26c-20.383,0-36.901-0.117-36.901-0.26
						c0-0.144,16.518-0.26,36.901-0.26C146.184,171.223,162.706,171.339,162.706,171.483z"/>
				</g>
			</g>
			<g>
				<g>
					<path style="fill:#263238;" d="M189.75,171.483c0,0.144-4.515,0.26-10.084,0.26c-5.57,0-10.085-0.117-10.085-0.26
						c0-0.144,4.514-0.26,10.085-0.26C185.235,171.223,189.75,171.339,189.75,171.483z"/>
				</g>
			</g>
			<g>
				<g>
					<path style="fill:#263238;" d="M247.964,170.566c0,0.144-11.596,0.26-25.897,0.26c-14.306,0-25.9-0.117-25.9-0.26
						c0-0.144,11.594-0.26,25.9-0.26C236.368,170.306,247.964,170.423,247.964,170.566z"/>
				</g>
			</g>
			<g>
				<g>
					<path style="fill:#263238;" d="M167.522,253.964c0,0.144-17.801,0.261-39.755,0.261c-21.962,0-39.759-0.117-39.759-0.261
						c0-0.144,17.798-0.26,39.759-0.26C149.721,253.703,167.522,253.82,167.522,253.964z"/>
				</g>
			</g>
			<g>
				<g>
					<path style="fill:#263238;" d="M194.705,253.176c0,0.144-4.823,0.26-10.771,0.26c-5.95,0-10.772-0.117-10.772-0.26
						c0-0.144,4.822-0.26,10.772-0.26C189.882,252.916,194.705,253.032,194.705,253.176z"/>
				</g>
			</g>
			<g>
				<g>
					<path style="fill:#263238;" d="M247.418,252.718c0,0.144-9.954,0.26-22.23,0.26c-12.28,0-22.232-0.117-22.232-0.26
						s9.952-0.26,22.232-0.26C237.464,252.457,247.418,252.574,247.418,252.718z"/>
				</g>
			</g>
			<g>
				<g>
					<path style="fill:#263238;" d="M246.96,261.885c0,0.144-35.711,0.26-79.753,0.26c-44.057,0-79.761-0.117-79.761-0.26
						c0-0.144,35.704-0.26,79.761-0.26C211.248,261.625,246.96,261.741,246.96,261.885z"/>
				</g>
			</g>
			<g>
				<g>
					<path style="fill:#263238;" d="M161.702,271.511c0,0.144-16.522,0.26-36.897,0.26c-20.383,0-36.901-0.117-36.901-0.26
						s16.518-0.26,36.901-0.26C145.18,271.251,161.702,271.367,161.702,271.511z"/>
				</g>
			</g>
			<g>
				<g>
					<path style="fill:#263238;" d="M188.746,271.511c0,0.144-4.515,0.26-10.084,0.26c-5.57,0-10.085-0.117-10.085-0.26
						s4.514-0.26,10.085-0.26C184.231,271.251,188.746,271.367,188.746,271.511z"/>
				</g>
			</g>
			<g>
				<g>
					<path style="fill:#263238;" d="M246.96,270.594c0,0.144-11.596,0.26-25.897,0.26c-14.306,0-25.899-0.117-25.899-0.26
						c0-0.144,11.593-0.26,25.899-0.26C235.364,270.334,246.96,270.451,246.96,270.594z"/>
				</g>
			</g>
			<g>
				<g>
					<path style="fill:#263238;" d="M189.75,282.072c0,0.144-22.54,0.26-50.338,0.26c-27.807,0-50.342-0.117-50.342-0.26
						s22.535-0.26,50.342-0.26C167.21,281.812,189.75,281.928,189.75,282.072z"/>
				</g>
			</g>
			<g>
				<g>
					<path style="fill:#263238;" d="M188.746,292.633c0,0.144-22.493,0.26-50.233,0.26c-27.75,0-50.238-0.117-50.238-0.26
						c0-0.144,22.488-0.26,50.238-0.26C166.253,292.373,188.746,292.489,188.746,292.633z"/>
				</g>
			</g>
			<g>
				<g>
					<rect x="88.343" y="181.671" style="fill:#FF725E;" width="97.623" height="62.326"/>
				</g>
				<g>
					<g>
						<path style="fill:#263238;" d="M181.767,239.041c0,0-0.014-0.337-0.022-0.973c-0.005-0.65-0.013-1.587-0.023-2.808
							c-0.012-2.471-0.029-6.08-0.051-10.707c-0.026-9.258-0.062-22.58-0.107-38.901l0.203,0.203
							c-23.914,0.016-54.82,0.036-88.462,0.058h-0.007l0.26-0.26c-0.007,18.915-0.013,36.963-0.019,53.389l-0.241-0.241
							c25.921,0.048,48.005,0.089,63.627,0.118c7.814,0.028,14.008,0.05,18.268,0.065c2.118,0.013,3.751,0.023,4.874,0.029
							c0.545,0.006,0.963,0.011,1.262,0.014C181.615,239.031,181.767,239.041,181.767,239.041s-0.133,0.01-0.409,0.014
							c-0.293,0.003-0.702,0.008-1.235,0.014c-1.112,0.007-2.729,0.017-4.825,0.029c-4.248,0.015-10.423,0.037-18.214,0.065
							c-15.661,0.029-37.801,0.07-63.786,0.118l-0.241,0.001l0-0.242c-0.006-16.426-0.012-34.474-0.019-53.389l0-0.26h0.261h0.007
							c33.643,0.022,64.549,0.042,88.462,0.057l0.204,0l-0.001,0.203c-0.045,16.374-0.082,29.738-0.107,39.026
							c-0.022,4.608-0.039,8.201-0.051,10.662c-0.01,1.205-0.017,2.129-0.023,2.77C181.781,238.732,181.767,239.041,181.767,239.041
							z"/>
					</g>
				</g>
				<g style="opacity:0.2;">
					<polygon points="95.689,239.041 121.279,206.061 139.773,227.184 153.926,214.445 179.666,239.041 					"/>
				</g>
				<g style="opacity:0.2;">
					<path d="M145.497,202.136c0,3.151-2.555,5.706-5.706,5.706c-3.151,0-5.706-2.555-5.706-5.706c0-3.151,2.554-5.706,5.706-5.706
						C142.942,196.43,145.497,198.985,145.497,202.136z"/>
				</g>
			</g>
			<g>
				<g>
					<path style="fill:#263238;" d="M247.964,181.128c0,0.144-12.253,0.26-27.365,0.26c-15.117,0-27.367-0.117-27.367-0.26
						s12.251-0.26,27.367-0.26C235.711,180.867,247.964,180.984,247.964,181.128z"/>
				</g>
			</g>
			<g>
				<g>
					<path style="fill:#263238;" d="M247.964,190.828c0,0.144-12.253,0.26-27.365,0.26c-15.117,0-27.367-0.117-27.367-0.26
						c0-0.144,12.251-0.26,27.367-0.26C235.711,190.568,247.964,190.685,247.964,190.828z"/>
				</g>
			</g>
			<g>
				<g>
					<path style="fill:#263238;" d="M246.002,233.047c0,0.144-12.253,0.26-27.365,0.26c-15.117,0-27.367-0.117-27.367-0.26
						s12.251-0.26,27.367-0.26C233.749,232.787,246.002,232.903,246.002,233.047z"/>
				</g>
			</g>
			<g>
				<g>
					<path style="fill:#263238;" d="M246.002,243.997c0,0.144-12.253,0.26-27.365,0.26c-15.117,0-27.367-0.117-27.367-0.26
						c0-0.144,12.251-0.26,27.367-0.26C233.749,243.737,246.002,243.853,246.002,243.997z"/>
				</g>
			</g>
			<g>
				<g>
					<path style="fill:#263238;" d="M230.087,200.529c0,0.144-8.251,0.26-18.427,0.26c-10.179,0-18.428-0.117-18.428-0.26
						c0-0.144,8.249-0.26,18.428-0.26C221.836,200.269,230.087,200.385,230.087,200.529z"/>
				</g>
			</g>
			<g>
				<g>
					<path style="fill:#263238;" d="M248.375,200.417c0,0.144-3.081,0.26-6.88,0.26c-3.801,0-6.881-0.117-6.881-0.26
						c0-0.144,3.08-0.26,6.881-0.26C245.294,200.156,248.375,200.273,248.375,200.417z"/>
				</g>
			</g>
			<g>
				<g>
					<path style="fill:#263238;" d="M248.375,211.169c0,0.144-8.22,0.26-18.357,0.26c-10.141,0-18.359-0.117-18.359-0.26
						c0-0.144,8.218-0.26,18.359-0.26C240.155,210.908,248.375,211.025,248.375,211.169z"/>
				</g>
			</g>
			<g>
				<g>
					<path style="fill:#263238;" d="M230.087,222.033c0,0.144-8.251,0.26-18.427,0.26c-10.179,0-18.428-0.117-18.428-0.26
						s8.249-0.26,18.428-0.26C221.836,221.772,230.087,221.889,230.087,222.033z"/>
				</g>
			</g>
			<g>
				<g>
					<path style="fill:#263238;" d="M248.375,221.92c0,0.144-3.081,0.26-6.88,0.26c-3.801,0-6.881-0.117-6.881-0.26
						c0-0.144,3.08-0.26,6.881-0.26C245.294,221.66,248.375,221.777,248.375,221.92z"/>
				</g>
			</g>
			<g>
				<g>
					<path style="fill:#263238;" d="M204.375,210.919c0,0.144-2.27,0.261-5.07,0.261c-2.801,0-5.07-0.117-5.07-0.261
						c0-0.144,2.27-0.26,5.07-0.26C202.105,210.658,204.375,210.775,204.375,210.919z"/>
				</g>
			</g>
			<g>
				<g>
					<path style="fill:#263238;" d="M189.75,302.975c0,0.144-22.718,0.26-50.735,0.26c-28.027,0-50.74-0.116-50.74-0.26
						c0-0.144,22.713-0.26,50.74-0.26C167.033,302.714,189.75,302.831,189.75,302.975z"/>
				</g>
			</g>
			<g>
				<g>
					<path style="fill:#263238;" d="M191.276,314.678c0,0.144-22.718,0.26-50.735,0.26c-28.027,0-50.74-0.116-50.74-0.26
						c0-0.144,22.713-0.26,50.74-0.26C168.558,314.418,191.276,314.534,191.276,314.678z"/>
				</g>
			</g>
		</g>
		<g>
			<g>
				<g>
					<rect x="64.024" y="77.34" style="fill:#FFFFFF;" width="191.665" height="252.538"/>
				</g>
				<g>
					<g>
						<path style="fill:#263238;" d="M255.689,329.877c-0.002-2.068-0.096-102.859-0.235-252.538l0.235,0.235
							C198.27,77.582,132.99,77.591,64.045,77.6h-0.021l0.26-0.26c-0.017,93.954-0.033,181.085-0.046,252.537l-0.214-0.214
							C179.909,329.793,253.914,329.875,255.689,329.877c-1.773,0.002-75.779,0.085-191.665,0.214l-0.214,0v-0.214
							c-0.013-71.453-0.029-158.584-0.046-252.537v-0.26h0.26h0.021c68.945,0.009,134.224,0.018,191.643,0.026h0.235l0,0.235
							C255.784,227.018,255.691,327.811,255.689,329.877z"/>
					</g>
				</g>
			</g>
			<g>
				<g>
					<g>
						<g>
							<g>
								<path style="fill:#263238;" d="M255.689,95.789c0,0.085-42.909,0.154-95.828,0.154c-52.937,0-95.837-0.069-95.837-0.154
									s42.9-0.154,95.837-0.154C212.78,95.635,255.689,95.704,255.689,95.789z"/>
							</g>
						</g>
					</g>
				</g>
				<g>
					<g>
						<g>
							<g>
								<path style="fill:#455A64;" d="M131.568,87.158c21.795,0,43.59,0,65.385,0"/>
							</g>
						</g>
					</g>
					<g>
						<g>
							<g>
								<g>
									<path style="fill:#455A64;" d="M196.953,87.158c0,0.085-14.638,0.154-32.691,0.154c-18.059,0-32.694-0.069-32.694-0.154
										c0-0.085,14.635-0.154,32.694-0.154C182.315,87.004,196.953,87.073,196.953,87.158z"/>
								</g>
							</g>
						</g>
					</g>
				</g>
				<g>
					<g>
						<g>
							<circle style="fill:#E0E0E0;" cx="71.485" cy="87.158" r="2.119"/>
						</g>
					</g>
				</g>
				<g>
					<g>
						<g>
							<path style="fill:#E0E0E0;" d="M80.789,87.158c0,1.17-0.949,2.119-2.119,2.119c-1.17,0-2.119-0.949-2.119-2.119
								c0-1.17,0.949-2.119,2.119-2.119C79.841,85.039,80.789,85.988,80.789,87.158z"/>
						</g>
					</g>
				</g>
				<g>
					<g>
						<g>
							<path style="fill:#E0E0E0;" d="M87.975,87.158c0,1.17-0.949,2.119-2.119,2.119c-1.17,0-2.119-0.949-2.119-2.119
								c0-1.17,0.949-2.119,2.119-2.119C87.026,85.039,87.975,85.988,87.975,87.158z"/>
						</g>
					</g>
				</g>
				<g>
					<g>
						<g>
							<path style="fill:#455A64;" d="M136.938,121.59h-4.392l-0.838,2.027h-2.243l4.217-9.46h2.162l4.23,9.46h-2.297
								L136.938,121.59z M136.249,119.928l-1.5-3.622l-1.5,3.622H136.249z"/>
						</g>
					</g>
					<g>
						<g>
							<path style="fill:#455A64;" d="M147.084,123.618l-1.824-2.635h-0.108h-1.906v2.635h-2.189v-9.46h4.095
								c2.527,0,4.108,1.311,4.108,3.432c0,1.419-0.716,2.46-1.946,2.987l2.122,3.041H147.084z M145.03,115.942h-1.783v3.297h1.783
								c1.338,0,2.014-0.621,2.014-1.649C147.044,116.55,146.369,115.942,145.03,115.942z"/>
						</g>
					</g>
					<g>
						<g>
							<path style="fill:#455A64;" d="M152.813,115.942h-3.027v-1.784h8.243v1.784h-3.027v7.676h-2.189V115.942z"/>
						</g>
					</g>
					<g>
						<g>
							<path style="fill:#455A64;" d="M159.204,114.158h2.189v9.46h-2.189V114.158z"/>
						</g>
					</g>
					<g>
						<g>
							<path style="fill:#455A64;" d="M163.041,118.888c0-2.851,2.189-4.892,5.135-4.892c1.635,0,3,0.595,3.892,1.676l-1.406,1.297
								c-0.635-0.73-1.433-1.108-2.378-1.108c-1.77,0-3.027,1.243-3.027,3.027c0,1.784,1.257,3.027,3.027,3.027
								c0.946,0,1.743-0.378,2.378-1.122l1.406,1.297c-0.892,1.095-2.257,1.689-3.905,1.689
								C165.229,123.78,163.041,121.739,163.041,118.888z"/>
						</g>
					</g>
					<g>
						<g>
							<path style="fill:#455A64;" d="M173.539,114.158h2.189v7.676h4.743v1.784h-6.932V114.158z"/>
						</g>
					</g>
					<g>
						<g>
							<path style="fill:#455A64;" d="M189.024,121.861v1.757H181.7v-9.46h7.148v1.757h-4.973v2.054h4.392v1.703h-4.392v2.189
								H189.024z"/>
						</g>
					</g>
				</g>
				<g>
					<g>
						<g>
							<g>
								<path style="fill:#263238;" d="M124.789,119.734c0,0.085-10.146,0.154-22.658,0.154c-12.517,0-22.66-0.069-22.66-0.154
									c0-0.085,10.143-0.154,22.66-0.154C114.643,119.58,124.789,119.649,124.789,119.734z"/>
							</g>
						</g>
					</g>
				</g>
				<g>
					<g>
						<g>
							<g>
								<path style="fill:#263238;" d="M245.285,119.734c0,0.085-10.652,0.154-23.789,0.154c-13.142,0-23.792-0.069-23.792-0.154
									c0-0.085,10.65-0.154,23.792-0.154C234.632,119.58,245.285,119.649,245.285,119.734z"/>
							</g>
						</g>
					</g>
				</g>
			</g>
			<g>
				<g>
					<g>
						<g>
							<g>
								<g>
									<g>
										<g>
											<g>
												<rect x="190.734" y="272.719" style="fill:#455A64;" width="45.965" height="44.47"/>
											</g>
										</g>
									</g>
								</g>
							</g>
						</g>
					</g>
					<g style="opacity:0.3;">
						<g>
							<g>
								<g>
									<g>
										<g>
											<g>
												<polygon points="194.298,313.383 207.013,290.499 217.413,305.125 223.733,297.358 233.135,313.383 												"/>
											</g>
										</g>
									</g>
								</g>
							</g>
						</g>
					</g>
					<g style="opacity:0.3;">
						<g>
							<g>
								<g>
									<g>
										<g>
											<g>
												<path d="M220.959,283.625c2.697,3.541-1.306,7.543-4.847,4.846C213.416,284.93,217.418,280.928,220.959,283.625z"/>
											</g>
										</g>
									</g>
								</g>
							</g>
						</g>
					</g>
					<g>
						<g>
							<g>
								<g style="opacity:0.3;">
									<g>
										<g>
											<g>
												<g>
													<path d="M233.135,313.506c-0.003-0.003-0.007-0.065-0.011-0.182c-0.002-0.133-0.006-0.303-0.01-0.518
														c-0.005-0.473-0.012-1.141-0.022-2.001c-0.011-1.763-0.028-4.314-0.049-7.552c-0.023-6.495-0.057-15.745-0.096-26.851
														l0.188,0.188c-11.248,0.009-24.582,0.02-38.833,0.031c-0.052,0.046,0.411-0.412,0.215-0.213v0.01v0.02v0.04v0.079
														v0.159v0.317v0.633v1.263c0,0.84,0,1.677,0,2.51c0,1.666-0.001,3.317-0.001,4.951
														c-0.002,3.268-0.003,6.468-0.005,9.582c-0.007,6.228-0.014,12.116-0.021,17.533l-0.191-0.191
														c11.591,0.04,21.273,0.074,28.08,0.097c3.394,0.021,6.07,0.038,7.92,0.05c0.904,0.01,1.605,0.017,2.101,0.022
														c0.227,0.004,0.405,0.008,0.544,0.011C233.067,313.499,233.132,313.503,233.135,313.506
														c0.004,0.004-0.053,0.007-0.17,0.011c-0.134,0.003-0.305,0.007-0.524,0.011c-0.487,0.005-1.176,0.013-2.064,0.022
														c-1.84,0.012-4.502,0.028-7.877,0.05c-6.836,0.024-16.561,0.057-28.203,0.097l-0.191,0.001v-0.192
														c-0.007-5.417-0.014-11.305-0.021-17.533c-0.002-3.115-0.004-6.314-0.006-9.582c0-1.634-0.001-3.285-0.001-4.951
														c0-0.833,0-1.67,0-2.51v-1.263l0-0.633v-0.317v-0.159v-0.079v-0.04v-0.02v-0.01c-0.195,0.192,0.266-0.274,0.223-0.225
														c14.252,0.011,27.585,0.022,38.833,0.031l0.189,0l-0.001,0.188c-0.04,11.155-0.073,20.446-0.096,26.97
														c-0.021,3.22-0.038,5.757-0.049,7.51c-0.009,0.845-0.017,1.501-0.022,1.965c-0.005,0.207-0.008,0.37-0.011,0.498
														C233.142,313.455,233.139,313.51,233.135,313.506z"/>
												</g>
											</g>
										</g>
									</g>
								</g>
							</g>
						</g>
					</g>
				</g>
			</g>
			<g>
				<g>
					<path style="fill:#263238;" d="M124,136.576c0,0.144-10.051,0.261-22.446,0.261c-12.399,0-22.448-0.117-22.448-0.261
						c0-0.144,10.048-0.26,22.448-0.26C113.95,136.316,124,136.433,124,136.576z"/>
				</g>
			</g>
			<g>
				<g>
					<path style="fill:#263238;" d="M158.621,147.351c0,0.144-17.801,0.26-39.755,0.26c-21.962,0-39.759-0.117-39.759-0.26
						c0-0.144,17.797-0.26,39.759-0.26C140.82,147.09,158.621,147.207,158.621,147.351z"/>
				</g>
			</g>
			<g>
				<g>
					<path style="fill:#263238;" d="M185.804,146.563c0,0.144-4.823,0.26-10.771,0.26c-5.95,0-10.772-0.117-10.772-0.26
						s4.822-0.26,10.772-0.26C180.981,146.303,185.804,146.419,185.804,146.563z"/>
				</g>
			</g>
			<g>
				<g>
					<path style="fill:#263238;" d="M238.517,146.105c0,0.144-9.954,0.26-22.23,0.26c-12.28,0-22.232-0.117-22.232-0.26
						c0-0.144,9.952-0.26,22.232-0.26C228.563,145.844,238.517,145.961,238.517,146.105z"/>
				</g>
			</g>
			<g>
				<g>
					<path style="fill:#263238;" d="M238.059,155.272c0,0.144-35.712,0.26-79.754,0.26c-44.057,0-79.761-0.117-79.761-0.26
						c0-0.144,35.704-0.26,79.761-0.26C202.348,155.012,238.059,155.129,238.059,155.272z"/>
				</g>
			</g>
			<g>
				<g>
					<path style="fill:#263238;" d="M152.801,164.898c0,0.144-16.522,0.26-36.898,0.26c-20.383,0-36.901-0.117-36.901-0.26
						c0-0.144,16.518-0.26,36.901-0.26C136.28,164.638,152.801,164.754,152.801,164.898z"/>
				</g>
			</g>
			<g>
				<g>
					<path style="fill:#263238;" d="M179.845,164.898c0,0.144-4.515,0.26-10.084,0.26c-5.57,0-10.085-0.117-10.085-0.26
						c0-0.144,4.514-0.26,10.085-0.26C175.33,164.638,179.845,164.754,179.845,164.898z"/>
				</g>
			</g>
			<g>
				<g>
					<path style="fill:#263238;" d="M238.059,163.981c0,0.144-11.596,0.26-25.897,0.26c-14.306,0-25.9-0.117-25.9-0.26
						c0-0.144,11.594-0.26,25.9-0.26C226.463,163.721,238.059,163.838,238.059,163.981z"/>
				</g>
			</g>
			<g>
				<g>
					<path style="fill:#263238;" d="M157.617,247.379c0,0.144-17.801,0.26-39.755,0.26c-21.962,0-39.759-0.117-39.759-0.26
						s17.798-0.26,39.759-0.26C139.816,247.118,157.617,247.235,157.617,247.379z"/>
				</g>
			</g>
			<g>
				<g>
					<path style="fill:#263238;" d="M184.8,246.591c0,0.144-4.823,0.26-10.771,0.26c-5.95,0-10.772-0.117-10.772-0.26
						c0-0.144,4.822-0.26,10.772-0.26C179.977,246.331,184.8,246.447,184.8,246.591z"/>
				</g>
			</g>
			<g>
				<g>
					<path style="fill:#263238;" d="M237.513,246.133c0,0.144-9.954,0.26-22.23,0.26c-12.28,0-22.232-0.117-22.232-0.26
						c0-0.144,9.952-0.26,22.232-0.26C227.559,245.872,237.513,245.989,237.513,246.133z"/>
				</g>
			</g>
			<g>
				<g>
					<path style="fill:#263238;" d="M237.055,255.3c0,0.144-35.711,0.26-79.753,0.26c-44.057,0-79.761-0.117-79.761-0.26
						c0-0.144,35.704-0.26,79.761-0.26C201.344,255.04,237.055,255.156,237.055,255.3z"/>
				</g>
			</g>
			<g>
				<g>
					<path style="fill:#263238;" d="M151.797,264.926c0,0.144-16.522,0.26-36.897,0.26c-20.383,0-36.901-0.116-36.901-0.26
						c0-0.144,16.518-0.26,36.901-0.26C135.275,264.666,151.797,264.782,151.797,264.926z"/>
				</g>
			</g>
			<g>
				<g>
					<path style="fill:#263238;" d="M178.841,264.926c0,0.144-4.515,0.26-10.084,0.26c-5.57,0-10.085-0.116-10.085-0.26
						c0-0.144,4.514-0.26,10.085-0.26C174.326,264.666,178.841,264.782,178.841,264.926z"/>
				</g>
			</g>
			<g>
				<g>
					<path style="fill:#263238;" d="M237.055,264.009c0,0.144-11.596,0.26-25.897,0.26c-14.306,0-25.899-0.117-25.899-0.26
						s11.593-0.26,25.899-0.26C225.459,263.749,237.055,263.866,237.055,264.009z"/>
				</g>
			</g>
			<g>
				<g>
					<path style="fill:#263238;" d="M179.845,275.487c0,0.144-22.54,0.26-50.338,0.26c-27.807,0-50.342-0.117-50.342-0.26
						s22.535-0.26,50.342-0.26C157.306,275.227,179.845,275.343,179.845,275.487z"/>
				</g>
			</g>
			<g>
				<g>
					<path style="fill:#263238;" d="M178.841,286.048c0,0.144-22.493,0.26-50.233,0.26c-27.75,0-50.238-0.117-50.238-0.26
						c0-0.144,22.488-0.26,50.238-0.26C156.348,285.788,178.841,285.904,178.841,286.048z"/>
				</g>
			</g>
			<g>
				<g>
					<rect x="78.438" y="175.086" style="fill:#FF725E;" width="97.623" height="62.326"/>
				</g>
				<g>
					<g>
						<path style="fill:#263238;" d="M171.862,232.456c0,0-0.014-0.337-0.022-0.973c-0.005-0.65-0.013-1.587-0.022-2.808
							c-0.012-2.471-0.029-6.08-0.051-10.707c-0.026-9.258-0.062-22.58-0.107-38.901l0.203,0.203
							c-23.914,0.016-54.82,0.036-88.462,0.057h-0.007l0.26-0.26c-0.007,18.915-0.013,36.963-0.019,53.389l-0.241-0.241
							c25.921,0.048,48.005,0.089,63.627,0.118c7.814,0.028,14.008,0.05,18.268,0.065c2.118,0.013,3.751,0.023,4.874,0.03
							c0.545,0.006,0.963,0.011,1.262,0.014C171.71,232.446,171.862,232.456,171.862,232.456s-0.133,0.01-0.409,0.014
							c-0.293,0.003-0.702,0.008-1.235,0.014c-1.112,0.007-2.729,0.017-4.825,0.029c-4.247,0.015-10.423,0.037-18.214,0.065
							c-15.661,0.029-37.801,0.07-63.786,0.118l-0.241,0l0-0.242c-0.006-16.426-0.012-34.474-0.019-53.389l0-0.26h0.261H83.4
							c33.643,0.022,64.549,0.042,88.462,0.057l0.204,0l-0.001,0.203c-0.045,16.374-0.082,29.738-0.107,39.026
							c-0.022,4.608-0.039,8.201-0.051,10.662c-0.01,1.205-0.017,2.129-0.023,2.77C171.876,232.147,171.862,232.456,171.862,232.456
							z"/>
					</g>
				</g>
				<g style="opacity:0.2;">
					<polygon points="85.784,232.456 111.375,199.476 129.868,220.599 144.021,207.86 169.761,232.456 					"/>
				</g>
				<g style="opacity:0.2;">
					<path d="M135.592,195.551c0,3.151-2.555,5.706-5.706,5.706c-3.151,0-5.706-2.555-5.706-5.706c0-3.151,2.555-5.706,5.706-5.706
						C133.038,189.845,135.592,192.4,135.592,195.551z"/>
				</g>
			</g>
			<g>
				<g>
					<path style="fill:#263238;" d="M238.059,174.542c0,0.144-12.253,0.26-27.365,0.26c-15.117,0-27.367-0.117-27.367-0.26
						c0-0.144,12.251-0.26,27.367-0.26C225.806,174.282,238.059,174.399,238.059,174.542z"/>
				</g>
			</g>
			<g>
				<g>
					<path style="fill:#263238;" d="M238.059,184.243c0,0.144-12.253,0.26-27.365,0.26c-15.117,0-27.367-0.117-27.367-0.26
						c0-0.144,12.251-0.26,27.367-0.26C225.806,183.983,238.059,184.1,238.059,184.243z"/>
				</g>
			</g>
			<g>
				<g>
					<path style="fill:#263238;" d="M236.097,226.462c0,0.144-12.253,0.26-27.365,0.26c-15.117,0-27.367-0.117-27.367-0.26
						c0-0.144,12.251-0.26,27.367-0.26C223.844,226.202,236.097,226.318,236.097,226.462z"/>
				</g>
			</g>
			<g>
				<g>
					<path style="fill:#263238;" d="M236.097,237.412c0,0.144-12.253,0.26-27.365,0.26c-15.117,0-27.367-0.117-27.367-0.26
						c0-0.144,12.251-0.26,27.367-0.26C223.844,237.152,236.097,237.268,236.097,237.412z"/>
				</g>
			</g>
			<g>
				<g>
					<path style="fill:#263238;" d="M220.182,193.944c0,0.144-8.251,0.26-18.426,0.26c-10.179,0-18.428-0.117-18.428-0.26
						s8.249-0.26,18.428-0.26C211.931,193.684,220.182,193.8,220.182,193.944z"/>
				</g>
			</g>
			<g>
				<g>
					<path style="fill:#263238;" d="M238.47,193.832c0,0.144-3.081,0.26-6.88,0.26c-3.801,0-6.881-0.117-6.881-0.26
						c0-0.144,3.08-0.26,6.881-0.26C235.389,193.572,238.47,193.688,238.47,193.832z"/>
				</g>
			</g>
			<g>
				<g>
					<path style="fill:#263238;" d="M238.47,204.584c0,0.144-8.22,0.26-18.357,0.26c-10.141,0-18.358-0.117-18.358-0.26
						s8.218-0.26,18.358-0.26C230.25,204.323,238.47,204.44,238.47,204.584z"/>
				</g>
			</g>
			<g>
				<g>
					<path style="fill:#263238;" d="M220.182,215.448c0,0.144-8.251,0.26-18.426,0.26c-10.179,0-18.428-0.117-18.428-0.26
						c0-0.144,8.249-0.26,18.428-0.26C211.931,215.187,220.182,215.304,220.182,215.448z"/>
				</g>
			</g>
			<g>
				<g>
					<path style="fill:#263238;" d="M238.47,215.335c0,0.144-3.081,0.26-6.88,0.26c-3.801,0-6.881-0.117-6.881-0.26
						s3.08-0.26,6.881-0.26C235.389,215.075,238.47,215.191,238.47,215.335z"/>
				</g>
			</g>
			<g>
				<g>
					<path style="fill:#263238;" d="M194.47,204.334c0,0.144-2.27,0.26-5.07,0.26c-2.801,0-5.07-0.117-5.07-0.26
						s2.27-0.26,5.07-0.26C192.201,204.073,194.47,204.19,194.47,204.334z"/>
				</g>
			</g>
			<g>
				<g>
					<path style="fill:#263238;" d="M179.845,296.39c0,0.144-22.718,0.26-50.735,0.26c-28.027,0-50.74-0.117-50.74-0.26
						s22.713-0.26,50.74-0.26C157.128,296.129,179.845,296.246,179.845,296.39z"/>
				</g>
			</g>
			<g>
				<g>
					<path style="fill:#263238;" d="M181.371,308.093c0,0.144-22.718,0.26-50.735,0.26c-28.027,0-50.74-0.117-50.74-0.26
						s22.713-0.26,50.74-0.26C158.653,307.833,181.371,307.949,181.371,308.093z"/>
				</g>
			</g>
		</g>
		<g>
			<g>
				<g>
					<rect x="54.496" y="67.812" style="fill:#FFFFFF;" width="191.665" height="252.538"/>
				</g>
				<g>
					<g>
						<path style="fill:#263238;" d="M246.161,320.349c-0.002-2.067-0.096-102.859-0.235-252.537l0.235,0.235
							c-57.419,0.008-122.698,0.016-191.643,0.026h-0.021l0.26-0.26c-0.017,93.954-0.033,181.085-0.046,252.537l-0.214-0.214
							C170.382,320.265,244.387,320.348,246.161,320.349c-1.773,0.002-75.779,0.085-191.665,0.214l-0.214,0v-0.214
							c-0.013-71.453-0.029-158.584-0.046-252.537v-0.26h0.261h0.021c68.945,0.009,134.224,0.018,191.643,0.026h0.235l0,0.235
							C246.257,217.49,246.163,318.284,246.161,320.349z"/>
					</g>
				</g>
			</g>
			<g>
				<g>
					<g>
						<g>
							<g>
								<path style="fill:#263238;" d="M246.161,86.262c0,0.085-42.909,0.154-95.828,0.154c-52.937,0-95.837-0.069-95.837-0.154
									c0-0.085,42.9-0.154,95.837-0.154C203.252,86.107,246.161,86.177,246.161,86.262z"/>
							</g>
						</g>
					</g>
				</g>
				<g>
					<g>
						<g>
							<g>
								<path style="fill:#455A64;" d="M122.04,77.631c21.795,0,43.59,0,65.385,0"/>
							</g>
						</g>
					</g>
					<g>
						<g>
							<g>
								<g>
									<path style="fill:#455A64;" d="M187.426,77.631c0,0.085-14.638,0.154-32.691,0.154c-18.059,0-32.694-0.069-32.694-0.154
										c0-0.085,14.635-0.154,32.694-0.154C172.787,77.476,187.426,77.546,187.426,77.631z"/>
								</g>
							</g>
						</g>
					</g>
				</g>
				<g>
					<g>
						<g>
							<circle style="fill:#E0E0E0;" cx="61.957" cy="77.631" r="2.119"/>
						</g>
					</g>
				</g>
				<g>
					<g>
						<g>
							<path style="fill:#E0E0E0;" d="M71.262,77.631c0,1.17-0.949,2.119-2.119,2.119c-1.17,0-2.119-0.949-2.119-2.119
								s0.949-2.119,2.119-2.119C70.313,75.512,71.262,76.46,71.262,77.631z"/>
						</g>
					</g>
				</g>
				<g>
					<g>
						<g>
							<path style="fill:#E0E0E0;" d="M78.447,77.631c0,1.17-0.949,2.119-2.119,2.119c-1.17,0-2.119-0.949-2.119-2.119
								s0.949-2.119,2.119-2.119C77.499,75.512,78.447,76.46,78.447,77.631z"/>
						</g>
					</g>
				</g>
				<g>
					<g>
						<g>
							<path style="fill:#455A64;" d="M127.41,112.063h-4.392l-0.838,2.027h-2.243l4.217-9.46h2.162l4.229,9.46h-2.297
								L127.41,112.063z M126.721,110.401l-1.5-3.622l-1.5,3.622H126.721z"/>
						</g>
					</g>
					<g>
						<g>
							<path style="fill:#455A64;" d="M137.557,114.09l-1.824-2.635h-0.108h-1.905v2.635h-2.189v-9.46h4.095
								c2.527,0,4.108,1.311,4.108,3.432c0,1.419-0.716,2.46-1.946,2.987l2.122,3.041H137.557z M135.503,106.414h-1.783v3.297h1.783
								c1.338,0,2.014-0.622,2.014-1.649C137.516,107.022,136.841,106.414,135.503,106.414z"/>
						</g>
					</g>
					<g>
						<g>
							<path style="fill:#455A64;" d="M143.285,106.414h-3.027v-1.784h8.243v1.784h-3.027v7.676h-2.189V106.414z"/>
						</g>
					</g>
					<g>
						<g>
							<path style="fill:#455A64;" d="M149.676,104.63h2.189v9.46h-2.189V104.63z"/>
						</g>
					</g>
					<g>
						<g>
							<path style="fill:#455A64;" d="M153.513,109.36c0-2.851,2.189-4.892,5.135-4.892c1.635,0,3,0.595,3.892,1.676l-1.406,1.297
								c-0.635-0.73-1.433-1.108-2.378-1.108c-1.77,0-3.027,1.243-3.027,3.027c0,1.784,1.257,3.027,3.027,3.027
								c0.946,0,1.743-0.378,2.378-1.121l1.406,1.297c-0.892,1.095-2.257,1.689-3.905,1.689
								C155.702,114.252,153.513,112.212,153.513,109.36z"/>
						</g>
					</g>
					<g>
						<g>
							<path style="fill:#455A64;" d="M164.011,104.63h2.189v7.676h4.743v1.784h-6.932V104.63z"/>
						</g>
					</g>
					<g>
						<g>
							<path style="fill:#455A64;" d="M179.496,112.333v1.757h-7.324v-9.46h7.148v1.757h-4.973v2.054h4.392v1.703h-4.392v2.189
								H179.496z"/>
						</g>
					</g>
				</g>
				<g>
					<g>
						<g>
							<g>
								<path style="fill:#263238;" d="M115.261,110.206c0,0.085-10.146,0.154-22.658,0.154c-12.517,0-22.66-0.069-22.66-0.154
									c0-0.085,10.143-0.154,22.66-0.154C105.116,110.052,115.261,110.121,115.261,110.206z"/>
							</g>
						</g>
					</g>
				</g>
				<g>
					<g>
						<g>
							<g>
								<path style="fill:#263238;" d="M235.757,110.206c0,0.085-10.652,0.154-23.789,0.154c-13.142,0-23.792-0.069-23.792-0.154
									c0-0.085,10.65-0.154,23.792-0.154C225.105,110.052,235.757,110.121,235.757,110.206z"/>
							</g>
						</g>
					</g>
				</g>
			</g>
			<g>
				<g>
					<g>
						<g>
							<g>
								<g>
									<g>
										<g>
											<g>
												<rect x="181.206" y="263.191" style="fill:#455A64;" width="45.965" height="44.47"/>
											</g>
										</g>
									</g>
								</g>
							</g>
						</g>
					</g>
					<g style="opacity:0.3;">
						<g>
							<g>
								<g>
									<g>
										<g>
											<g>
												<polygon points="184.77,303.855 197.485,280.971 207.886,295.597 214.205,287.83 223.607,303.855 												"/>
											</g>
										</g>
									</g>
								</g>
							</g>
						</g>
					</g>
					<g style="opacity:0.3;">
						<g>
							<g>
								<g>
									<g>
										<g>
											<g>
												<path d="M211.431,274.097c2.697,3.541-1.306,7.543-4.847,4.846C203.889,275.402,207.891,271.401,211.431,274.097z"/>
											</g>
										</g>
									</g>
								</g>
							</g>
						</g>
					</g>
					<g>
						<g>
							<g>
								<g style="opacity:0.3;">
									<g>
										<g>
											<g>
												<g>
													<path d="M223.607,303.979c-0.003-0.003-0.007-0.065-0.011-0.182c-0.002-0.133-0.006-0.303-0.01-0.518
														c-0.005-0.473-0.012-1.141-0.022-2.001c-0.011-1.764-0.028-4.314-0.049-7.552c-0.023-6.495-0.057-15.745-0.096-26.851
														l0.188,0.188c-11.248,0.009-24.582,0.02-38.833,0.031c-0.052,0.046,0.411-0.412,0.215-0.213v0.01v0.02v0.04v0.079
														v0.159v0.317v0.634v1.263c0,0.84,0,1.677,0,2.51c0,1.666-0.001,3.317-0.001,4.951
														c-0.002,3.268-0.004,6.467-0.005,9.582c-0.007,6.228-0.014,12.116-0.021,17.533l-0.191-0.191
														c11.592,0.04,21.274,0.074,28.08,0.097c3.394,0.021,6.07,0.038,7.92,0.05c0.904,0.01,1.605,0.017,2.101,0.022
														c0.227,0.004,0.405,0.008,0.544,0.011C223.539,303.971,223.604,303.975,223.607,303.979
														c0.004,0.003-0.054,0.007-0.17,0.011c-0.134,0.003-0.305,0.007-0.524,0.011c-0.487,0.005-1.176,0.013-2.064,0.022
														c-1.84,0.012-4.502,0.028-7.877,0.05c-6.837,0.024-16.561,0.057-28.203,0.097l-0.191,0.001v-0.192
														c-0.007-5.417-0.014-11.305-0.021-17.533c-0.002-3.115-0.004-6.315-0.006-9.582c0-1.634-0.001-3.285-0.001-4.951
														c0-0.833,0-1.67,0-2.51v-1.263l0-0.634v-0.317v-0.159v-0.079v-0.04v-0.02v-0.01c-0.195,0.192,0.266-0.274,0.223-0.225
														c14.252,0.011,27.585,0.022,38.833,0.031l0.189,0.001l-0.001,0.188c-0.04,11.155-0.073,20.446-0.096,26.97
														c-0.021,3.22-0.037,5.757-0.049,7.51c-0.01,0.845-0.017,1.501-0.022,1.965c-0.004,0.207-0.008,0.37-0.011,0.498
														C223.614,303.928,223.611,303.982,223.607,303.979z"/>
												</g>
											</g>
										</g>
									</g>
								</g>
							</g>
						</g>
					</g>
				</g>
			</g>
			<g>
				<g>
					<path style="fill:#263238;" d="M114.472,127.049c0,0.144-10.05,0.26-22.446,0.26c-12.399,0-22.448-0.117-22.448-0.26
						c0-0.144,10.048-0.26,22.448-0.26C104.422,126.788,114.472,126.905,114.472,127.049z"/>
				</g>
			</g>
			<g>
				<g>
					<path style="fill:#263238;" d="M149.094,137.823c0,0.144-17.801,0.26-39.755,0.26c-21.962,0-39.759-0.117-39.759-0.26
						s17.797-0.26,39.759-0.26C131.292,137.563,149.094,137.679,149.094,137.823z"/>
				</g>
			</g>
			<g>
				<g>
					<path style="fill:#263238;" d="M176.277,137.036c0,0.144-4.823,0.26-10.771,0.26c-5.95,0-10.772-0.117-10.772-0.26
						c0-0.144,4.822-0.26,10.772-0.26C171.454,136.775,176.277,136.892,176.277,137.036z"/>
				</g>
			</g>
			<g>
				<g>
					<path style="fill:#263238;" d="M228.99,136.577c0,0.144-9.954,0.26-22.23,0.26c-12.28,0-22.232-0.117-22.232-0.26
						c0-0.144,9.952-0.26,22.232-0.26C219.036,136.317,228.99,136.433,228.99,136.577z"/>
				</g>
			</g>
			<g>
				<g>
					<path style="fill:#263238;" d="M228.531,145.745c0,0.144-35.711,0.26-79.754,0.26c-44.057,0-79.761-0.117-79.761-0.26
						c0-0.144,35.704-0.26,79.761-0.26C192.82,145.484,228.531,145.601,228.531,145.745z"/>
				</g>
			</g>
			<g>
				<g>
					<path style="fill:#263238;" d="M143.274,155.37c0,0.144-16.522,0.26-36.897,0.26c-20.383,0-36.901-0.117-36.901-0.26
						c0-0.144,16.518-0.26,36.901-0.26C126.752,155.11,143.274,155.227,143.274,155.37z"/>
				</g>
			</g>
			<g>
				<g>
					<path style="fill:#263238;" d="M170.318,155.37c0,0.144-4.515,0.26-10.084,0.26c-5.57,0-10.085-0.117-10.085-0.26
						c0-0.144,4.514-0.26,10.085-0.26C165.802,155.11,170.318,155.227,170.318,155.37z"/>
				</g>
			</g>
			<g>
				<g>
					<path style="fill:#263238;" d="M228.531,154.454c0,0.144-11.596,0.26-25.897,0.26c-14.306,0-25.899-0.117-25.899-0.26
						s11.593-0.26,25.899-0.26C216.935,154.193,228.531,154.31,228.531,154.454z"/>
				</g>
			</g>
			<g>
				<g>
					<path style="fill:#263238;" d="M148.09,237.851c0,0.144-17.801,0.26-39.755,0.26c-21.962,0-39.759-0.117-39.759-0.26
						s17.798-0.26,39.759-0.26C130.288,237.59,148.09,237.707,148.09,237.851z"/>
				</g>
			</g>
			<g>
				<g>
					<path style="fill:#263238;" d="M175.272,237.063c0,0.144-4.823,0.26-10.771,0.26c-5.95,0-10.772-0.117-10.772-0.26
						c0-0.144,4.822-0.26,10.772-0.26C170.449,236.803,175.272,236.92,175.272,237.063z"/>
				</g>
			</g>
			<g>
				<g>
					<path style="fill:#263238;" d="M227.986,236.605c0,0.144-9.954,0.26-22.23,0.26c-12.28,0-22.232-0.117-22.232-0.26
						c0-0.144,9.952-0.26,22.232-0.26C218.032,236.345,227.986,236.461,227.986,236.605z"/>
				</g>
			</g>
			<g>
				<g>
					<path style="fill:#263238;" d="M227.527,245.773c0,0.144-35.711,0.26-79.754,0.26c-44.057,0-79.761-0.117-79.761-0.26
						c0-0.144,35.704-0.26,79.761-0.26C191.816,245.512,227.527,245.629,227.527,245.773z"/>
				</g>
			</g>
			<g>
				<g>
					<path style="fill:#263238;" d="M142.27,255.398c0,0.144-16.522,0.26-36.897,0.26c-20.383,0-36.901-0.117-36.901-0.26
						c0-0.144,16.518-0.26,36.901-0.26C125.748,255.138,142.27,255.255,142.27,255.398z"/>
				</g>
			</g>
			<g>
				<g>
					<path style="fill:#263238;" d="M169.314,255.398c0,0.144-4.515,0.26-10.084,0.26c-5.57,0-10.085-0.117-10.085-0.26
						c0-0.144,4.514-0.26,10.085-0.26C164.798,255.138,169.314,255.255,169.314,255.398z"/>
				</g>
			</g>
			<g>
				<g>
					<path style="fill:#263238;" d="M227.527,254.482c0,0.144-11.596,0.26-25.897,0.26c-14.306,0-25.899-0.117-25.899-0.26
						s11.593-0.26,25.899-0.26C215.931,254.221,227.527,254.338,227.527,254.482z"/>
				</g>
			</g>
			<g>
				<g>
					<path style="fill:#263238;" d="M170.318,265.959c0,0.144-22.54,0.26-50.338,0.26c-27.808,0-50.343-0.117-50.343-0.26
						c0-0.144,22.535-0.26,50.343-0.26C147.778,265.699,170.318,265.816,170.318,265.959z"/>
				</g>
			</g>
			<g>
				<g>
					<path style="fill:#263238;" d="M169.314,276.52c0,0.144-22.493,0.26-50.233,0.26c-27.75,0-50.238-0.117-50.238-0.26
						s22.488-0.26,50.238-0.26C146.821,276.26,169.314,276.376,169.314,276.52z"/>
				</g>
			</g>
			<g>
				<g>
					<rect x="68.91" y="165.559" style="fill:#FF725E;" width="97.624" height="62.326"/>
				</g>
				<g>
					<g>
						<path style="fill:#263238;" d="M162.334,222.928c0,0-0.014-0.338-0.022-0.973c-0.005-0.65-0.013-1.587-0.023-2.808
							c-0.012-2.471-0.029-6.08-0.051-10.707c-0.026-9.258-0.062-22.58-0.107-38.901l0.203,0.203
							c-23.914,0.016-54.82,0.036-88.462,0.057h-0.007l0.26-0.26c-0.007,18.914-0.013,36.963-0.019,53.389l-0.241-0.241
							c25.921,0.048,48.005,0.089,63.627,0.118c7.814,0.028,14.008,0.05,18.268,0.065c2.118,0.013,3.751,0.023,4.874,0.029
							c0.545,0.006,0.963,0.011,1.262,0.014C162.182,222.918,162.334,222.928,162.334,222.928s-0.133,0.009-0.409,0.014
							c-0.293,0.003-0.702,0.008-1.235,0.014c-1.112,0.007-2.729,0.017-4.825,0.029c-4.247,0.015-10.423,0.037-18.214,0.065
							c-15.661,0.029-37.801,0.07-63.786,0.118l-0.241,0l0-0.242c-0.006-16.426-0.012-34.474-0.019-53.389l0-0.26h0.261h0.007
							c33.642,0.022,64.549,0.042,88.462,0.057l0.204,0l-0.001,0.203c-0.045,16.374-0.082,29.738-0.107,39.026
							c-0.022,4.608-0.04,8.201-0.051,10.662c-0.01,1.205-0.017,2.129-0.023,2.77C162.349,222.619,162.334,222.928,162.334,222.928z
							"/>
					</g>
				</g>
				<g style="opacity:0.2;">
					<polygon points="76.256,222.928 101.847,189.948 120.341,211.071 134.494,198.332 160.233,222.928 					"/>
				</g>
				<g style="opacity:0.2;">
					<path d="M126.064,186.023c0,3.151-2.554,5.706-5.706,5.706c-3.151,0-5.706-2.555-5.706-5.706c0-3.151,2.554-5.706,5.706-5.706
						C123.51,180.318,126.064,182.872,126.064,186.023z"/>
				</g>
			</g>
			<g>
				<g>
					<path style="fill:#263238;" d="M228.531,165.015c0,0.144-12.253,0.26-27.365,0.26c-15.117,0-27.367-0.117-27.367-0.26
						c0-0.144,12.251-0.26,27.367-0.26C216.278,164.755,228.531,164.871,228.531,165.015z"/>
				</g>
			</g>
			<g>
				<g>
					<path style="fill:#263238;" d="M228.531,174.716c0,0.144-12.253,0.26-27.365,0.26c-15.117,0-27.367-0.117-27.367-0.26
						s12.251-0.26,27.367-0.26C216.278,174.455,228.531,174.572,228.531,174.716z"/>
				</g>
			</g>
			<g>
				<g>
					<path style="fill:#263238;" d="M226.569,216.934c0,0.144-12.253,0.26-27.365,0.26c-15.117,0-27.367-0.117-27.367-0.26
						c0-0.144,12.251-0.26,27.367-0.26C214.316,216.674,226.569,216.791,226.569,216.934z"/>
				</g>
			</g>
			<g>
				<g>
					<path style="fill:#263238;" d="M226.569,227.884c0,0.144-12.253,0.26-27.365,0.26c-15.117,0-27.367-0.117-27.367-0.26
						c0-0.144,12.251-0.26,27.367-0.26C214.316,227.624,226.569,227.74,226.569,227.884z"/>
				</g>
			</g>
			<g>
				<g>
					<path style="fill:#263238;" d="M210.654,184.417c0,0.144-8.251,0.26-18.427,0.26c-10.179,0-18.428-0.117-18.428-0.26
						c0-0.144,8.249-0.26,18.428-0.26C202.403,184.156,210.654,184.273,210.654,184.417z"/>
				</g>
			</g>
			<g>
				<g>
					<path style="fill:#263238;" d="M228.942,184.304c0,0.144-3.081,0.26-6.88,0.26c-3.801,0-6.881-0.117-6.881-0.26
						s3.08-0.26,6.881-0.26C225.861,184.044,228.942,184.16,228.942,184.304z"/>
				</g>
			</g>
			<g>
				<g>
					<path style="fill:#263238;" d="M228.942,195.056c0,0.144-8.22,0.26-18.357,0.26c-10.141,0-18.358-0.117-18.358-0.26
						c0-0.144,8.218-0.26,18.358-0.26C220.723,194.796,228.942,194.912,228.942,195.056z"/>
				</g>
			</g>
			<g>
				<g>
					<path style="fill:#263238;" d="M210.654,205.92c0,0.144-8.251,0.26-18.427,0.26c-10.179,0-18.428-0.117-18.428-0.26
						c0-0.144,8.249-0.26,18.428-0.26C202.403,205.66,210.654,205.776,210.654,205.92z"/>
				</g>
			</g>
			<g>
				<g>
					<path style="fill:#263238;" d="M228.942,205.808c0,0.144-3.081,0.26-6.88,0.26c-3.801,0-6.881-0.117-6.881-0.26
						s3.08-0.26,6.881-0.26C225.861,205.547,228.942,205.664,228.942,205.808z"/>
				</g>
			</g>
			<g>
				<g>
					<path style="fill:#263238;" d="M184.943,194.806c0,0.144-2.27,0.26-5.07,0.26c-2.801,0-5.07-0.117-5.07-0.26
						c0-0.144,2.27-0.26,5.07-0.26C182.673,194.546,184.943,194.662,184.943,194.806z"/>
				</g>
			</g>
			<g>
				<g>
					<path style="fill:#263238;" d="M170.318,286.862c0,0.144-22.718,0.26-50.735,0.26c-28.027,0-50.74-0.117-50.74-0.26
						s22.713-0.26,50.74-0.26C147.6,286.602,170.318,286.718,170.318,286.862z"/>
				</g>
			</g>
			<g>
				<g>
					<path style="fill:#263238;" d="M171.844,298.565c0,0.144-22.718,0.26-50.735,0.26c-28.027,0-50.74-0.117-50.74-0.26
						s22.713-0.26,50.74-0.26C149.126,298.305,171.844,298.422,171.844,298.565z"/>
				</g>
			</g>
		</g>
		<g>
			<g>
				<circle style="fill:#EBEBEB;" cx="50.69" cy="199.348" r="13.386"/>
			</g>
			<g>
				<g>
					<path style="fill:#263238;" d="M64.076,199.348c-0.078,0.007,0.005-1.194-0.517-3.244c-0.516-2.01-1.859-4.965-4.882-7.25
						c-1.498-1.116-3.383-2.064-5.557-2.443c-2.158-0.366-4.593-0.294-6.909,0.59c-1.166,0.406-2.29,1.02-3.322,1.794
						c-1.045,0.759-1.993,1.701-2.774,2.792c-1.615,2.15-2.525,4.912-2.551,7.759c0.026,2.848,0.935,5.611,2.55,7.762
						c0.781,1.092,1.73,2.034,2.774,2.793c1.033,0.774,2.157,1.388,3.323,1.794c2.316,0.884,4.751,0.955,6.909,0.59
						c2.173-0.38,4.059-1.327,5.557-2.443c3.023-2.285,4.365-5.24,4.881-7.25C64.081,200.541,63.998,199.341,64.076,199.348
						c0.018,0,0.021,0.294,0.009,0.856c0.001,0.282-0.013,0.63-0.08,1.037c-0.053,0.408-0.104,0.883-0.249,1.4
						c-0.464,2.054-1.777,5.105-4.854,7.493c-1.524,1.166-3.459,2.164-5.701,2.575c-2.226,0.397-4.745,0.34-7.152-0.563
						c-1.211-0.416-2.38-1.046-3.455-1.845c-1.087-0.784-2.074-1.759-2.889-2.89c-1.683-2.229-2.635-5.105-2.66-8.064
						c0.026-2.958,0.978-5.833,2.661-8.061c0.815-1.131,1.802-2.106,2.889-2.889c1.075-0.799,2.244-1.429,3.455-1.845
						c2.407-0.903,4.926-0.96,7.152-0.563c2.242,0.411,4.176,1.408,5.701,2.574c3.078,2.388,4.391,5.439,4.855,7.493
						c0.145,0.517,0.196,0.991,0.25,1.4c0.067,0.407,0.081,0.755,0.08,1.037C64.097,199.054,64.094,199.348,64.076,199.348z"/>
				</g>
			</g>
		</g>
		<g>
			<g>
				<circle style="fill:#EBEBEB;" cx="251.442" cy="199.348" r="13.386"/>
			</g>
			<g>
				<g>
					<path style="fill:#263238;" d="M264.828,199.348c-0.078,0.007,0.005-1.194-0.517-3.244c-0.516-2.01-1.858-4.965-4.882-7.25
						c-1.498-1.116-3.383-2.064-5.556-2.443c-2.159-0.366-4.593-0.294-6.909,0.59c-1.166,0.406-2.29,1.02-3.322,1.794
						c-1.045,0.759-1.992,1.701-2.774,2.792c-1.615,2.15-2.525,4.912-2.551,7.759c0.026,2.848,0.935,5.611,2.55,7.762
						c0.781,1.092,1.73,2.034,2.774,2.793c1.033,0.774,2.157,1.388,3.323,1.794c2.316,0.884,4.751,0.955,6.909,0.59
						c2.173-0.38,4.059-1.327,5.557-2.443c3.023-2.285,4.365-5.24,4.881-7.25C264.833,200.541,264.75,199.341,264.828,199.348
						c0.018,0,0.021,0.294,0.009,0.856c0.001,0.282-0.013,0.63-0.08,1.037c-0.053,0.408-0.104,0.883-0.25,1.4
						c-0.464,2.054-1.776,5.105-4.854,7.493c-1.524,1.166-3.459,2.164-5.701,2.575c-2.226,0.397-4.745,0.34-7.152-0.563
						c-1.211-0.416-2.38-1.046-3.455-1.845c-1.087-0.784-2.074-1.759-2.889-2.89c-1.683-2.229-2.635-5.105-2.66-8.064
						c0.026-2.958,0.978-5.833,2.661-8.061c0.815-1.131,1.802-2.106,2.889-2.889c1.075-0.799,2.244-1.429,3.454-1.845
						c2.407-0.903,4.926-0.96,7.152-0.563c2.242,0.411,4.176,1.408,5.701,2.574c3.078,2.388,4.391,5.439,4.855,7.493
						c0.145,0.517,0.196,0.991,0.249,1.4c0.067,0.407,0.081,0.755,0.08,1.037C264.848,199.054,264.846,199.348,264.828,199.348z"/>
				</g>
			</g>
		</g>
		<g>
			<path style="fill:#263238;" d="M249.854,203.747c-0.143,0-0.285-0.061-0.384-0.179c-0.177-0.212-0.15-0.527,0.062-0.705
				l4.193-3.516l-4.193-3.517c-0.212-0.178-0.239-0.493-0.062-0.705c0.178-0.211,0.493-0.238,0.704-0.062l4.65,3.9
				c0.113,0.095,0.179,0.235,0.179,0.383c0,0.148-0.065,0.288-0.179,0.383l-4.65,3.899
				C250.081,203.709,249.967,203.747,249.854,203.747z"/>
		</g>
		<g>
			<path style="fill:#263238;" d="M53.015,203.747c-0.113,0-0.227-0.039-0.321-0.117l-4.65-3.899
				c-0.113-0.095-0.179-0.235-0.179-0.383c0-0.148,0.065-0.288,0.179-0.383l4.65-3.9c0.213-0.176,0.527-0.149,0.705,0.062
				c0.177,0.211,0.149,0.527-0.062,0.705l-4.193,3.517l4.193,3.516c0.211,0.178,0.239,0.493,0.062,0.705
				C53.3,203.686,53.158,203.747,53.015,203.747z"/>
		</g>
	</g>
</g>
<g id="Character_1_">
	<g>
		<g>
			<g>
				<g>
					<path style="fill:#FF725E;" d="M303.545,331.012l-23.398,77.011l-49.196,23.365l3.256,26.428l46.184-10.997
						c24.22-4.899,36.93-13.957,42.295-36.701l9.264-30.283L303.545,331.012z"/>
				</g>
				<g>
					<g>
						<g>
							<path style="fill:#263238;" d="M421.731,308.955c0.001,0.036-0.496,0.076-1.392,0.146c-0.894,0.073-2.193,0.17-3.763,0.464
								c-1.565,0.297-3.4,0.839-5.239,1.868c-1.822,1.031-3.787,2.348-5.478,4.066c-1.666,1.765-2.946,3.724-3.963,5.575
								c-1.023,1.851-1.802,3.597-2.411,5.081c-0.606,1.485-1.048,2.707-1.352,3.553c-0.301,0.847-0.473,1.315-0.507,1.305
								c-0.03-0.009,0.08-0.496,0.326-1.363c0.25-0.866,0.644-2.111,1.212-3.621c0.572-1.508,1.324-3.283,2.337-5.169
								c1.008-1.885,2.295-3.885,4.005-5.697c1.758-1.782,3.736-3.087,5.616-4.125c1.894-1.031,3.795-1.555,5.392-1.812
								c1.603-0.254,2.913-0.298,3.813-0.314C421.232,308.9,421.73,308.924,421.731,308.955z"/>
						</g>
					</g>
					<g>
						<g>
							<path style="fill:#FFBE9D;" d="M249.51,436.116l14.563-9.652c1.451-0.921,3.182-1.295,4.884-1.055l11.144,1.571
								l25.536,12.807l12.853-0.988l-1.049,22.246c0,0-11.381-0.018-15.826-1.017c-4.445-1-10.453-5.338-10.453-5.338
								s1.37,2.328,0.524,4.03c-0.846,1.703-6.983,4.109-6.983,4.109s-4.322,1.258-4.902-1.776c0,0-7.534,0.577-7.946-5.448
								c0,0-11.321-2.579-9.398-7.748c1.428-3.84,2.822-6.625,2.822-6.625l3.792-7.289l-3.75-0.87c0,0-7.137,4.728-10.156,5.059
								S249.51,436.116,249.51,436.116z"/>
						</g>
						<g>
							<g>
								<path style="fill:#EB996E;" d="M277.715,438.586c0.045,0.083-1.078,0.564-2.535,1.822c-1.427,1.242-3.206,3.382-3.936,6.197
									c-0.312,1.409-0.262,2.823-0.165,4.087c0.114,1.268,0.301,2.406,0.472,3.36c0.351,1.906,0.606,3.084,0.534,3.101
									c-0.032,0.008-0.136-0.276-0.291-0.798c-0.156-0.522-0.363-1.283-0.58-2.234c-0.215-0.952-0.44-2.095-0.581-3.386
									c-0.122-1.288-0.193-2.739,0.137-4.238c0.774-2.979,2.665-5.138,4.19-6.353c0.773-0.612,1.466-1.014,1.96-1.251
									C277.413,438.652,277.703,438.56,277.715,438.586z"/>
							</g>
						</g>
						<g>
							<g>
								<path style="fill:#EB996E;" d="M283.418,445.189c-0.011,0.045-0.29-0.026-0.793-0.023c-0.498,0.01-1.232,0.14-2.003,0.589
									c-0.766,0.439-1.577,1.194-2.093,2.244c-0.514,1.053-0.73,2.371-0.669,3.743c0.053,1.381,0.347,2.673,0.603,3.866
									c0.253,1.189,0.498,2.253,0.737,3.137c0.473,1.771,0.903,2.825,0.833,2.855c-0.028,0.012-0.177-0.234-0.39-0.706
									c-0.213-0.472-0.493-1.169-0.774-2.051c-0.285-0.881-0.567-1.948-0.845-3.136c-0.278-1.178-0.597-2.51-0.652-3.945
									c-0.063-1.431,0.174-2.833,0.755-3.965c0.587-1.133,1.484-1.912,2.329-2.344c0.85-0.442,1.651-0.526,2.174-0.476
									C283.16,445.034,283.425,445.169,283.418,445.189z"/>
							</g>
						</g>
						<g>
							<g>
								<path style="fill:#EB996E;" d="M287.332,454.782c-0.049-0.033,0.059-0.297,0.402-0.569c0.337-0.272,0.899-0.528,1.562-0.581
									c0.659-0.058,1.295,0.133,1.628,0.455c0.339,0.318,0.363,0.621,0.313,0.635c-0.071,0.034-0.208-0.181-0.519-0.359
									c-0.304-0.187-0.812-0.292-1.384-0.246C288.153,454.189,287.422,454.857,287.332,454.782z"/>
							</g>
						</g>
						<g>
							<g>
								<path style="fill:#EB996E;" d="M288.274,450.339c0.05-0.039,0.263,0.167,0.39,0.588c0.13,0.415,0.19,1.014,0.103,1.663
									c-0.086,0.649-0.316,1.224-0.602,1.569c-0.281,0.353-0.568,0.441-0.594,0.389c-0.041-0.064,0.139-0.235,0.305-0.576
									c0.174-0.338,0.329-0.854,0.408-1.447c0.079-0.592,0.078-1.14,0.043-1.528C288.297,450.606,288.215,450.379,288.274,450.339
									z"/>
							</g>
						</g>
						<g>
							<g>
								<path style="fill:#EB996E;" d="M262.458,447.857c-0.031-0.014,0.085-0.332,0.319-0.894c0.234-0.562,0.588-1.368,1.034-2.36
									c0.892-1.983,2.155-4.709,3.577-7.706c0.513-1.073,1.007-2.107,1.469-3.072l0.018-0.037l0.026-0.026
									c0.922-0.914,2.023-1.483,3.054-1.756c1.033-0.289,1.994-0.303,2.767-0.206c0.775,0.099,1.368,0.302,1.752,0.477
									c0.383,0.181,0.572,0.311,0.561,0.331c-0.03,0.079-0.839-0.4-2.342-0.516c-1.456-0.124-3.741,0.256-5.459,1.996l0.044-0.063
									c-0.456,0.967-0.944,2.005-1.451,3.081c-1.422,2.997-2.734,5.699-3.706,7.645c-0.486,0.973-0.887,1.757-1.174,2.293
									C262.661,447.582,262.488,447.872,262.458,447.857z"/>
							</g>
						</g>
					</g>
					<g>
						<g>
							<path style="fill:#FF725E;" d="M447.677,404.253c0,0-2.264-68.685-5.153-78.177c-2.889-9.492-6.423-14.71-13.568-19.328
								c-8.139-5.261-36.596-11.214-37.57-12.083l-47.873,0.948l-2.877,0.319c-16.319,1.808-30.421,12.728-35.576,28.317
								c-0.198,0.598-0.388,1.208-0.569,1.828c-5.799,19.849,16.946,48.389,16.944,47.135c0.056,5.927,0.446,11.606,1.458,15.657
								c3.302,13.211,32.19,35.379,33.841,41.834c1.651,6.456,2.487,34.047,2.487,34.047s45.113,0.342,65.301,0.241
								c16.41-0.082,51.515-0.241,51.515-0.241L447.677,404.253z"/>
						</g>
						<g>
							<g>
								<path style="fill:#263238;" d="M319.786,322.811c0.016-0.005,0.106,0.264,0.264,0.783c0.15,0.52,0.409,1.28,0.608,2.292
									c0.47,2.005,0.927,4.969,1.04,8.653c0.127,3.683-0.051,8.072-0.458,12.917c-0.379,4.848-0.964,10.159-1.243,15.751
									c-0.295,5.59-0.186,10.939,0.524,15.731c0.686,4.794,2.021,8.984,3.524,12.317c1.508,3.34,3.177,5.81,4.355,7.484
									c0.607,0.826,1.118,1.438,1.44,1.873c0.329,0.43,0.495,0.661,0.483,0.672c-0.013,0.011-0.204-0.199-0.558-0.609
									c-0.347-0.415-0.883-1.01-1.516-1.822c-1.231-1.647-2.955-4.104-4.517-7.454c-1.556-3.342-2.939-7.564-3.655-12.394
									c-0.74-4.827-0.863-10.213-0.567-15.822c0.28-5.612,0.88-10.925,1.283-15.763c0.43-4.836,0.643-9.204,0.561-12.87
									c-0.069-3.667-0.471-6.617-0.882-8.624c-0.17-1.013-0.398-1.777-0.517-2.304
									C319.829,323.095,319.77,322.815,319.786,322.811z"/>
							</g>
						</g>
						<g style="opacity:0.3;">
							<g>
								<path d="M435.156,354.247c-9.988,31.388-17.755,63.482-23.224,95.963l-5.311,9.397c6.683-0.931,12.269-5.872,15.672-11.699
									c3.403-5.827,4.969-12.515,6.49-19.089C434.454,404.316,440.146,378.898,435.156,354.247z"/>
							</g>
						</g>
						<g>
							<g>
								<path style="fill:#FF725E;" d="M314.946,436.356l66.779-7.779c0,0,13.95-84.443,14.339-85.945s5.058-27.796,18.287-30.05
									c13.229-2.254,25.29,3.005,26.068,15.776c0.622,10.216-14.198,83.573-23.538,117.544
									c-2.686,9.77-13.396,18.421-23.864,18.618c-27.29,0.515-77.76,0-77.76,0L314.946,436.356z"/>
							</g>
							<g>
								<g>
									<path style="fill:#263238;" d="M396.064,342.631c-0.266,1.618-5.575,33.894-14.143,85.978l-0.023,0.14l-0.14,0.024
										c-19.666,3.371-42.105,3.82-66.534,8.007l0.196-0.235c0.088,7.812-0.017,19.527,0.078,27.972l-0.239-0.239
										c8.081,0.056,16.61,0.116,25.264,0.176c14.131,0.065,27.927,0.08,41.249-0.024c3.33-0.042,6.631-0.083,9.9-0.124
										c3.258,0.016,6.459-0.51,9.389-1.779c5.846-2.462,10.789-6.807,13.712-12.126l0.54-0.999l0.45-1.037
										c0.328-0.68,0.532-1.403,0.77-2.111c0.434-1.436,0.788-2.903,1.182-4.338c0.785-2.876,1.484-5.734,2.197-8.543
										c1.403-5.626,2.705-11.103,3.929-16.407c2.446-10.608,4.594-20.519,6.497-29.58c3.762-18.129,6.551-32.854,8.188-43.078
										c0.411-2.556,0.773-4.826,1.027-6.802c0.135-0.986,0.259-1.897,0.373-2.731c0.087-0.835,0.165-1.593,0.236-2.271
										c0.174-1.353,0.191-2.391,0.209-3.089c0.024-0.698,0.049-1.056,0.049-1.056s0.009,0.357,0.001,1.056
										c-0.002,0.7-0.002,1.742-0.161,3.098c-0.064,0.68-0.134,1.44-0.213,2.277c-0.107,0.835-0.224,1.748-0.35,2.736
										c-0.24,1.98-0.588,4.254-0.984,6.813c-1.58,10.237-4.318,24.975-8.038,43.118c-1.882,9.067-4.011,18.984-6.441,29.6
										c-1.216,5.307-2.51,10.789-3.907,16.42c-0.711,2.813-1.406,5.672-2.189,8.553c-0.394,1.441-0.743,2.896-1.181,4.353
										c-0.242,0.724-0.451,1.464-0.785,2.158l-0.459,1.059l-0.549,1.018c-2.975,5.421-7.979,9.827-13.928,12.34
										c-2.966,1.293-6.282,1.837-9.557,1.821c-3.27,0.043-6.572,0.086-9.904,0.13c-13.326,0.111-27.124,0.1-41.256,0.034
										c-8.655-0.061-17.184-0.122-25.267-0.18l-0.237-0.002l-0.003-0.237c-0.091-8.445,0.018-20.16-0.066-27.972l-0.002-0.202
										l0.199-0.034c24.434-4.16,46.877-4.585,66.547-7.934l-0.163,0.164c4.362-26.084,7.955-47.565,10.459-62.537
										c1.277-7.47,2.276-13.314,2.958-17.302c0.352-1.98,0.622-3.497,0.806-4.53
										C395.942,343.152,396.064,342.631,396.064,342.631z"/>
								</g>
							</g>
						</g>
					</g>
				</g>
				<g style="opacity:0.3;">
					<g>
						<path d="M319.095,368.698c-0.17-10.494,2.824-21.505,2.78-32.91c-3.444,8.997-5.758,18.427-6.872,27.996
							c-0.764,6.564-0.948,13.33,0.928,19.667c1.876,6.337,6.069,12.238,12.118,14.9
							C321.78,389.933,319.265,379.192,319.095,368.698z"/>
					</g>
				</g>
			</g>
			<g>
				<g>
					<path style="fill:#263238;" d="M316.95,242.197c-5.399-3.798-8.225-10.955-6.886-17.437c0.15-0.727,0.339-1.525-0.012-2.179
						c-0.301-0.561-0.919-0.857-1.48-1.154c-3.085-1.633-5.607-4.461-6.512-7.844c-0.905-3.383-0.036-7.278,2.488-9.694
						c-5.098-1.754-7.32-8.598-4.982-13.475c2.338-4.877,8.175-7.452,13.533-6.879c-1.876-2.71-1.118-6.648,1.058-9.122
						c2.175-2.474,5.435-3.711,8.66-4.341c4.339-0.847,9.566-0.399,12.096,3.242c0.205-2.712,2.894-4.574,5.515-5.256
						c7.033-1.829,15.098,2.7,17.23,9.677c2.223-1.674,4.794-3.101,7.572-3.16c2.778-0.059,5.741,1.621,6.388,4.336
						c1.146-2.499,4.126-3.562,6.852-3.84c1.967-0.201,4.047-0.104,5.78,0.855c1.732,0.959,3.006,2.959,2.624,4.909
						c3.556-1.406,8.045,0.332,9.741,3.773c1.697,3.44,0.355,8.08-2.914,10.07c2.937,1.6,4.947,4.796,5.123,8.148
						c0.176,3.351-1.488,6.742-4.241,8.643c1.66,0.119,2.515,2.352,1.789,3.856c-0.726,1.504-2.437,2.276-4.082,2.533
						c0.723,5.718,1.446,11.437,2.169,17.155c0.466,3.69,0.931,7.454,0.23,11.107c-0.701,3.652-2.778,7.24-6.144,8.789"/>
				</g>
				<g>
					<g>
						<g>
							<g>
								<g>
									<g>
										<g>
											<g>
												<g>
													<g>
														<g>
															<path style="fill:#FFBE9D;" d="M314.971,225.675c-1.018-13.927,11.911-29.754,25.806-30.184l45.58,2.376l0.868,7.45
																l5.869,94.228l-41.626,37.052l-5.263-42.376c0,0-17.962-0.513-24.741-23.029
																C318.091,259.994,316.102,241.148,314.971,225.675z"/>
														</g>
													</g>
												</g>
											</g>
										</g>
									</g>
									<g>
										<g>
											<g>
												<g>
													<g>
														<g>
															<g>
																<g>
																	<g>
																		<g>
																			<g>
																				<g>
																					<g>
																						<g>
																							<g>
																								<path style="fill:#263238;" d="M323.166,242.829c0.158,1.566,1.609,2.724,3.24,2.588
																									c1.628-0.135,2.823-1.511,2.666-3.078c-0.158-1.566-1.608-2.725-3.237-2.591
																									C324.203,239.884,323.008,241.263,323.166,242.829z"/>
																							</g>
																						</g>
																					</g>
																				</g>
																			</g>
																		</g>
																	</g>
																</g>
															</g>
														</g>
													</g>
												</g>
											</g>
										</g>
										<g>
											<g>
												<g>
													<g>
														<g>
															<g>
																<g>
																	<g>
																		<g>
																			<g>
																				<g>
																					<g>
																						<g>
																							<g>
																								<g>
																									<path style="fill:#263238;" d="M320.356,234.88c0.417,0.334,2.418-1.626,5.581-2.053
																										c3.153-0.471,5.697,0.843,5.987,0.406c0.145-0.195-0.321-0.839-1.432-1.438
																										c-1.095-0.599-2.889-1.081-4.858-0.802c-1.968,0.282-3.525,1.238-4.375,2.115
																										C320.388,233.991,320.154,234.732,320.356,234.88z"/>
																								</g>
																							</g>
																						</g>
																					</g>
																				</g>
																			</g>
																		</g>
																	</g>
																</g>
															</g>
														</g>
													</g>
												</g>
											</g>
										</g>
									</g>
									<g>
										<g>
											<g>
												<g>
													<g>
														<g>
															<g>
																<g>
																	<g>
																		<g>
																			<g>
																				<g>
																					<g>
																						<g>
																							<g>
																								<path style="fill:#263238;" d="M352.906,239.984c0.158,1.567,1.609,2.723,3.24,2.588
																									c1.629-0.135,2.824-1.511,2.666-3.078c-0.157-1.566-1.608-2.725-3.237-2.59
																									C353.944,237.038,352.749,238.417,352.906,239.984z"/>
																							</g>
																						</g>
																					</g>
																				</g>
																			</g>
																		</g>
																	</g>
																</g>
															</g>
														</g>
													</g>
												</g>
											</g>
										</g>
										<g>
											<g>
												<g>
													<g>
														<g>
															<g>
																<g>
																	<g>
																		<g>
																			<g>
																				<g>
																					<g>
																						<g>
																							<g>
																								<g>
																									<path style="fill:#263238;" d="M351.528,231.891c0.417,0.335,2.421-1.627,5.581-2.053
																										c3.153-0.472,5.697,0.842,5.988,0.406c0.144-0.195-0.318-0.839-1.433-1.439
																										c-1.095-0.6-2.889-1.082-4.857-0.802c-1.969,0.282-3.526,1.239-4.377,2.115
																										C351.562,231.001,351.326,231.743,351.528,231.891z"/>
																								</g>
																							</g>
																						</g>
																					</g>
																				</g>
																			</g>
																		</g>
																	</g>
																</g>
															</g>
														</g>
													</g>
												</g>
											</g>
										</g>
									</g>
									<g>
										<g>
											<g>
												<g>
													<g>
														<g>
															<g>
																<g>
																	<g>
																		<g>
																			<g>
																				<g>
																					<g>
																						<g>
																							<g>
																								<g>
																									<path style="fill:#263238;" d="M343.259,256.331c-0.01-0.183-2.022-0.253-5.263-0.224
																										c-0.819,0.027-1.605-0.029-1.817-0.564c-0.27-0.56-0.052-1.481,0.211-2.478
																										c0.491-2.068,1.005-4.234,1.546-6.505c2.116-9.25,3.529-16.811,3.158-16.893
																										c-0.372-0.083-2.389,7.348-4.505,16.598c-0.502,2.278-0.983,4.45-1.439,6.528
																										c-0.18,0.964-0.563,2.081,0.015,3.24c0.3,0.577,0.954,0.935,1.49,1.004
																										c0.539,0.087,0.994,0.034,1.397,0.002C341.281,256.773,343.271,256.513,343.259,256.331z"/>
																								</g>
																							</g>
																						</g>
																					</g>
																				</g>
																			</g>
																		</g>
																	</g>
																</g>
															</g>
														</g>
													</g>
												</g>
											</g>
										</g>
									</g>
									<g>
										<g>
											<g>
												<g>
													<g>
														<g>
															<g>
																<g>
																	<g>
																		<g>
																			<g>
																				<g>
																					<g>
																						<g>
																							<g>
																								<path style="fill:#EB996E;" d="M346.204,294.221c0,0,15.55-1.123,29.564-12.445
																									c0,0-5.479,18.356-28.705,19.357L346.204,294.221z"/>
																							</g>
																						</g>
																					</g>
																				</g>
																			</g>
																		</g>
																	</g>
																</g>
															</g>
														</g>
													</g>
												</g>
											</g>
										</g>
									</g>
									<g>
										<g>
											<g>
												<g>
													<g>
														<g>
															<g>
																<g>
																	<g>
																		<g>
																			<g>
																				<g>
																					<g>
																						<g>
																							<g>
																								<path style="fill:#EB996E;" d="M345.641,263.803c0.931-1.667,2.809-2.771,4.818-2.829
																									c1.392-0.04,2.87,0.434,3.856,1.442c0.987,1.008,1.379,2.577,0.767,3.752
																									c-0.689,1.323-2.434,1.846-4.002,1.624c-1.568-0.223-3.003-1.043-4.372-1.867
																									c-0.378-0.229-0.767-0.467-1.031-0.815c-0.264-0.347-0.377-0.835-0.156-1.183"/>
																							</g>
																						</g>
																					</g>
																				</g>
																			</g>
																		</g>
																	</g>
																</g>
															</g>
														</g>
													</g>
												</g>
											</g>
										</g>
									</g>
									<g>
										<g>
											<g>
												<g>
													<g>
														<g>
															<g>
																<g>
																	<g>
																		<g>
																			<g>
																				<g>
																					<g>
																						<g>
																							<g>
																								<g>
																									<path style="fill:#263238;" d="M352.864,257.248c-0.519,0.04-0.054,3.489-2.659,6.341
																										c-2.597,2.858-6.309,2.975-6.27,3.461c-0.019,0.222,0.906,0.557,2.456,0.387
																										c1.522-0.156,3.667-0.949,5.26-2.693c1.588-1.747,2.085-3.856,2.009-5.287
																										C353.596,257.997,353.096,257.196,352.864,257.248z"/>
																								</g>
																							</g>
																						</g>
																					</g>
																				</g>
																			</g>
																		</g>
																	</g>
																</g>
															</g>
														</g>
													</g>
												</g>
											</g>
										</g>
									</g>
								</g>
							</g>
						</g>
						<g>
							<g>
								<g>
									<g>
										<g>
											<g>
												<g>
													<g>
														<g>
															<g>
																<g>
																	<g>
																		<g>
																			<g>
																				<g>
																					<g>
																						<path style="fill:#263238;" d="M349.025,220.673c0.43,0.821,3.531-0.024,7.302-0.085
																							c3.771-0.137,6.911,0.542,7.297-0.301c0.169-0.401-0.463-1.141-1.787-1.811
																							c-1.312-0.67-3.335-1.2-5.595-1.143c-2.26,0.062-4.252,0.698-5.527,1.436
																							C349.429,219.509,348.836,220.282,349.025,220.673z"/>
																					</g>
																				</g>
																			</g>
																		</g>
																	</g>
																</g>
															</g>
														</g>
													</g>
												</g>
											</g>
										</g>
									</g>
								</g>
							</g>
						</g>
						<g>
							<g>
								<g>
									<g>
										<g>
											<g>
												<g>
													<g>
														<g>
															<g>
																<g>
																	<g>
																		<g>
																			<g>
																				<g>
																					<g>
																						<path style="fill:#263238;" d="M320.264,225.527c0.655,0.645,2.731-0.404,5.346-0.799
																							c2.601-0.488,4.903-0.181,5.311-1.006c0.173-0.397-0.274-1.072-1.337-1.621
																							c-1.048-0.55-2.721-0.886-4.514-0.583c-1.791,0.305-3.262,1.173-4.072,2.037
																							C320.173,224.424,319.971,225.209,320.264,225.527z"/>
																					</g>
																				</g>
																			</g>
																		</g>
																	</g>
																</g>
															</g>
														</g>
													</g>
												</g>
											</g>
										</g>
									</g>
								</g>
							</g>
						</g>
					</g>
				</g>
				<g>
					<path style="fill:#263238;" d="M320.796,197.85c-0.908,4.392,1.088,9.246,4.818,11.714c3.73,2.467,8.958,2.391,12.616-0.183
						c-1.322,1.67-0.699,4.327,0.909,5.721c1.609,1.395,3.887,1.739,6.006,1.581c4.453-0.333,8.712-2.725,11.325-6.362
						c0.931,3.465,3.585,6.416,6.922,7.698c3.337,1.282,7.274,0.861,10.268-1.097c-2.691,3.375-2.974,8.484-0.673,12.139
						c2.301,3.655,7.018,5.588,11.207,4.593c4.189-0.995,7.544-4.846,7.971-9.148c3.069-1.834,5.208-5.156,5.615-8.719
						c0.406-3.563-0.93-7.286-3.506-9.77c2.215-1.028,3.517-3.504,3.683-5.949c0.166-2.446-0.642-4.86-1.712-7.063
						c-2.618-5.393-7.109-10.077-12.809-11.869c-5.7-1.792-12.583-0.2-16.178,4.591c-0.406,0.541-0.817,1.153-1.462,1.352
						c-0.881,0.272-1.77-0.337-2.49-0.917c-3.189-2.57-6.531-5.351-10.583-5.894c-4.892-0.656-10.02,2.59-11.541,7.307
						c-3.368-4.343-9.63-6.533-14.648-4.321c-5.019,2.212-7.573,9.221-4.452,13.746"/>
				</g>
				<g>
					<path style="fill:#263238;" d="M381.42,230.511c0.869,4.64,2.403,9.153,4.541,13.358c0.907,1.785,2.223,3.717,4.211,3.89
						c1.81,0.157,3.443-1.332,4.047-3.053c0.603-1.721,0.404-3.611,0.13-5.415c-0.971-6.408-2.787-12.653-4.598-18.876"/>
				</g>
				<g>
					<g>
						<g>
							<g>
								<g>
									<g>
										<g>
											<g>
												<g>
													<g>
														<g>
															<g>
																<g>
																	<g>
																		<g>
																			<g>
																				<path style="fill:#FFBE9D;" d="M386.923,233.471c0.266-0.18,11.012-5.645,12.804,6.073
																					c1.792,11.719-10.289,11.108-10.361,10.775C389.294,249.986,386.923,233.471,386.923,233.471z"/>
																			</g>
																		</g>
																	</g>
																</g>
															</g>
														</g>
													</g>
												</g>
											</g>
										</g>
									</g>
								</g>
							</g>
						</g>
					</g>
				</g>
				<g>
					<g>
						<g>
							<g>
								<g>
									<g>
										<g>
											<g>
												<g>
													<g>
														<g>
															<g>
																<g>
																	<g>
																		<g>
																			<g>
																				<g>
																					<path style="fill:#EB996E;" d="M392.25,245.33c0.046-0.045,0.225,0.111,0.593,0.217
																						c0.358,0.102,0.95,0.119,1.523-0.204c1.163-0.644,1.9-2.77,1.634-4.89c-0.133-1.071-0.511-2.052-1.016-2.835
																						c-0.487-0.803-1.131-1.316-1.768-1.331c-0.639-0.048-1.021,0.393-1.113,0.745
																						c-0.106,0.351,0.004,0.574-0.055,0.604c-0.028,0.035-0.281-0.158-0.261-0.657
																						c0.013-0.24,0.107-0.537,0.347-0.804c0.245-0.272,0.639-0.452,1.078-0.472c0.909-0.076,1.846,0.63,2.401,1.49
																						c0.605,0.856,1.055,1.955,1.204,3.157c0.286,2.372-0.579,4.768-2.19,5.518
																						c-0.788,0.342-1.51,0.198-1.906-0.024C392.315,245.609,392.213,245.357,392.25,245.33z"/>
																				</g>
																			</g>
																		</g>
																	</g>
																</g>
															</g>
														</g>
													</g>
												</g>
											</g>
										</g>
									</g>
								</g>
							</g>
						</g>
					</g>
				</g>
				<g>
					<g>
						<path style="fill:#FFFFFF;" d="M356.721,207.915c0.004,0.013-0.116,0.062-0.351,0.143c-0.235,0.083-0.589,0.191-1.056,0.313
							c-0.933,0.236-2.33,0.553-4.149,0.555c-0.906-0.002-1.919-0.087-2.984-0.374c-1.062-0.276-2.191-0.753-3.201-1.557
							c-1.006-0.796-1.903-1.88-2.491-3.213c-0.567-1.327-0.791-2.959-0.26-4.509l0.42,0.274c-2.233,2.131-5.389,3.724-8.947,4.12
							c-1.772,0.21-3.634,0.099-5.46-0.357c-0.91-0.237-1.823-0.567-2.659-1.091c-0.835-0.515-1.571-1.271-2.02-2.182
							c-0.544-1.067-0.72-2.247-0.747-3.371c-0.029-1.132,0.084-2.231,0.216-3.305c0.142-1.079,0.358-2.152,0.81-3.144
							c0.431-0.982,1.241-1.903,2.318-2.191l0.201,0.532c-1.962,0.915-4.137,1.039-6.049,0.586
							c-1.924-0.437-3.616-1.407-4.877-2.664c-1.248-1.267-2.065-2.827-2.341-4.36c-0.302-1.53-0.199-2.993,0.111-4.248
							c0.635-2.535,2.037-4.185,3.089-5.074c1.082-0.894,1.815-1.132,1.815-1.132c0.032,0.054-0.671,0.356-1.69,1.275
							c-0.991,0.914-2.304,2.553-2.87,5.014c-0.275,1.218-0.348,2.625-0.04,4.077c0.283,1.457,1.072,2.912,2.266,4.102
							c1.207,1.178,2.824,2.087,4.653,2.488c1.818,0.418,3.865,0.28,5.687-0.578l0.201,0.532c-0.876,0.241-1.549,0.985-1.947,1.887
							c-0.409,0.903-0.618,1.928-0.752,2.974c-0.236,2.087-0.481,4.385,0.478,6.328c0.802,1.663,2.573,2.533,4.294,2.97
							c1.75,0.441,3.539,0.554,5.248,0.358c3.431-0.367,6.486-1.887,8.657-3.922l0.77-0.722l-0.35,0.996
							c-0.492,1.4-0.309,2.899,0.209,4.152c0.537,1.255,1.374,2.298,2.319,3.068c0.946,0.775,2.01,1.248,3.034,1.535
							c1.022,0.297,2.006,0.401,2.892,0.425c1.779,0.042,3.172-0.223,4.108-0.408C356.217,208.02,356.712,207.884,356.721,207.915z"
							/>
					</g>
				</g>
				<g>
					<g>
						<path style="fill:#FFFFFF;" d="M319.891,207.736c0.018,0.03-0.223,0.232-0.732,0.479c-0.506,0.246-1.299,0.517-2.324,0.579
							c-1.012,0.046-2.285-0.082-3.489-0.83c-0.582-0.38-1.153-0.974-1.333-1.788c-0.177-0.768-0.004-1.752,0.764-2.309l0.301,0.516
							c-0.061,0.026-0.128,0.055-0.195,0.084c-2.975,1.331-6.081,0.725-7.879-0.226c-0.924-0.472-1.587-0.996-1.994-1.403
							c-0.406-0.409-0.588-0.672-0.562-0.695c0.079-0.09,0.914,0.904,2.736,1.714c1.766,0.814,4.694,1.3,7.454,0.063
							c0.062-0.027,0.124-0.053,0.181-0.078l2.681-1.15l-2.38,1.666c-0.506,0.354-0.672,1.085-0.537,1.692
							c0.124,0.612,0.568,1.115,1.067,1.456c1.031,0.68,2.227,0.864,3.174,0.867C318.768,208.346,319.851,207.626,319.891,207.736z"
							/>
					</g>
				</g>
				<g>
					<path style="fill:#455A64;" d="M400.208,247.678c0.025-0.054,0.835,0.211,2.07,1.102c1.212,0.884,2.913,2.438,4.04,4.987
						c1.137,2.501,1.376,6.159-0.383,9.472c-1.662,3.342-5.704,5.845-10.045,5.55c-2.169-0.121-4.211-1.039-5.74-2.35
						c-1.552-1.304-2.675-2.937-3.409-4.623c-1.483-3.391-1.224-7.029,0.115-9.481c1.315-2.485,3.281-3.81,4.668-4.403
						c1.414-0.608,2.287-0.584,2.29-0.532c0.025,0.106-0.807,0.242-2.088,0.944c-1.259,0.685-3.012,2.037-4.123,4.363
						c-1.127,2.279-1.275,5.582,0.133,8.669c1.346,3.027,4.339,6.034,8.231,6.234c3.867,0.252,7.477-1.922,9.013-4.889
						c1.634-2.963,1.525-6.278,0.568-8.637c-0.949-2.408-2.468-3.985-3.554-4.945C400.886,248.169,400.157,247.767,400.208,247.678z
						"/>
				</g>
				<g>
					<g>
						<path style="fill:#263238;" d="M334.045,248.642c-0.079,0.007,0.007-1.224-0.527-3.326c-0.529-2.061-1.904-5.092-5.004-7.436
							c-1.536-1.145-3.469-2.117-5.698-2.506c-2.214-0.375-4.711-0.302-7.086,0.604c-1.196,0.417-2.349,1.046-3.408,1.839
							c-1.071,0.778-2.044,1.744-2.845,2.863c-1.657,2.205-2.59,5.038-2.617,7.958c0.026,2.921,0.959,5.756,2.616,7.961
							c0.802,1.12,1.774,2.086,2.846,2.864c1.059,0.794,2.212,1.423,3.408,1.84c2.376,0.907,4.873,0.979,7.087,0.604
							c2.229-0.389,4.163-1.361,5.698-2.506c3.1-2.344,4.475-5.375,5.004-7.436C334.052,249.865,333.966,248.635,334.045,248.642
							c0.018,0,0.02,0.301,0.008,0.878c0.001,0.289-0.014,0.646-0.083,1.063c-0.055,0.419-0.107,0.905-0.256,1.434
							c-0.476,2.105-1.822,5.232-4.977,7.679c-1.563,1.195-3.545,2.217-5.842,2.638c-2.281,0.407-4.863,0.348-7.329-0.578
							c-1.241-0.426-2.439-1.072-3.54-1.891c-1.114-0.803-2.126-1.802-2.961-2.962c-1.724-2.285-2.7-5.231-2.726-8.264
							c0.026-3.032,1.002-5.977,2.727-8.261c0.835-1.159,1.847-2.158,2.96-2.961c1.101-0.819,2.299-1.465,3.54-1.891
							c2.466-0.925,5.048-0.985,7.329-0.578c2.297,0.421,4.28,1.443,5.842,2.638c3.155,2.447,4.501,5.573,4.978,7.679
							c0.149,0.53,0.201,1.016,0.256,1.435c0.069,0.417,0.084,0.774,0.083,1.063C334.065,248.34,334.063,248.642,334.045,248.642z"
							/>
					</g>
				</g>
				<g>
					<g>
						<path style="fill:#263238;" d="M369.353,246.299c-0.079,0.007,0.007-1.224-0.528-3.326c-0.529-2.061-1.904-5.092-5.004-7.436
							c-1.536-1.145-3.47-2.117-5.698-2.506c-2.214-0.375-4.711-0.302-7.086,0.604c-1.196,0.417-2.349,1.046-3.408,1.839
							c-1.072,0.778-2.044,1.744-2.845,2.863c-1.657,2.205-2.59,5.038-2.617,7.959c0.026,2.921,0.959,5.756,2.616,7.961
							c0.802,1.12,1.774,2.086,2.846,2.864c1.059,0.794,2.212,1.423,3.408,1.84c2.376,0.907,4.873,0.979,7.087,0.604
							c2.229-0.389,4.163-1.362,5.698-2.507c3.1-2.344,4.475-5.375,5.004-7.436C369.359,247.523,369.273,246.293,369.353,246.299
							c0.018,0,0.02,0.301,0.008,0.878c0.001,0.289-0.014,0.646-0.083,1.063c-0.055,0.418-0.107,0.905-0.256,1.434
							c-0.476,2.106-1.822,5.232-4.977,7.679c-1.563,1.195-3.545,2.217-5.842,2.638c-2.281,0.407-4.863,0.348-7.329-0.578
							c-1.241-0.426-2.439-1.072-3.54-1.891c-1.114-0.803-2.126-1.802-2.961-2.962c-1.724-2.285-2.7-5.231-2.726-8.264
							c0.026-3.032,1.002-5.977,2.727-8.261c0.835-1.159,1.847-2.158,2.961-2.961c1.101-0.819,2.299-1.465,3.54-1.891
							c2.466-0.925,5.048-0.985,7.329-0.578c2.297,0.421,4.28,1.443,5.842,2.638c3.155,2.447,4.501,5.573,4.978,7.679
							c0.149,0.53,0.202,1.016,0.256,1.435c0.069,0.417,0.084,0.774,0.083,1.063C369.373,245.998,369.37,246.299,369.353,246.299z"
							/>
					</g>
				</g>
				<g>
					<g>
						<path style="fill:#263238;" d="M342.422,243.413c-0.06,0.067-0.492-0.303-1.295-0.674c-0.798-0.376-2.004-0.685-3.347-0.594
							c-1.343,0.1-2.493,0.576-3.23,1.061c-0.743,0.481-1.118,0.908-1.187,0.851c-0.044-0.029,0.236-0.555,0.972-1.15
							c0.727-0.596,1.958-1.176,3.408-1.282c1.449-0.1,2.75,0.3,3.554,0.787C342.11,242.897,342.462,243.378,342.422,243.413z"/>
					</g>
				</g>
				<g>
					<g>
						<path style="fill:#263238;" d="M388.168,234.157c0.04,0.138-4.351,1.54-9.806,3.132c-5.458,1.592-9.913,2.77-9.953,2.632
							c-0.04-0.138,4.35-1.54,9.807-3.132C383.671,235.197,388.128,234.019,388.168,234.157z"/>
					</g>
				</g>
				<g>
					<g>
						<path style="fill:#FFFFFF;" d="M319.252,258.667c-0.004,0.032-0.247,0.042-0.684-0.006c-0.437-0.047-1.065-0.175-1.81-0.44
							c-1.481-0.512-3.45-1.712-4.82-3.748c-1.366-2.039-1.732-4.316-1.646-5.88c0.037-0.79,0.156-1.42,0.278-1.842
							c0.12-0.423,0.222-0.645,0.253-0.636c0.09,0.021-0.184,0.954-0.163,2.483c0.01,1.512,0.418,3.658,1.71,5.585
							c1.295,1.924,3.126,3.114,4.522,3.696C318.299,258.475,319.267,258.575,319.252,258.667z"/>
					</g>
				</g>
				<g>
					<g>
						<path style="fill:#FFFFFF;" d="M346.307,255.233c-0.025,0.021-0.235-0.176-0.564-0.579c-0.33-0.401-0.762-1.022-1.196-1.848
							c-0.873-1.634-1.671-4.204-1.439-7.079c0.233-2.876,1.434-5.284,2.558-6.757c0.562-0.745,1.088-1.289,1.478-1.632
							c0.389-0.344,0.628-0.505,0.65-0.48c0.065,0.068-0.808,0.818-1.827,2.326c-1.019,1.489-2.115,3.828-2.34,6.586
							c-0.222,2.757,0.484,5.242,1.251,6.875C345.642,254.296,346.383,255.176,346.307,255.233z"/>
					</g>
				</g>
				<g>
					<g>
						<path style="fill:#FFFFFF;" d="M350.929,257.777c-0.064,0.129-0.55,0.016-1.084-0.251c-0.535-0.267-0.916-0.588-0.852-0.717
							s0.55-0.016,1.084,0.251C350.612,257.327,350.993,257.648,350.929,257.777z"/>
					</g>
				</g>
			</g>
		</g>
		<g>
			<g>
				<path style="fill:#E0E0E0;" d="M261.932,464.737H123.5l-20.854-95.313c-1.015-4.638,2.523-9.023,7.27-9.013l122.71,0.267
					c3.468,0.008,6.469,2.414,7.229,5.798L261.932,464.737z"/>
			</g>
			<g>
				<path style="fill:#E0E0E0;" d="M261.932,464.737h65.518l0,0c0-4.649-3.769-8.418-8.418-8.418h-64.555L261.932,464.737z"/>
			</g>
			<g>
				<g>
					<path style="fill:#263238;" d="M254.476,464.737c-0.009,0.002-0.04-0.086-0.092-0.261c-0.058-0.204-0.131-0.461-0.221-0.78
						c-0.193-0.726-0.46-1.734-0.8-3.012c-0.688-2.617-1.644-6.415-2.8-11.113c-2.315-9.396-5.36-22.413-8.647-36.806
						c-3.288-14.397-6.276-27.426-8.499-36.842c-1.107-4.679-2.006-8.478-2.638-11.15c-0.299-1.288-0.535-2.303-0.705-3.035
						c-0.07-0.324-0.126-0.585-0.171-0.792c-0.036-0.179-0.049-0.272-0.041-0.274c0.009-0.002,0.04,0.086,0.092,0.261
						c0.058,0.204,0.13,0.461,0.221,0.78c0.193,0.726,0.46,1.733,0.8,3.011c0.688,2.617,1.643,6.414,2.799,11.113
						c2.315,9.396,5.36,22.415,8.648,36.812c3.287,14.392,6.274,27.42,8.497,36.836c1.107,4.679,2.006,8.478,2.638,11.151
						c0.299,1.288,0.535,2.303,0.705,3.035c0.07,0.324,0.126,0.585,0.171,0.793C254.471,464.641,254.485,464.734,254.476,464.737z"
						/>
				</g>
			</g>
			<g>
				<path style="fill:#FFFFFF;" d="M174.239,401.985c-2.203-0.469-4.3,1.556-4.79,3.755c-0.546,2.455,0.48,5.214,2.559,6.628
					c2.08,1.414,5.096,1.323,7.021-0.295c1.925-1.618,2.517-4.657,1.25-6.83c-1.266-2.173-5.919-4.082-8.173-2.966"/>
			</g>
		</g>
	</g>
</g>
</svg>
